<svg width="32" height="32" viewBox="0 0 32 32" fill="none" xmlns="http://www.w3.org/2000/svg">
    <path d="M16 32C24.8366 32 32 24.8366 32 16C32 7.16344 24.8366 0 16 0C7.16344 0 0 7.16344 0 16C0 24.8366 7.16344 32 16 32Z" fill="#F0B90A"/>
    <path d="M15.9995 5L18.7249 7.79108L11.8621 14.6538L9.13672 11.9284L15.9995 5Z" fill="white" stroke="#F0B90B"/>
    <path d="M20.1368 9.1377L22.8622 11.9288L11.8621 22.9289L9.13672 20.2035L20.1368 9.1377Z" fill="white" stroke="#F0B90B"/>
    <path d="M7.7254 13.2744L10.4508 16.0655L7.7254 18.7909L5 16.0655L7.7254 13.2744Z" fill="white" stroke="#F0B90B"/>
    <path d="M24.2755 13.2744L27.0009 16.0655L16.0008 27.0656L13.2754 24.3402L24.2755 13.2744Z" fill="white" stroke="#F0B90B"/>
</svg>
