<svg width="32" height="32" viewBox="0 0 32 32" fill="none" xmlns="http://www.w3.org/2000/svg">
    <path d="M16 32C24.8366 32 32 24.8366 32 16C32 7.16344 24.8366 0 16 0C7.16344 0 0 7.16344 0 16C0 24.8366 7.16344 32 16 32Z" fill="url(#paint0_linear_447_2101)"/>
    <g filter="url(#filter0_i_447_2101)">
        <path d="M15.8393 7.02902C15.7859 6.99144 15.7143 6.99036 15.6592 7.02577C13.0256 8.72042 11.1807 10.9586 9.70948 13.1332C10.0944 12.8109 10.6356 12.5669 11.0791 12.3395C11.099 12.3282 11.099 12.3038 11.0791 12.2925C10.9649 12.2267 10.8287 12.2065 10.7422 12.2006C10.7183 12.1989 10.7115 12.1669 10.7328 12.1556C11.2866 11.8604 12.0184 11.7695 12.3269 11.759C12.3504 11.7587 12.3455 11.7424 12.3414 11.7341C12.3391 11.7302 12.337 11.7264 12.3347 11.7226C12.2199 11.5402 12.039 11.4072 11.9381 11.3427C11.9184 11.3299 11.9269 11.2997 11.9502 11.2988C12.3316 11.2845 13.2431 11.0872 13.9153 11.2138C13.9408 11.2185 13.9558 11.1919 13.9447 11.1683C13.8783 11.0234 13.7628 10.8949 13.6907 10.8444C13.6733 10.8325 13.6794 10.8051 13.7003 10.8013C14.8365 10.6062 16.1385 11.0368 16.1385 11.0368C16.272 11.0686 16.4691 10.9581 16.5694 10.8192L17.0202 10.1947C17.0362 10.1435 17.1084 10.1437 17.1242 10.1951C17.3449 10.9267 17.7514 11.588 18.3036 12.1143L20.7083 14.4979C20.7838 14.5728 20.7858 14.6947 20.7123 14.772L19.9914 15.5284C19.8846 15.6431 19.7171 15.6767 19.5748 15.6124L18.3122 15.2584C18.269 15.2488 18.2257 15.2389 18.1826 15.229L16.8462 14.9911C16.5455 14.9376 16.271 14.7846 16.0664 14.5568L15.7746 14.2312C15.7178 14.1678 15.6207 14.1627 15.5574 14.2194L14.3427 15.3113C13.8399 15.7599 13.6069 15.9562 13.1344 16.2886L12.2791 16.7955C13.1304 16.4676 15.1825 15.9013 16.7467 16.1507C16.7908 16.1574 16.8188 16.1995 16.8092 16.2435C16.6133 17.1443 15.8615 18.6661 15.1044 19.7495C15.0537 19.8222 14.9876 19.882 14.91 19.9241C14.5791 20.1038 13.6282 20.6207 13.2866 20.8064C13.2395 20.8319 13.1851 20.7887 13.1987 20.7367L13.4939 19.6189C13.5217 19.5133 13.5987 19.4279 13.7002 19.389L14.259 19.1751C14.3693 19.1331 14.4595 19.0505 14.5107 18.9439C14.654 18.6445 14.7922 18.2067 14.8797 17.7465C14.89 17.6925 14.8454 17.6436 14.791 17.6502C13.4021 17.8166 11.0507 18.5547 9.99036 19.3916C9.23738 20.0147 8.62835 20.5669 8.03583 21.3864C7.96265 21.4876 8.00626 21.6315 8.12399 21.6724C13.6151 23.5757 19.3533 23.4792 24.0815 21.0802C24.1471 21.0472 24.1894 20.9786 24.1892 20.905C24.172 15.4971 20.1357 10.0671 15.8393 7.02902Z" fill="white"/>
    </g>
    <defs>
        <filter id="filter0_i_447_2101" x="8" y="7" width="16.1895" height="16" filterUnits="userSpaceOnUse" color-interpolation-filters="sRGB">
            <feFlood flood-opacity="0" result="BackgroundImageFix"/>
            <feBlend mode="normal" in="SourceGraphic" in2="BackgroundImageFix" result="shape"/>
            <feColorMatrix in="SourceAlpha" type="matrix" values="0 0 0 0 0 0 0 0 0 0 0 0 0 0 0 0 0 0 127 0" result="hardAlpha"/>
            <feOffset/>
            <feGaussianBlur stdDeviation="1.90101"/>
            <feComposite in2="hardAlpha" operator="arithmetic" k2="-1" k3="1"/>
            <feColorMatrix type="matrix" values="0 0 0 0 0.762162 0 0 0 0 0.533333 0 0 0 0 0.8 0 0 0 1 0"/>
            <feBlend mode="normal" in2="shape" result="effect1_innerShadow_447_2101"/>
        </filter>
        <linearGradient id="paint0_linear_447_2101" x1="16" y1="0" x2="16" y2="32" gradientUnits="userSpaceOnUse">
            <stop stop-color="#830CA7"/>
            <stop offset="1" stop-color="#4201DC"/>
        </linearGradient>
    </defs>
</svg>
