<svg width="32" height="32" viewBox="0 0 32 32" fill="none" xmlns="http://www.w3.org/2000/svg">
    <path d="M16 32C24.8366 32 32 24.8366 32 16C32 7.16344 24.8366 0 16 0C7.16344 0 0 7.16344 0 16C0 24.8366 7.16344 32 16 32Z" fill="white"/>
    <path fill-rule="evenodd" clip-rule="evenodd" d="M18.2451 13.9336C18.2451 15.7136 15.5294 15.4971 14.6666 15.4971V12.3613C15.5294 12.3613 18.2451 12.0823 18.2451 13.9336ZM18.9544 18.802C18.9544 20.7482 15.7002 20.5257 14.6638 20.5257V17.0724C15.7002 17.0753 18.9544 16.7699 18.9544 18.8026V18.802ZM21.0969 13.2304C20.9229 11.3733 19.3598 10.7502 17.3824 10.5604V8H15.8536V10.5099C15.4513 10.5099 15.0402 10.5099 14.632 10.5248V8H13.112V10.5753H10.0144V12.2515C10.0144 12.2515 11.1435 12.2306 11.1261 12.2515C11.3299 12.2287 11.5344 12.2877 11.6965 12.4161C11.8585 12.5445 11.9655 12.7322 11.9948 12.9397V19.9918C11.9904 20.0644 11.9722 20.1355 11.941 20.2009C11.9098 20.2663 11.8664 20.3248 11.8131 20.373C11.7598 20.4212 11.6977 20.4582 11.6305 20.482C11.5632 20.5057 11.492 20.5156 11.4209 20.5112C11.4192 20.5113 11.4175 20.5113 11.4157 20.5112C11.436 20.529 10.304 20.5112 10.304 20.5112L10 22.3833H13.0859V25H14.6146V22.4215H15.8364V24.9877H17.3679V22.4005C19.9504 22.2402 21.7512 21.5875 21.9769 19.1103C22.1594 17.1169 21.244 16.2275 19.7824 15.8679C20.6713 15.4051 21.2301 14.5892 21.0969 13.2304" fill="black"/>
</svg>
