<svg width="58" height="58" viewBox="0 0 58 58" fill="none" xmlns="http://www.w3.org/2000/svg">
    <g clip-path="url(#clip0_37_1688)">
        <path d="M0.292988 28.293L19.595 8.99101L19.596 8.99001L28.293 0.293006C28.684 -0.0979941 29.316 -0.0979941 29.707 0.293006C30.098 0.684006 30.098 1.31601 29.707 1.70701L22.003 9.41101C24.66 10.763 27.039 12.662 28.946 14.966C31.447 16.835 33.41 19.324 34.62 22.179C35.536 24.337 36 26.632 36 29C36 31.368 35.536 33.663 34.621 35.821C33.41 38.676 31.448 41.166 28.947 43.034C27.04 45.338 24.661 47.237 22.004 48.589L29.708 56.293C30.099 56.684 30.099 57.316 29.708 57.707C29.512 57.902 29.256 58 29 58C28.744 58 28.488 57.902 28.293 57.707L0.292988 29.707C-0.0980148 29.316 -0.0980148 28.684 0.292988 28.293ZM33.081 34.216C33.679 32.548 34 30.801 34 29C34 27.199 33.679 25.452 33.081 23.784C31.279 24.521 30 26.614 30 29C30 31.386 31.279 33.479 33.081 34.216ZM28.2 41.069C29.904 39.695 31.308 37.995 32.301 36.062C29.748 35.02 28 32.244 28 29C28 25.756 29.748 22.98 32.301 21.938C31.309 20.005 29.905 18.305 28.2 16.931C23.277 18.889 20 23.67 20 29C20 34.33 23.278 39.111 28.2 41.069ZM20.493 47.078C22.793 46.004 24.896 44.501 26.67 42.597C21.43 40.158 18 34.862 18 29C18 23.137 21.431 17.84 26.672 15.401C24.927 13.52 22.811 12.004 20.492 10.921L2.41399 29L20.493 47.078Z" fill="url(#paint0_linear_37_1688)"/>
        <path d="M46 29C46 28.448 46.448 28 47 28H51C51.552 28 52 28.448 52 29C52 29.552 51.552 30 51 30H47C46.448 30 46 29.552 46 29Z" fill="url(#paint1_linear_37_1688)"/>
        <path d="M44 29C44 29.552 43.552 30 43 30H39C38.448 30 38 29.552 38 29C38 28.448 38.448 28 39 28H43C43.552 28 44 28.448 44 29Z" fill="url(#paint2_linear_37_1688)"/>
        <path d="M55 28H57C57.552 28 58 28.448 58 29C58 29.552 57.552 30 57 30H55C54.448 30 54 29.552 54 29C54 28.448 54.448 28 55 28Z" fill="url(#paint3_linear_37_1688)"/>
        <path d="M39.95 22.636C40.341 22.245 40.973 22.245 41.364 22.636C41.755 23.027 41.755 23.659 41.364 24.05L38.535 26.879C38.34 27.074 38.084 27.172 37.828 27.172C37.572 27.172 37.316 27.074 37.121 26.879C36.73 26.488 36.73 25.856 37.121 25.465L39.95 22.636Z" fill="url(#paint4_linear_37_1688)"/>
        <path d="M44.192 21.222C43.997 21.417 43.741 21.515 43.485 21.515C43.229 21.515 42.973 21.417 42.778 21.222C42.387 20.831 42.387 20.199 42.778 19.808L45.607 16.979C45.998 16.588 46.63 16.588 47.021 16.979C47.412 17.37 47.412 18.002 47.021 18.393L44.192 21.222Z" fill="url(#paint5_linear_37_1688)"/>
        <path d="M38.536 31.1221L41.365 33.9511C41.756 34.3421 41.756 34.9741 41.365 35.3651C41.17 35.5601 40.914 35.6581 40.658 35.6581C40.402 35.6581 40.146 35.5601 39.951 35.3651L37.122 32.5361C36.731 32.1451 36.731 31.5131 37.122 31.1221C37.513 30.7311 38.145 30.7311 38.536 31.1221Z" fill="url(#paint6_linear_37_1688)"/>
        <path d="M44.192 36.778L47.021 39.607C47.412 39.998 47.412 40.63 47.021 41.021C46.826 41.216 46.57 41.314 46.314 41.314C46.058 41.314 45.802 41.216 45.607 41.021L42.778 38.192C42.387 37.801 42.387 37.169 42.778 36.778C43.169 36.387 43.802 36.388 44.192 36.778Z" fill="url(#paint7_linear_37_1688)"/>
    </g>
    <defs>
        <linearGradient id="paint0_linear_37_1688" x1="0.9181" y1="31.5216" x2="35.7499" y2="31.5216" gradientUnits="userSpaceOnUse">
            <stop stop-color="#FF00B8"/>
            <stop offset="1" stop-color="#00D1FF"/>
        </linearGradient>
        <linearGradient id="paint1_linear_37_1688" x1="46.1531" y1="29.087" x2="51.9583" y2="29.087" gradientUnits="userSpaceOnUse">
            <stop stop-color="#FF00B8"/>
            <stop offset="1" stop-color="#00D1FF"/>
        </linearGradient>
        <linearGradient id="paint2_linear_37_1688" x1="38.1531" y1="29.087" x2="43.9583" y2="29.087" gradientUnits="userSpaceOnUse">
            <stop stop-color="#FF00B8"/>
            <stop offset="1" stop-color="#00D1FF"/>
        </linearGradient>
        <linearGradient id="paint3_linear_37_1688" x1="54.102" y1="29.087" x2="57.9722" y2="29.087" gradientUnits="userSpaceOnUse">
            <stop stop-color="#FF00B8"/>
            <stop offset="1" stop-color="#00D1FF"/>
        </linearGradient>
        <linearGradient id="paint4_linear_37_1688" x1="36.9509" y1="24.9674" x2="41.6237" y2="24.9674" gradientUnits="userSpaceOnUse">
            <stop stop-color="#FF00B8"/>
            <stop offset="1" stop-color="#00D1FF"/>
        </linearGradient>
        <linearGradient id="paint5_linear_37_1688" x1="42.6079" y1="19.3104" x2="47.2807" y2="19.3104" gradientUnits="userSpaceOnUse">
            <stop stop-color="#FF00B8"/>
            <stop offset="1" stop-color="#00D1FF"/>
        </linearGradient>
        <linearGradient id="paint6_linear_37_1688" x1="36.9519" y1="33.4534" x2="41.6247" y2="33.4534" gradientUnits="userSpaceOnUse">
            <stop stop-color="#FF00B8"/>
            <stop offset="1" stop-color="#00D1FF"/>
        </linearGradient>
        <linearGradient id="paint7_linear_37_1688" x1="42.6079" y1="39.1095" x2="47.2807" y2="39.1095" gradientUnits="userSpaceOnUse">
            <stop stop-color="#FF00B8"/>
            <stop offset="1" stop-color="#00D1FF"/>
        </linearGradient>
        <clipPath id="clip0_37_1688">
            <rect width="58" height="58" fill="white" transform="matrix(-1 0 0 1 58 0)"/>
        </clipPath>
    </defs>
</svg>
