<svg width="54" height="59" viewBox="0 0 54 59" fill="none" xmlns="http://www.w3.org/2000/svg">
    <path d="M27 58.1669C42.5235 58.1669 54 48.7169 54 31.897C54 22.0066 50.3783 13.8167 47.3402 8.68771C47.2766 8.58013 47.3141 8.44494 47.4225 8.387L49.629 7.2078C50.6295 6.67295 50.9228 5.37502 50.2516 4.46199L47.5304 0.761002C46.9621 -0.0118448 45.9106 -0.227465 45.0841 0.259782L39.1629 3.75038C37.2169 4.89732 36.612 7.42716 37.8367 9.32492C39.7134 12.2336 42.9274 18.2503 43.3663 25.8663C43.3933 26.3361 43.7939 26.6939 44.266 26.6679C44.7357 26.6408 45.0946 26.238 45.0676 25.7683C44.6061 17.7622 41.2363 11.4507 39.2685 8.40098C38.5678 7.31492 38.9197 5.8717 40.0283 5.21825L45.9496 1.72766C46.0196 1.68631 46.1092 1.7046 46.1575 1.77026L48.8787 5.47136C48.9361 5.54941 48.9112 5.65903 48.8257 5.70482L46.6192 6.88402C45.6321 7.41171 45.3299 8.63761 45.8739 9.5561C48.8036 14.5018 52.2958 22.3924 52.2958 31.8969C52.2958 50.029 38.669 56.4627 26.9999 56.4627C15.3307 56.4627 1.70406 50.0291 1.70406 31.897C1.70406 22.3925 5.19624 14.502 8.12597 9.55622C8.67025 8.63739 8.36761 7.4116 7.38073 6.88414L5.1742 5.70493C5.08957 5.65983 5.06355 5.54997 5.12126 5.47147L7.84242 1.77026C7.8907 1.70448 7.98022 1.68631 8.05031 1.72766L13.9717 5.21825C15.0828 5.87318 15.4304 7.31776 14.7315 8.40098C12.5448 11.7898 8.87655 18.7948 8.87655 27.635C8.87655 39.5467 16.2151 46.3533 26.9999 46.3533C37.0776 46.3533 44.1934 40.3674 45.0353 29.8615C45.0729 29.3925 44.7232 28.9818 44.2542 28.9442C43.7871 28.9067 43.3744 29.2563 43.3368 29.7254C42.5877 39.0703 36.4805 44.6494 26.9999 44.6494C16.7186 44.6494 10.5806 38.2889 10.5806 27.6351C10.5806 19.2317 14.0784 12.5563 16.1633 9.32503C17.388 7.42705 16.7829 4.89732 14.8371 3.75049L8.91574 0.259669C8.08939 -0.227465 7.03776 -0.0118448 6.46951 0.760889L3.74836 4.4621C3.07662 5.37605 3.37142 6.67352 4.37102 7.2078L6.57755 8.387C6.68593 8.44494 6.72342 8.58013 6.6598 8.68771C3.62169 13.8166 0 22.0066 0 31.897C0 48.6897 11.4556 58.1669 27 58.1669Z" fill="url(#paint0_linear_37_1638)"/>
    <defs>
        <linearGradient id="paint0_linear_37_1638" x1="52.6225" y1="31.6124" x2="0.37511" y2="31.6124" gradientUnits="userSpaceOnUse">
            <stop stop-color="#FF00B8"/>
            <stop offset="1" stop-color="#00D1FF"/>
        </linearGradient>
    </defs>
</svg>