<svg width="41" height="55" viewBox="0 0 41 55" fill="none" xmlns="http://www.w3.org/2000/svg">
    <path d="M7.88128 19.9289C7.85458 17.0694 8.22955 14.5361 9.03095 12.358L9.03355 12.3509L9.03627 12.3439C10.9888 7.27461 14.7878 4.67404 19.1193 3.9455C22.7926 3.32768 26.8117 4.05618 30.4174 5.65808C29.9659 5.26716 29.4813 4.92315 28.9492 4.62797C28.9026 4.60222 28.8588 4.57544 28.8178 4.5483L7.88128 19.9289ZM7.88128 19.9289C7.77493 19.6522 7.67283 19.3751 7.57552 19.0976L7.57124 19.0854L7.56664 19.0733C5.80188 14.43 6.40794 10.0741 8.62307 6.90819C10.8373 3.74361 14.7415 1.65083 19.8122 1.70165C22.965 1.75603 26.0791 2.73633 28.8174 4.54803L7.88128 19.9289ZM22.922 43.9117C22.803 43.6727 22.6317 43.468 22.4223 43.3072C22.0329 43.0082 21.5646 42.8975 21.1507 42.9039C20.7363 42.9104 20.28 43.0354 19.904 43.3294C19.5033 43.6427 19.226 44.1292 19.2269 44.7265V44.7266C19.2295 46.3121 18.9464 47.7459 18.4035 48.9995C17.5504 50.9687 16.0227 52.5 14.1066 53.3241C11.2288 54.5614 7.84729 54.0007 5.54717 52.0624C4.47016 51.1547 3.1884 49.8513 2.39001 47.754C2.45403 47.7966 2.51855 47.8383 2.58356 47.8791M22.922 43.9117L3.11559 47.0324M22.922 43.9117C23.029 42.5808 23.0157 41.1993 22.9628 39.7954C22.94 39.1904 22.9092 38.5718 22.8784 37.9519C22.8244 36.8672 22.7702 35.7783 22.7582 34.7499L22.7582 34.7486C22.7182 30.8817 23.2716 26.6939 25.3357 23.0729L26.2045 23.5682L25.3357 23.0729C26.1009 21.7307 27.0616 20.7014 28.0457 19.7799C28.4706 19.3821 28.8735 19.0263 29.2684 18.6774C29.7414 18.2596 30.2032 17.8517 30.678 17.3936V14.7481C27.2025 14.7722 23.7863 16.5839 21.9668 19.4508C19.1907 25.4756 20.7179 32.2512 22.2072 38.8585C22.2416 39.0114 22.2761 39.1642 22.3105 39.3169L22.3108 39.3185C22.4411 39.9017 22.2805 40.4447 21.9341 40.8424C21.6133 41.2106 21.1771 41.4101 20.7719 41.4848C20.3648 41.5598 19.8934 41.5269 19.4657 41.3132C19.0118 41.0865 18.6448 40.6699 18.5153 40.0924C18.4578 39.8371 18.3991 39.5777 18.3395 39.3146C17.6453 36.25 16.835 32.6731 16.5702 29.0915C16.2826 25.2 16.6265 21.1811 18.5433 17.701C20.8749 13.4681 25.8424 11.0652 30.678 11.0495V9.95752C24.8213 6.84065 20.9168 7.23746 19.1688 7.70229L18.9118 6.73588M22.922 43.9117L18.9118 6.73588M2.58356 47.8791L3.11559 47.0324M2.58356 47.8791C2.58354 47.8791 2.58353 47.8791 2.58352 47.8791L3.11559 47.0324M2.58356 47.8791C5.51629 49.7221 9.53308 49.7274 12.4063 47.8668L12.4077 47.8659C15.0388 46.1557 15.838 43.6054 15.8254 41.0701C15.8131 38.5889 15.0279 36.0072 14.4028 34.0156L14.4028 34.0154C11.5308 24.8726 11.0491 18.0533 12.6932 13.5845C13.8249 10.5087 15.9773 8.55091 19.1688 7.7023L18.9118 6.73588M3.11559 47.0324C5.72725 48.6736 9.3243 48.6712 11.8627 47.0274C16.3875 44.0863 14.7098 38.3331 13.4487 34.315C10.5613 25.1229 9.99139 18.0319 11.7547 13.2392C12.9996 9.85563 15.4077 7.66761 18.9118 6.73588M21.2383 49.6144C21.1856 49.7496 21.1306 49.8835 21.0731 50.0161C20.5414 51.2435 19.7473 52.4376 18.7725 53.4206L21.2383 49.6144ZM34.7118 8.74061L34.7118 8.73848C34.7122 8.52832 34.6674 8.31925 34.5819 8.12213L34.5654 15.1891C34.6606 14.985 34.7112 14.768 34.7118 14.5509C34.7118 14.5507 34.7118 14.5504 34.7118 14.5501L34.7118 8.74061ZM34.5854 6.58821C34.2926 6.37111 33.9548 6.20188 33.5866 6.09391L33.5841 7.15512L34.5854 6.58821ZM38.5862 11.2883L38.5843 12.0147L38.9676 12.0154C38.9557 11.7732 38.9561 11.531 38.9687 11.2889L38.5862 11.2883Z" stroke="url(#paint0_linear_37_1667)" stroke-width="2"/>
    <defs>
        <linearGradient id="paint0_linear_37_1667" x1="0.150724" y1="30.5217" x2="53.6161" y2="30.5217" gradientUnits="userSpaceOnUse">
            <stop stop-color="#FF00B8"/>
            <stop offset="1" stop-color="#00D1FF"/>
        </linearGradient>
    </defs>
</svg>
