<svg width="25" height="1271" viewBox="0 0 25 1271" fill="none" xmlns="http://www.w3.org/2000/svg">
    <path fill-rule="evenodd" clip-rule="evenodd" d="M16 1271L16 -1.31132e-07L19 0L18.9999 1271L16 1271Z" fill="url(#paint0_linear_307_2573)"/>
    <path fill-rule="evenodd" clip-rule="evenodd" d="M-1.46088e-05 1271L4.09484e-05 -1.31132e-07L3 0L2.99994 1271L-1.46088e-05 1271Z" fill="url(#paint1_linear_307_2573)"/>
    <circle cx="17.5" cy="209.5" r="6.5" fill="white" stroke="url(#paint2_linear_307_2573)" stroke-width="2"/>
    <circle cx="17.5" cy="583.5" r="6.5" fill="white" stroke="url(#paint3_linear_307_2573)" stroke-width="2"/>
    <circle cx="17.5" cy="754.5" r="6.5" fill="white" stroke="url(#paint4_linear_307_2573)" stroke-width="2"/>
    <circle cx="17.5" cy="926.5" r="6.5" fill="white" stroke="url(#paint5_linear_307_2573)" stroke-width="2"/>
    <circle cx="17.5" cy="1101.5" r="6.5" fill="white" stroke="url(#paint6_linear_307_2573)" stroke-width="2"/>
    <defs>
        <linearGradient id="paint0_linear_307_2573" x1="17.3695" y1="1238.58" x2="17.3696" y2="8.82897" gradientUnits="userSpaceOnUse">
            <stop stop-color="#FF00B8"/>
            <stop offset="1" stop-color="#00D1FF"/>
        </linearGradient>
        <linearGradient id="paint1_linear_307_2573" x1="1.36953" y1="1238.58" x2="1.36959" y2="8.82897" gradientUnits="userSpaceOnUse">
            <stop stop-color="#FF00B8"/>
            <stop offset="1" stop-color="#00D1FF"/>
        </linearGradient>
        <linearGradient id="paint2_linear_307_2573" x1="24.6174" y1="210.152" x2="10.1042" y2="210.152" gradientUnits="userSpaceOnUse">
            <stop stop-color="#FF00B8"/>
            <stop offset="1" stop-color="#00D1FF"/>
        </linearGradient>
        <linearGradient id="paint3_linear_307_2573" x1="24.6174" y1="584.152" x2="10.1042" y2="584.152" gradientUnits="userSpaceOnUse">
            <stop stop-color="#FF00B8"/>
            <stop offset="1" stop-color="#00D1FF"/>
        </linearGradient>
        <linearGradient id="paint4_linear_307_2573" x1="24.6174" y1="755.152" x2="10.1042" y2="755.152" gradientUnits="userSpaceOnUse">
            <stop stop-color="#FF00B8"/>
            <stop offset="1" stop-color="#00D1FF"/>
        </linearGradient>
        <linearGradient id="paint5_linear_307_2573" x1="24.6174" y1="927.152" x2="10.1042" y2="927.152" gradientUnits="userSpaceOnUse">
            <stop stop-color="#FF00B8"/>
            <stop offset="1" stop-color="#00D1FF"/>
        </linearGradient>
        <linearGradient id="paint6_linear_307_2573" x1="24.6174" y1="1102.15" x2="10.1042" y2="1102.15" gradientUnits="userSpaceOnUse">
            <stop stop-color="#FF00B8"/>
            <stop offset="1" stop-color="#00D1FF"/>
        </linearGradient>
    </defs>
</svg>
