<svg width="122" height="122" viewBox="0 0 122 122" fill="none" xmlns="http://www.w3.org/2000/svg">
<path d="M58.5971 0.219402C58.1972 -0.0647253 57.6622 -0.0728924 57.2506 0.194901C37.5649 13.0116 23.7751 29.9393 12.7778 46.3861C15.6553 43.9485 19.7006 42.1031 23.0153 40.3837C23.1643 40.298 23.1643 40.1137 23.0153 40.0285C22.162 39.5303 21.1436 39.3773 20.4972 39.3327C20.3181 39.3198 20.2682 39.0783 20.4265 38.9924C24.5662 36.7597 30.0368 36.0722 32.3427 35.9928V35.991C32.5179 35.9885 32.4815 35.8673 32.4511 35.805C32.4332 35.7752 32.4177 35.7465 32.4008 35.7178C31.5427 34.338 30.1908 33.3321 29.4366 32.8443C29.2891 32.7475 29.3526 32.5196 29.5265 32.5127C32.3774 32.4041 39.1909 30.9121 44.2149 31.8694C44.4057 31.9049 44.5179 31.7037 44.4354 31.5258C43.9388 30.4299 43.0755 29.458 42.5366 29.0758C42.4063 28.9858 42.4523 28.7783 42.6081 28.7498C51.1014 27.2738 60.8333 30.5304 60.8333 30.5304C61.8311 30.7715 63.3044 29.936 64.0546 28.885L67.4237 24.1618C67.5436 23.7749 68.0828 23.7766 68.2009 24.1652C69.8508 29.6977 72.8893 34.6995 77.0171 38.6805L94.9914 56.7078C95.5555 57.274 95.5704 58.1965 95.0213 58.7806L89.6325 64.5014C88.8347 65.3694 87.5826 65.6232 86.519 65.1367L77.0806 62.4596C76.7577 62.387 76.4346 62.3118 76.1121 62.237L66.1231 60.4382C63.875 60.0328 61.8234 58.8764 60.2946 57.1533L58.1129 54.6907C57.6889 54.2114 56.9628 54.1726 56.4897 54.6012L47.4103 62.8594C43.6515 66.2525 41.9102 67.7374 38.3784 70.2514L31.9855 74.0844C38.3487 71.6047 53.6874 67.3217 65.3794 69.2077C65.709 69.2588 65.9183 69.577 65.8463 69.9098C64.3825 76.7224 58.7627 88.2323 53.1039 96.4267C52.7249 96.9763 52.2306 97.4283 51.6508 97.747C49.1766 99.1066 42.0696 103.015 39.516 104.42C39.1642 104.613 38.7576 104.287 38.8592 103.893L41.0653 95.439C41.2731 94.6403 41.8484 93.9939 42.6078 93.6999L46.7842 92.0824C47.6087 91.7648 48.2834 91.1401 48.6656 90.3338C49.737 88.0689 50.7695 84.7583 51.4238 81.2774C51.5008 80.869 51.1677 80.4995 50.761 80.5489C40.3791 81.8074 22.8032 87.3902 14.8773 93.7196C9.24893 98.432 4.69654 102.609 0.267748 108.806C-0.27913 109.572 0.0467965 110.66 0.926797 110.97C41.9715 125.364 84.8633 124.635 120.206 106.491C120.696 106.241 121.012 105.722 121.01 105.166C120.882 64.2649 90.7116 23.1968 58.5971 0.219402Z" fill="url(#paint0_linear_1093_3)"/>
<defs>
<linearGradient id="paint0_linear_1093_3" x1="121" y1="-17" x2="-33" y2="121" gradientUnits="userSpaceOnUse">
<stop stop-color="#4201dc"/>
<stop offset="1" stop-color="#850ca7"/>
</linearGradient>
</defs>
</svg>
