<?xml version="1.0" encoding="iso-8859-1"?>
<!-- Generator: Adobe Illustrator 19.0.0, SVG Export Plug-In . SVG Version: 6.00 Build 0)  -->
<svg version="1.1" id="Layer_1" xmlns="http://www.w3.org/2000/svg" xmlns:xlink="http://www.w3.org/1999/xlink" x="0px" y="0px"
	 viewBox="0 0 499.312 499.312" style="enable-background:new 0 0 499.312 499.312;" xml:space="preserve">
<g>
	<g>
		<path fill="#FFFFFF" d="M409.656,0c-26.472,0-48,21.528-48,48c0,12.392,4.76,23.664,12.496,32.192L334.344,120h-16.936L284.68,80.72
			c8.024-8.584,12.976-20.072,12.976-32.72c0-26.472-21.528-48-48-48s-48,21.528-48,48c0,12.648,4.952,24.136,12.976,32.72
			L181.904,120h-16.936L125.16,80.192c7.736-8.528,12.496-19.8,12.496-32.192c0-26.472-21.528-48-48-48s-48,21.528-48,48
			c0,21.208,13.84,39.216,32.952,45.552L99.104,216h31.624c-6.672,3.912-13.008,8.624-18.728,14.344
			c-36.2,36.2-36.2,95.112,0,131.312l137.656,137.656l137.656-137.656c36.2-36.2,36.2-95.112,0-131.312
			c-5.72-5.72-12.056-10.432-18.728-14.344h31.624l24.496-122.448c19.112-6.336,32.952-24.344,32.952-45.552
			C457.656,21.528,436.128,0,409.656,0z M249.656,16c17.648,0,32,14.352,32,32s-14.352,32-32,32s-32-14.352-32-32
			S232.008,16,249.656,16z M57.656,48c0-17.648,14.352-32,32-32s32,14.352,32,32s-14.352,32-32,32S57.656,65.648,57.656,48z
			 M289.656,436.688l-40,40l-40-40V408c0-22.056,17.944-40,40-40c22.056,0,40,17.944,40,40V436.688z M217.656,320
			c0-17.648,14.352-32,32-32s32,14.352,32,32s-14.352,32-32,32S217.656,337.648,217.656,320z M376,241.656
			c14.512,14.512,22.504,33.824,22.504,54.344c0,20.52-7.992,39.832-22.504,54.344l-70.344,70.344V408
			c0-20.88-11.512-39.096-28.496-48.72c12.376-8.696,20.496-23.048,20.496-39.28c0-26.472-21.528-48-48-48s-48,21.528-48,48
			c0,16.232,8.12,30.584,20.496,39.28c-16.984,9.624-28.496,27.84-28.496,48.72v12.688l-70.344-70.344
			C108.8,335.832,100.808,316.52,100.808,296c0-20.52,7.992-39.832,22.504-54.344c14.512-14.512,33.824-22.504,54.344-22.504
			c20.52,0,39.832,7.992,54.344,22.504l17.656,17.656l17.656-17.656c14.512-14.512,33.824-22.504,54.344-22.504
			C342.176,219.152,361.488,227.144,376,241.656z M224.584,216h50.144c-6.672,3.912-13.008,8.624-18.728,14.344l-6.344,6.344
			l-6.344-6.344C237.592,224.624,231.256,219.912,224.584,216z M387.104,200h-17.448v-16h-16v16h-16v-16h-16v16h-16v-16h-16v16h-16
			v-16h-16v16h-16v-16h-16v16h-16v-16h-16v16h-16v-16h-16v16h-16v-16h-16v16h-17.448L91.392,95.912
			c7.624-0.272,14.816-2.28,21.136-5.72L158.344,136h31.064l37.944-45.536c6.672,3.52,14.256,5.536,22.304,5.536
			c8.048,0,15.632-2.016,22.304-5.536L309.904,136h31.064l45.808-45.808c6.32,3.44,13.512,5.448,21.136,5.72L387.104,200z
			 M409.656,80c-17.648,0-32-14.352-32-32s14.352-32,32-32s32,14.352,32,32S427.304,80,409.656,80z"/>
	</g>
</g>
<g>
</g>
<g>
</g>
<g>
</g>
<g>
</g>
<g>
</g>
<g>
</g>
<g>
</g>
<g>
</g>
<g>
</g>
<g>
</g>
<g>
</g>
<g>
</g>
<g>
</g>
<g>
</g>
<g>
</g>
</svg>
