<svg width="138" height="128" viewBox="0 0 138 128" fill="none" xmlns="http://www.w3.org/2000/svg">
    <circle cx="64" cy="64" r="62" fill="#132040" fill-opacity="0.9"/>
    <g filter="url(#filter0_d)">
        <circle cx="64" cy="64" r="52" fill="#356F9F"/>
    </g>
    <g filter="url(#filter1_d)">
        <circle cx="64" cy="64" r="42" fill="url(#paint0_linear)"/>
    </g>
    <g filter="url(#filter2_d)">
        <circle cx="64" cy="64" r="38" fill="#A2F9FF"/>
    </g>
    <circle cx="64" cy="64" r="34" fill="url(#paint1_linear)" fill-opacity="0.7"/>
    <g clip-path="url(#clip0)">
        <path d="M51.1376 66.4461L52.4869 56.3078L40.7832 48.1828L51.4767 51.8051L54.0022 47.9302L63.2238 42.208L83.5502 53.407L84.6037 70.4942L75.548 83.0787L68.3902 84.1755L72.0918 77.3998V70.8767L69.4003 65.7823L66.6656 63.9711L62.4589 68.3078V72.8971L59.1758 75.9711L55.0052 76.4762L53.158 77.5225L50.1274 76.5556L48.8647 72.0096L51.1376 68.8129V66.4461Z" fill="white"/>
        <path d="M69.8264 48.0961C67.5967 47.6343 65.1579 47.757 65.1579 47.757C65.1579 47.757 64.3569 51.4587 59.3926 52.4328C59.4287 52.4328 65.9516 54.6625 69.8264 48.0961Z" fill="#94A6C3"/>
        <path d="M71.8453 81.6863C74.5368 79.5793 76.5571 76.6785 77.4879 73.3953C77.5312 73.2726 77.9065 73.0561 78.159 72.8902C78.5775 72.6376 79.0032 72.4284 79.0826 72.0892C79.2486 71.1223 79.3351 70.1121 79.3351 69.1018C79.3351 68.7266 78.9527 68.3442 78.5775 67.969C78.2817 67.7164 77.9858 67.4205 77.9858 67.2113C77.5673 63.3797 75.7995 59.8006 72.9782 57.1956L72.6823 57.4915C75.4171 60.0603 77.1849 63.5528 77.5673 67.2546C77.6106 67.5937 77.9425 67.9257 78.2817 68.2648C78.5775 68.5174 78.9166 68.8998 78.9166 69.0658C78.9166 70.0327 78.8301 70.9996 78.6641 71.9665C78.6208 72.1325 78.2456 72.3057 77.9497 72.4717C77.5312 72.6809 77.1488 72.8902 77.0694 73.2293C76.0593 76.8084 73.743 79.9257 70.6692 81.9461C71.2176 80.7699 72.9421 76.9383 73.8657 74.9972L73.6997 68.7699L68.353 63.5961L65.3224 64.0146L61.996 69.4049C61.996 69.4049 63.5546 71.3821 61.361 73.6984C59.218 75.9714 57.5295 76.4765 57.5295 76.4765L55.971 75.6322C56.4328 75.0405 57.3636 74.1602 58.0779 73.5685C59.2974 72.5583 60.5168 72.4717 60.5168 71.3821C60.5673 69.1018 58.1212 69.7296 58.1212 69.7296L57.2337 70.5739L56.8585 73.6911L55.0113 76.0074L54.802 75.9641L51.7715 75.2931C51.7715 75.2931 53.6259 74.3261 53.9217 73.2293C54.2176 72.1758 53.3301 68.6833 53.2868 68.4741C53.3301 68.5174 54.1743 69.2317 54.5495 70.4079C55.2205 68.5534 56.1081 66.7855 56.3606 66.6196C56.6132 66.4536 60.0189 64.6424 60.0189 64.6424L58.8861 67.6298L59.7303 67.168L61.7507 62.2035C61.7507 62.2035 63.7278 61.2365 65.1997 61.2365C67.8479 61.1932 71.766 57.9533 69.9981 52.1445C70.5032 52.3538 79.2558 56.7338 80.7711 65.3207C81.9039 71.9233 78.159 78.1073 71.8453 81.6863Z" fill="#94A6C3"/>
        <path d="M61.8305 49.0196C62.7974 47.8795 62.4222 46.1982 62.4222 46.1982L59.6009 50.369C59.5576 50.369 60.6039 50.4123 61.8305 49.0196Z" fill="black"/>
        <path d="M52.3554 71.7936L52.6945 70.1123C52.6945 70.1123 51.3019 72.5513 51.1793 72.8904C51.0494 73.2729 51.2658 73.9439 51.807 73.9006C52.3554 73.8573 53.0264 73.0564 53.0264 72.4719C53.0264 71.7142 52.3554 71.7936 52.3554 71.7936Z" fill="black"/>
        <path d="M77.3575 45.022C77.3575 45.022 79.4645 45.1086 81.6508 45.3611C76.7226 41.4862 72.0541 40.3533 68.2659 40.3533C63.049 40.3533 59.5133 42.5037 59.2968 42.6263L60.942 40.0142C60.942 40.0142 54.3758 39.3792 52.0596 46.3281C51.4679 44.856 50.9267 42.7057 50.9267 42.7057C50.9267 42.7057 47.5137 45.7003 49.1156 50.6648C45.1975 49.2361 39.6054 47.2517 39.3889 47.2156C39.0931 47.1723 39.0065 47.3022 39.0065 47.3022C39.0065 47.3022 38.9199 47.4249 39.1725 47.6414C39.6415 48.0094 48.4806 54.5397 50.4216 55.8025C50.0031 57.3178 50.0031 58.0322 50.4216 58.7466C51.0133 59.7135 51.0494 60.2186 50.97 60.933C50.8834 61.6474 50.1258 67.8386 49.9598 68.5963C49.7939 69.3539 48.026 72.0454 48.1054 72.8464C48.192 73.6474 49.2816 77.0533 50.2557 77.4357C50.97 77.6883 52.7378 78.2367 53.914 78.2367C54.3325 78.2367 54.7149 78.1501 54.8809 77.9841C55.5952 77.3563 55.8045 77.2264 56.3096 77.2264C56.3529 77.2264 56.3962 77.2264 56.4322 77.2264C56.6415 77.2264 56.894 77.2697 57.1899 77.2697C57.8609 77.2697 58.7484 77.1399 59.3762 76.5554C60.2998 75.6317 61.9017 74.369 62.4068 73.7773C63.0417 72.9763 63.3737 71.8867 63.2077 70.7899C63.0778 69.7797 63.6262 68.8921 64.2612 68.0118C65.0621 66.9583 66.5341 65.0677 66.5341 65.0677C69.442 67.2469 71.2531 70.5734 71.2531 74.2752C71.2531 80.8416 65.5311 86.1453 58.4598 86.1453C57.3631 86.1453 56.3168 86.0226 55.2633 85.77C58.5031 86.9029 61.2378 87.2854 63.4747 87.2854C68.2298 87.2854 70.7552 85.5608 70.7552 85.5608C70.7552 85.5608 69.8749 86.7009 68.439 87.9997C68.4823 87.9997 68.4823 87.9997 68.4823 87.9997C76.3546 86.9029 80.1861 80.4231 80.1861 80.4231C80.1861 80.4231 79.8902 82.5301 79.515 83.9589C89.9849 76.0863 88.217 66.2367 88.1737 65.9047C88.2603 66.0274 89.3138 67.2902 89.855 67.9685C91.5434 50.6215 77.3575 45.022 77.3575 45.022ZM61.2378 72.7237C61.0719 72.933 60.3575 73.568 59.8524 74.0298C59.3473 74.4916 58.799 74.9534 58.3805 75.3792C58.2145 75.5451 57.8754 75.6317 57.3703 75.6317C57.2043 75.6317 57.0311 75.6317 56.9085 75.6317C56.8219 75.6317 56.7425 75.6317 56.6559 75.6317C56.5693 75.6317 56.526 75.6317 56.49 75.6317C56.3601 75.6317 56.2374 75.6317 56.1075 75.6317C56.7425 74.7875 58.5897 72.8536 59.2247 72.4351C59.9823 71.93 60.3647 71.4249 59.8957 70.5445C59.4339 69.657 58.2145 69.8735 58.2145 69.8735C58.2145 69.8735 58.9288 69.5776 59.5638 69.5776C58.7629 69.3684 57.7527 69.5776 57.2909 70.0394C56.7858 70.5012 56.8724 72.1465 56.6631 73.1928C56.4539 74.2896 55.7395 74.838 54.6428 75.8482C54.0511 76.3966 53.6326 76.5626 53.2934 76.5626C52.5791 76.4399 51.7349 76.2234 51.1432 76.0142C50.7247 75.4658 50.0897 73.6546 49.9237 72.8969C50.0464 72.4784 50.5515 71.5908 50.8041 71.0857C51.3091 70.1188 51.605 69.5704 51.6916 69.0653C51.8575 68.3509 52.4059 63.9276 52.6152 62.0803C53.1636 62.7947 53.9212 63.9781 53.748 64.7358C54.9675 63.0112 54.0872 61.3227 53.6614 60.6516C53.2862 59.9805 52.7811 58.6311 53.1996 57.2024C53.6181 55.7737 55.1334 51.8121 55.1334 51.8121C55.1334 51.8121 55.6385 52.6997 56.3529 52.5265C57.0672 52.3605 62.8325 43.6871 62.8325 43.6871C62.8325 43.6871 64.3911 47.093 62.7459 49.5824C61.0647 52.0647 59.4195 52.5265 59.4195 52.5265C59.4195 52.5265 61.7357 52.945 63.8788 51.3864C64.7591 53.4501 65.6033 55.5933 65.6466 55.8891C65.5167 56.185 63.8355 60.2258 63.6695 60.4784C63.5829 60.565 62.9984 60.731 62.5727 60.8175C61.8584 61.0268 61.4399 61.1567 61.2667 61.2794C60.9709 61.5319 59.6215 65.2337 58.9938 67.0448C58.2361 67.2541 57.4785 67.6798 56.9301 68.5169C57.226 68.3076 58.1496 68.1777 58.8278 68.0984C59.4195 68.0551 61.2234 69.022 61.6924 70.8332C61.6924 70.8765 61.6924 70.8765 61.6924 70.9198C61.7862 71.5836 61.577 72.2186 61.2378 72.7237ZM57.2837 73.2289C57.6661 72.6804 57.6228 71.7568 57.6661 71.461C57.7094 71.1651 57.7888 70.6167 58.1279 70.5373C58.467 70.4507 59.268 70.5806 59.268 71.1651C59.268 71.7135 58.6763 71.8362 58.2578 72.2186C57.9547 72.5073 57.363 73.1423 57.2837 73.2289ZM74.0744 65.1832C74.4929 63.04 74.5362 61.1856 74.4136 59.6702C76.0515 61.8566 77.0617 64.5121 77.3575 67.2469C77.4008 67.586 77.7327 67.918 78.0719 68.2571C78.3677 68.5097 78.7069 68.8488 78.7069 69.0581C78.7069 70.025 78.6203 70.9919 78.4543 71.9661C78.411 72.0887 78.0358 72.3052 77.74 72.4712C77.3215 72.6804 76.939 72.8897 76.8597 73.2289C75.9361 76.4688 73.9518 79.3335 71.3036 81.3539C75.2145 77.2697 77.105 70.5301 74.0744 65.1832ZM71.4263 81.7291C74.161 79.6221 76.268 76.678 77.1916 73.3515C77.2349 73.2289 77.6101 73.0124 77.8626 72.8464C78.2811 72.6371 78.7069 72.3846 78.7862 72.0454C78.9522 71.0785 79.0388 70.0683 79.0388 69.0581C79.0388 68.6829 78.6563 68.3004 78.2811 67.9252C78.0719 67.6726 77.7327 67.3768 77.7327 67.1675C77.3936 64.0936 76.1742 61.1928 74.2837 58.7899C73.4394 53.7388 70.077 52.1801 69.9904 52.1369C70.077 52.2667 72.2633 55.4201 70.748 59.1218C69.1895 62.8669 65.192 62.2824 64.8529 62.3184C64.5137 62.3184 63.2149 63.9997 61.5698 67.117C61.3605 67.0304 60.473 66.8212 59.4628 66.9943C60.2204 64.8873 61.3605 61.8999 61.5698 61.6474C61.6563 61.5608 62.2841 61.3948 62.7098 61.2721C63.5108 61.0629 63.886 60.933 64.0159 60.767C64.1024 60.6372 64.5209 59.6702 64.9395 58.66C65.3219 58.66 66.2888 58.5734 66.3681 58.5301C66.4547 58.4435 67.2557 56.387 67.2557 56.1344C67.2557 55.9252 65.6105 51.841 64.9827 50.2824C65.2786 49.9432 65.5744 49.5247 65.863 49.0629C74.4929 49.9937 81.2323 57.3179 81.2323 66.1934C81.2323 73.0124 77.2349 78.951 71.4263 81.7291Z" fill="black"/>
        <path d="M60.2283 58.9995C61.0292 58.0759 60.6107 56.3513 59.1315 56.0555C59.5139 55.1751 60.0551 53.4072 60.0551 53.4072C60.0551 53.4072 55.7618 60.1396 55.3866 60.2695C55.0042 60.3994 54.629 58.9202 54.629 58.9202C53.828 61.9941 55.9783 62.4126 56.2308 61.4457C57.407 61.1427 59.4273 59.8799 60.2283 58.9995Z" fill="black"/>
        <path d="M83.6277 77.9842C82.9928 78.8284 82.2784 79.7088 81.4414 80.553C86.8675 70.1117 81.694 60.5578 81.4847 60.1826C81.8671 60.5651 82.2423 60.9836 82.5815 61.3588C86.7449 65.9842 87.25 72.9331 83.6277 77.9842Z" fill="white"/>
        <path d="M87.7787 64.531C85.881 59.4365 83.1896 55.0998 77.2583 51.1888C71.5363 47.4005 65.3886 47.6963 65.0495 47.7396C65.0062 47.7396 64.9629 47.7396 64.9629 47.7396C65.1721 47.653 65.3814 47.6097 65.5907 47.5736C66.8967 47.1551 68.5779 46.816 70.2664 46.6067C74.7328 45.9645 79.2354 47.4798 82.3092 50.727C82.3525 50.7703 82.3525 50.7703 82.3958 50.8136C85.8882 54.5153 87.6993 59.1407 87.7787 64.531Z" fill="white"/>
        <path d="M76.8102 43.7164C70.5398 42.5402 66.4991 43.1247 63.5912 44.2215C63.5046 43.8823 63.2088 43.2112 62.9562 42.6628C62.0831 43.7164 61.1523 44.9791 60.5678 45.7801C58.966 46.8769 58.2949 47.9304 58.2949 47.9304C59.2185 44.7699 61.9172 42.4175 65.2003 41.8258C66.1239 41.6598 67.1341 41.5732 68.2308 41.5732C71.1315 41.6165 74.0322 42.3309 76.8102 43.7164Z" fill="white"/>
        <path d="M53.6182 51.7976C48.6972 51.6316 50.3351 45.9022 50.4217 45.5703C50.4217 45.6136 50.7536 50.073 53.6182 51.7976Z" fill="white"/>
        <path d="M58.4614 41.4863C54.6732 43.7593 55.4309 49.1857 55.4309 49.1857C51.8086 43.68 58.1656 41.6162 58.4614 41.4863Z" fill="white"/>
        <path d="M52.2331 53.3129C52.4857 53.5222 52.7382 53.9046 52.4424 54.453C52.2764 54.7489 52.0239 54.7056 51.6415 54.5396C51.1364 54.2871 48.1058 52.5192 45.3711 50.708C48.4882 51.8048 51.6415 52.981 52.1466 53.2336C52.1466 53.2336 52.1899 53.2769 52.2331 53.3129Z" fill="white"/>
    </g>
    <g clip-path="url(#clip1)">
        <path d="M51.1376 66.4461L52.4869 56.3078L40.7832 48.1828L51.4767 51.8051L54.0022 47.9302L63.2238 42.208L83.5502 53.407L84.6037 70.4942L75.548 83.0787L68.3902 84.1755L72.0918 77.3998V70.8767L69.4003 65.7823L66.6656 63.9711L62.4589 68.3078V72.8971L59.1758 75.9711L55.0052 76.4762L53.158 77.5225L50.1274 76.5556L48.8647 72.0096L51.1376 68.8129V66.4461Z" fill="white"/>
        <path d="M69.8264 48.0961C67.5967 47.6343 65.1579 47.757 65.1579 47.757C65.1579 47.757 64.3569 51.4587 59.3926 52.4328C59.4287 52.4328 65.9516 54.6625 69.8264 48.0961Z" fill="#AFB8C6"/>
        <path d="M71.8453 81.6863C74.5368 79.5793 76.5571 76.6785 77.4879 73.3953C77.5312 73.2726 77.9065 73.0561 78.159 72.8902C78.5775 72.6376 79.0032 72.4284 79.0826 72.0892C79.2486 71.1223 79.3351 70.1121 79.3351 69.1018C79.3351 68.7266 78.9527 68.3442 78.5775 67.969C78.2817 67.7164 77.9858 67.4205 77.9858 67.2113C77.5673 63.3797 75.7995 59.8006 72.9782 57.1956L72.6823 57.4915C75.4171 60.0603 77.1849 63.5528 77.5673 67.2546C77.6106 67.5937 77.9425 67.9257 78.2817 68.2648C78.5775 68.5174 78.9166 68.8998 78.9166 69.0658C78.9166 70.0327 78.8301 70.9996 78.6641 71.9665C78.6208 72.1325 78.2456 72.3057 77.9497 72.4717C77.5312 72.6809 77.1488 72.8902 77.0694 73.2293C76.0593 76.8084 73.743 79.9257 70.6692 81.9461C71.2176 80.7699 72.9421 76.9383 73.8657 74.9972L73.6997 68.7699L68.353 63.5961L65.3224 64.0146L61.996 69.4049C61.996 69.4049 63.5546 71.3821 61.361 73.6984C59.218 75.9714 57.5295 76.4765 57.5295 76.4765L55.971 75.6322C56.4328 75.0405 57.3636 74.1602 58.0779 73.5685C59.2974 72.5583 60.5168 72.4717 60.5168 71.3821C60.5673 69.1018 58.1212 69.7296 58.1212 69.7296L57.2337 70.5739L56.8585 73.6911L55.0113 76.0074L54.802 75.9641L51.7715 75.2931C51.7715 75.2931 53.6259 74.3261 53.9217 73.2293C54.2176 72.1758 53.3301 68.6833 53.2868 68.4741C53.3301 68.5174 54.1743 69.2317 54.5495 70.4079C55.2205 68.5534 56.1081 66.7855 56.3606 66.6196C56.6132 66.4536 60.0189 64.6424 60.0189 64.6424L58.8861 67.6298L59.7303 67.168L61.7507 62.2035C61.7507 62.2035 63.7278 61.2365 65.1997 61.2365C67.8479 61.1932 71.766 57.9533 69.9981 52.1445C70.5032 52.3538 79.2558 56.7338 80.7711 65.3207C81.9039 71.9233 78.159 78.1073 71.8453 81.6863Z" fill="#AFB8C6"/>
        <path d="M61.8305 49.0196C62.7974 47.8795 62.4222 46.1982 62.4222 46.1982L59.6009 50.369C59.5576 50.369 60.6039 50.4123 61.8305 49.0196Z" fill="#E4E4E4"/>
        <path d="M52.3554 71.7936L52.6945 70.1123C52.6945 70.1123 51.3019 72.5513 51.1793 72.8904C51.0494 73.2729 51.2658 73.9439 51.807 73.9006C52.3554 73.8573 53.0264 73.0564 53.0264 72.4719C53.0264 71.7142 52.3554 71.7936 52.3554 71.7936Z" fill="#E4E4E4"/>
        <path d="M77.3575 45.022C77.3575 45.022 79.4645 45.1086 81.6508 45.3611C76.7226 41.4862 72.0541 40.3533 68.2659 40.3533C63.049 40.3533 59.5133 42.5037 59.2968 42.6263L60.942 40.0142C60.942 40.0142 54.3758 39.3792 52.0596 46.3281C51.4679 44.856 50.9267 42.7057 50.9267 42.7057C50.9267 42.7057 47.5137 45.7003 49.1156 50.6648C45.1975 49.2361 39.6054 47.2517 39.3889 47.2156C39.0931 47.1723 39.0065 47.3022 39.0065 47.3022C39.0065 47.3022 38.9199 47.4249 39.1725 47.6414C39.6415 48.0094 48.4806 54.5397 50.4216 55.8025C50.0031 57.3178 50.0031 58.0322 50.4216 58.7466C51.0133 59.7135 51.0494 60.2186 50.97 60.933C50.8834 61.6474 50.1258 67.8386 49.9598 68.5963C49.7939 69.3539 48.026 72.0454 48.1054 72.8464C48.192 73.6474 49.2816 77.0533 50.2557 77.4357C50.97 77.6883 52.7378 78.2367 53.914 78.2367C54.3325 78.2367 54.7149 78.1501 54.8809 77.9841C55.5952 77.3563 55.8045 77.2264 56.3096 77.2264C56.3529 77.2264 56.3962 77.2264 56.4322 77.2264C56.6415 77.2264 56.894 77.2697 57.1899 77.2697C57.8609 77.2697 58.7484 77.1399 59.3762 76.5554C60.2998 75.6317 61.9017 74.369 62.4068 73.7773C63.0417 72.9763 63.3737 71.8867 63.2077 70.7899C63.0778 69.7797 63.6262 68.8921 64.2612 68.0118C65.0621 66.9583 66.5341 65.0677 66.5341 65.0677C69.442 67.2469 71.2531 70.5734 71.2531 74.2752C71.2531 80.8416 65.5311 86.1453 58.4598 86.1453C57.3631 86.1453 56.3168 86.0226 55.2633 85.77C58.5031 86.9029 61.2378 87.2854 63.4747 87.2854C68.2298 87.2854 70.7552 85.5608 70.7552 85.5608C70.7552 85.5608 69.8749 86.7009 68.439 87.9997C68.4823 87.9997 68.4823 87.9997 68.4823 87.9997C76.3546 86.9029 80.1861 80.4231 80.1861 80.4231C80.1861 80.4231 79.8902 82.5301 79.515 83.9589C89.9849 76.0863 88.217 66.2367 88.1737 65.9047C88.2603 66.0274 89.3138 67.2902 89.855 67.9685C91.5434 50.6215 77.3575 45.022 77.3575 45.022ZM61.2378 72.7237C61.0719 72.933 60.3575 73.568 59.8524 74.0298C59.3473 74.4916 58.799 74.9534 58.3805 75.3792C58.2145 75.5451 57.8754 75.6317 57.3703 75.6317C57.2043 75.6317 57.0311 75.6317 56.9085 75.6317C56.8219 75.6317 56.7425 75.6317 56.6559 75.6317C56.5693 75.6317 56.526 75.6317 56.49 75.6317C56.3601 75.6317 56.2374 75.6317 56.1075 75.6317C56.7425 74.7875 58.5897 72.8536 59.2247 72.4351C59.9823 71.93 60.3647 71.4249 59.8957 70.5445C59.4339 69.657 58.2145 69.8735 58.2145 69.8735C58.2145 69.8735 58.9288 69.5776 59.5638 69.5776C58.7629 69.3684 57.7527 69.5776 57.2909 70.0394C56.7858 70.5012 56.8724 72.1465 56.6631 73.1928C56.4539 74.2896 55.7395 74.838 54.6428 75.8482C54.0511 76.3966 53.6326 76.5626 53.2934 76.5626C52.5791 76.4399 51.7349 76.2234 51.1432 76.0142C50.7247 75.4658 50.0897 73.6546 49.9237 72.8969C50.0464 72.4784 50.5515 71.5908 50.8041 71.0857C51.3091 70.1188 51.605 69.5704 51.6916 69.0653C51.8575 68.3509 52.4059 63.9276 52.6152 62.0803C53.1636 62.7947 53.9212 63.9781 53.748 64.7358C54.9675 63.0112 54.0872 61.3227 53.6614 60.6516C53.2862 59.9805 52.7811 58.6311 53.1996 57.2024C53.6181 55.7737 55.1334 51.8121 55.1334 51.8121C55.1334 51.8121 55.6385 52.6997 56.3529 52.5265C57.0672 52.3605 62.8325 43.6871 62.8325 43.6871C62.8325 43.6871 64.3911 47.093 62.7459 49.5824C61.0647 52.0647 59.4195 52.5265 59.4195 52.5265C59.4195 52.5265 61.7357 52.945 63.8788 51.3864C64.7591 53.4501 65.6033 55.5933 65.6466 55.8891C65.5167 56.185 63.8355 60.2258 63.6695 60.4784C63.5829 60.565 62.9984 60.731 62.5727 60.8175C61.8584 61.0268 61.4399 61.1567 61.2667 61.2794C60.9709 61.5319 59.6215 65.2337 58.9938 67.0448C58.2361 67.2541 57.4785 67.6798 56.9301 68.5169C57.226 68.3076 58.1496 68.1777 58.8278 68.0984C59.4195 68.0551 61.2234 69.022 61.6924 70.8332C61.6924 70.8765 61.6924 70.8765 61.6924 70.9198C61.7862 71.5836 61.577 72.2186 61.2378 72.7237ZM57.2837 73.2289C57.6661 72.6804 57.6228 71.7568 57.6661 71.461C57.7094 71.1651 57.7888 70.6167 58.1279 70.5373C58.467 70.4507 59.268 70.5806 59.268 71.1651C59.268 71.7135 58.6763 71.8362 58.2578 72.2186C57.9547 72.5073 57.363 73.1423 57.2837 73.2289ZM74.0744 65.1832C74.4929 63.04 74.5362 61.1856 74.4136 59.6702C76.0515 61.8566 77.0617 64.5121 77.3575 67.2469C77.4008 67.586 77.7327 67.918 78.0719 68.2571C78.3677 68.5097 78.7069 68.8488 78.7069 69.0581C78.7069 70.025 78.6203 70.9919 78.4543 71.9661C78.411 72.0887 78.0358 72.3052 77.74 72.4712C77.3215 72.6804 76.939 72.8897 76.8597 73.2289C75.9361 76.4688 73.9518 79.3335 71.3036 81.3539C75.2145 77.2697 77.105 70.5301 74.0744 65.1832ZM71.4263 81.7291C74.161 79.6221 76.268 76.678 77.1916 73.3515C77.2349 73.2289 77.6101 73.0124 77.8626 72.8464C78.2811 72.6371 78.7069 72.3846 78.7862 72.0454C78.9522 71.0785 79.0388 70.0683 79.0388 69.0581C79.0388 68.6829 78.6563 68.3004 78.2811 67.9252C78.0719 67.6726 77.7327 67.3768 77.7327 67.1675C77.3936 64.0936 76.1742 61.1928 74.2837 58.7899C73.4394 53.7388 70.077 52.1801 69.9904 52.1369C70.077 52.2667 72.2633 55.4201 70.748 59.1218C69.1895 62.8669 65.192 62.2824 64.8529 62.3184C64.5137 62.3184 63.2149 63.9997 61.5698 67.117C61.3605 67.0304 60.473 66.8212 59.4628 66.9943C60.2204 64.8873 61.3605 61.8999 61.5698 61.6474C61.6563 61.5608 62.2841 61.3948 62.7098 61.2721C63.5108 61.0629 63.886 60.933 64.0159 60.767C64.1024 60.6372 64.5209 59.6702 64.9395 58.66C65.3219 58.66 66.2888 58.5734 66.3681 58.5301C66.4547 58.4435 67.2557 56.387 67.2557 56.1344C67.2557 55.9252 65.6105 51.841 64.9827 50.2824C65.2786 49.9432 65.5744 49.5247 65.863 49.0629C74.4929 49.9937 81.2323 57.3179 81.2323 66.1934C81.2323 73.0124 77.2349 78.951 71.4263 81.7291Z" fill="#E4E4E4"/>
        <path d="M60.2283 58.9995C61.0292 58.0759 60.6107 56.3513 59.1315 56.0555C59.5139 55.1751 60.0551 53.4072 60.0551 53.4072C60.0551 53.4072 55.7618 60.1396 55.3866 60.2695C55.0042 60.3994 54.629 58.9202 54.629 58.9202C53.828 61.9941 55.9783 62.4126 56.2308 61.4457C57.407 61.1427 59.4273 59.8799 60.2283 58.9995Z" fill="#E4E4E4"/>
        <path d="M83.6277 77.9842C82.9928 78.8284 82.2784 79.7088 81.4414 80.553C86.8675 70.1117 81.694 60.5578 81.4847 60.1826C81.8671 60.5651 82.2423 60.9836 82.5815 61.3588C86.7449 65.9842 87.25 72.9331 83.6277 77.9842Z" fill="white"/>
        <path d="M87.7787 64.531C85.881 59.4365 83.1896 55.0998 77.2583 51.1888C71.5363 47.4005 65.3886 47.6963 65.0495 47.7396C65.0062 47.7396 64.9629 47.7396 64.9629 47.7396C65.1721 47.653 65.3814 47.6097 65.5907 47.5736C66.8967 47.1551 68.5779 46.816 70.2664 46.6067C74.7328 45.9645 79.2354 47.4798 82.3092 50.727C82.3525 50.7703 82.3525 50.7703 82.3958 50.8136C85.8882 54.5153 87.6993 59.1407 87.7787 64.531Z" fill="white"/>
        <path d="M76.8102 43.7164C70.5398 42.5402 66.4991 43.1247 63.5912 44.2215C63.5046 43.8823 63.2088 43.2112 62.9562 42.6628C62.0831 43.7164 61.1523 44.9791 60.5678 45.7801C58.966 46.8769 58.2949 47.9304 58.2949 47.9304C59.2185 44.7699 61.9172 42.4175 65.2003 41.8258C66.1239 41.6598 67.1341 41.5732 68.2308 41.5732C71.1315 41.6165 74.0322 42.3309 76.8102 43.7164Z" fill="white"/>
        <path d="M53.6182 51.7976C48.6972 51.6316 50.3351 45.9022 50.4217 45.5703C50.4217 45.6136 50.7536 50.073 53.6182 51.7976Z" fill="white"/>
        <path d="M58.4614 41.4863C54.6732 43.7593 55.4309 49.1857 55.4309 49.1857C51.8086 43.68 58.1656 41.6162 58.4614 41.4863Z" fill="white"/>
        <path d="M52.2331 53.3129C52.4857 53.5222 52.7382 53.9046 52.4424 54.453C52.2764 54.7489 52.0239 54.7056 51.6415 54.5396C51.1364 54.2871 48.1058 52.5192 45.3711 50.708C48.4882 51.8048 51.6415 52.981 52.1466 53.2336C52.1466 53.2336 52.1899 53.2769 52.2331 53.3129Z" fill="white"/>
    </g>
    <defs>
        <filter id="filter0_d" x="0" y="0" width="128" height="128" filterUnits="userSpaceOnUse" color-interpolation-filters="sRGB">
            <feFlood flood-opacity="0" result="BackgroundImageFix"/>
            <feColorMatrix in="SourceAlpha" type="matrix" values="0 0 0 0 0 0 0 0 0 0 0 0 0 0 0 0 0 0 127 0" result="hardAlpha"/>
            <feMorphology radius="2" operator="dilate" in="SourceAlpha" result="effect1_dropShadow"/>
            <feOffset/>
            <feGaussianBlur stdDeviation="5"/>
            <feColorMatrix type="matrix" values="0 0 0 0 0.258194 0 0 0 0 0.312217 0 0 0 0 0.595833 0 0 0 1 0"/>
            <feBlend mode="normal" in2="BackgroundImageFix" result="effect1_dropShadow"/>
            <feBlend mode="normal" in="SourceGraphic" in2="effect1_dropShadow" result="shape"/>
        </filter>
        <filter id="filter1_d" x="17" y="17" width="94" height="94" filterUnits="userSpaceOnUse" color-interpolation-filters="sRGB">
            <feFlood flood-opacity="0" result="BackgroundImageFix"/>
            <feColorMatrix in="SourceAlpha" type="matrix" values="0 0 0 0 0 0 0 0 0 0 0 0 0 0 0 0 0 0 127 0" result="hardAlpha"/>
            <feMorphology radius="1" operator="dilate" in="SourceAlpha" result="effect1_dropShadow"/>
            <feOffset/>
            <feGaussianBlur stdDeviation="2"/>
            <feColorMatrix type="matrix" values="0 0 0 0 0.163281 0 0 0 0 0.550432 0 0 0 0 0.870833 0 0 0 1 0"/>
            <feBlend mode="normal" in2="BackgroundImageFix" result="effect1_dropShadow"/>
            <feBlend mode="normal" in="SourceGraphic" in2="effect1_dropShadow" result="shape"/>
        </filter>
        <filter id="filter2_d" x="21" y="21" width="86" height="86" filterUnits="userSpaceOnUse" color-interpolation-filters="sRGB">
            <feFlood flood-opacity="0" result="BackgroundImageFix"/>
            <feColorMatrix in="SourceAlpha" type="matrix" values="0 0 0 0 0 0 0 0 0 0 0 0 0 0 0 0 0 0 127 0" result="hardAlpha"/>
            <feMorphology radius="1" operator="dilate" in="SourceAlpha" result="effect1_dropShadow"/>
            <feOffset/>
            <feGaussianBlur stdDeviation="2"/>
            <feColorMatrix type="matrix" values="0 0 0 0 0 0 0 0 0 0 0 0 0 0 0 0 0 0 0.25 0"/>
            <feBlend mode="normal" in2="BackgroundImageFix" result="effect1_dropShadow"/>
            <feBlend mode="normal" in="SourceGraphic" in2="effect1_dropShadow" result="shape"/>
        </filter>
        <linearGradient id="paint0_linear" x1="97.5" y1="97.5" x2="32.5" y2="30" gradientUnits="userSpaceOnUse">
            <stop stop-color="#3EA4FC"/>
            <stop offset="1" stop-color="#72F6FF"/>
        </linearGradient>
        <linearGradient id="paint1_linear" x1="39.5" y1="43" x2="87.5" y2="89.5" gradientUnits="userSpaceOnUse">
            <stop stop-color="#0063D5"/>
            <stop offset="1" stop-color="#979AAD"/>
        </linearGradient>
        <clipPath id="clip0">
            <rect width="51" height="48" fill="white" transform="translate(39 40)"/>
        </clipPath>
        <clipPath id="clip1">
            <rect width="51" height="48" fill="white" transform="translate(39 40)"/>
        </clipPath>
    </defs>
</svg>
