<svg width="128" height="128" viewBox="0 0 128 128" fill="none" xmlns="http://www.w3.org/2000/svg">
    <g filter="url(#filter0_d)">
        <circle cx="64" cy="64" r="60" fill="#0C2329" fill-opacity="0.9"/>
    </g>
    <g filter="url(#filter1_d)">
        <circle cx="64" cy="64" r="52" fill="#3096B1"/>
    </g>
    <g filter="url(#filter2_d)">
        <circle cx="64" cy="64" r="42" fill="url(#paint0_linear)"/>
    </g>
    <g filter="url(#filter3_d)">
        <circle cx="64" cy="64" r="38" fill="#A5F0F8"/>
    </g>
    <circle cx="64" cy="64" r="34" fill="url(#paint1_linear)" fill-opacity="0.7"/>
    <path d="M84.1669 79.1434L68.7488 41.8674C67.8792 39.9401 66.5865 39 64.8825 39H63.5194C61.8154 39 60.5227 39.9401 59.6531 41.8674L52.9429 58.1081H47.8663C46.3503 58.1198 45.1164 59.342 45.1046 60.8697V60.9049C45.1164 62.4209 46.3503 63.6548 47.8663 63.6665H50.5926L44.188 79.1434C44.0705 79.4842 44 79.8367 44 80.201C44 81.0706 44.2703 81.7522 44.7521 82.281C45.2339 82.8099 45.9273 83.0684 46.7969 83.0684C47.3727 83.0566 47.925 82.8804 48.3833 82.5396C48.8769 82.1988 49.2177 81.7052 49.488 81.1411L56.5389 63.6548H61.4276C62.9435 63.643 64.1774 62.4209 64.1892 60.8932V60.8227C64.1774 59.3067 62.9435 58.0728 61.4276 58.0611H58.8187L64.201 44.6525L78.8669 81.1294C79.1372 81.6935 79.478 82.187 79.9716 82.5278C80.4299 82.8686 80.9939 83.0449 81.558 83.0566C82.4276 83.0566 83.1092 82.7981 83.6028 82.2693C84.0964 81.7405 84.3549 81.0589 84.3549 80.1893C84.3667 79.8367 84.3079 79.4724 84.1669 79.1434Z" fill="white"/>
    <defs>
        <filter id="filter0_d" x="0" y="0" width="128" height="128" filterUnits="userSpaceOnUse" color-interpolation-filters="sRGB">
            <feFlood flood-opacity="0" result="BackgroundImageFix"/>
            <feColorMatrix in="SourceAlpha" type="matrix" values="0 0 0 0 0 0 0 0 0 0 0 0 0 0 0 0 0 0 127 0" result="hardAlpha"/>
            <feOffset/>
            <feGaussianBlur stdDeviation="2"/>
            <feColorMatrix type="matrix" values="0 0 0 0 0 0 0 0 0 0 0 0 0 0 0 0 0 0 0.25 0"/>
            <feBlend mode="normal" in2="BackgroundImageFix" result="effect1_dropShadow"/>
            <feBlend mode="normal" in="SourceGraphic" in2="effect1_dropShadow" result="shape"/>
        </filter>
        <filter id="filter1_d" x="0" y="0" width="128" height="128" filterUnits="userSpaceOnUse" color-interpolation-filters="sRGB">
            <feFlood flood-opacity="0" result="BackgroundImageFix"/>
            <feColorMatrix in="SourceAlpha" type="matrix" values="0 0 0 0 0 0 0 0 0 0 0 0 0 0 0 0 0 0 127 0" result="hardAlpha"/>
            <feMorphology radius="2" operator="dilate" in="SourceAlpha" result="effect1_dropShadow"/>
            <feOffset/>
            <feGaussianBlur stdDeviation="5"/>
            <feColorMatrix type="matrix" values="0 0 0 0 0.188235 0 0 0 0 0.588235 0 0 0 0 0.694118 0 0 0 1 0"/>
            <feBlend mode="normal" in2="BackgroundImageFix" result="effect1_dropShadow"/>
            <feBlend mode="normal" in="SourceGraphic" in2="effect1_dropShadow" result="shape"/>
        </filter>
        <filter id="filter2_d" x="17" y="17" width="94" height="94" filterUnits="userSpaceOnUse" color-interpolation-filters="sRGB">
            <feFlood flood-opacity="0" result="BackgroundImageFix"/>
            <feColorMatrix in="SourceAlpha" type="matrix" values="0 0 0 0 0 0 0 0 0 0 0 0 0 0 0 0 0 0 127 0" result="hardAlpha"/>
            <feMorphology radius="1" operator="dilate" in="SourceAlpha" result="effect1_dropShadow"/>
            <feOffset/>
            <feGaussianBlur stdDeviation="2"/>
            <feColorMatrix type="matrix" values="0 0 0 0 0.275764 0 0 0 0 0.768821 0 0 0 0 0.870833 0 0 0 1 0"/>
            <feBlend mode="normal" in2="BackgroundImageFix" result="effect1_dropShadow"/>
            <feBlend mode="normal" in="SourceGraphic" in2="effect1_dropShadow" result="shape"/>
        </filter>
        <filter id="filter3_d" x="22" y="23" width="84" height="84" filterUnits="userSpaceOnUse" color-interpolation-filters="sRGB">
            <feFlood flood-opacity="0" result="BackgroundImageFix"/>
            <feColorMatrix in="SourceAlpha" type="matrix" values="0 0 0 0 0 0 0 0 0 0 0 0 0 0 0 0 0 0 127 0" result="hardAlpha"/>
            <feOffset dy="1"/>
            <feGaussianBlur stdDeviation="2"/>
            <feColorMatrix type="matrix" values="0 0 0 0 0 0 0 0 0 0 0 0 0 0 0 0 0 0 0.25 0"/>
            <feBlend mode="normal" in2="BackgroundImageFix" result="effect1_dropShadow"/>
            <feBlend mode="normal" in="SourceGraphic" in2="effect1_dropShadow" result="shape"/>
        </filter>
        <linearGradient id="paint0_linear" x1="45.5" y1="22" x2="81" y2="106" gradientUnits="userSpaceOnUse">
            <stop stop-color="#6FDBE7"/>
            <stop offset="1" stop-color="#59B0C9"/>
        </linearGradient>
        <linearGradient id="paint1_linear" x1="91.5" y1="111.5" x2="30.0125" y2="14.4921" gradientUnits="userSpaceOnUse">
            <stop stop-color="#32B7C6"/>
            <stop offset="1" stop-color="#B352A1"/>
        </linearGradient>
    </defs>
</svg>
