<svg width="127" height="127" viewBox="0 0 127 127" fill="none" xmlns="http://www.w3.org/2000/svg">
    <circle cx="63" cy="63" r="60" fill="#1D3D59" fill-opacity="0.9"/>
    <g filter="url(#filter0_d)">
        <circle cx="63.3226" cy="63.3226" r="50.3226" fill="#10B579"/>
    </g>
    <g filter="url(#filter1_d)">
        <circle cx="63" cy="63" r="42" fill="url(#paint0_linear)"/>
    </g>
    <g filter="url(#filter2_d)">
        <circle cx="63" cy="63" r="38" fill="#B4F3D9"/>
    </g>
    <circle cx="63" cy="63" r="34" fill="url(#paint1_linear)" fill-opacity="0.7"/>
    <path fill-rule="evenodd" clip-rule="evenodd" d="M44.9994 76.9681C43.7591 76.2062 43 74.8533 43 73.3962V65.2617C43 64.2959 43.784 63.5133 44.7463 63.5175C45.0533 63.5175 45.3561 63.6007 45.6216 63.7547L63.9103 74.4578C64.9805 75.0822 65.6401 76.2312 65.6401 77.476V85.9019C65.6442 87.0592 64.7109 88 63.5578 88C63.172 88 62.7904 87.8918 62.4627 87.6919L44.9994 76.9681ZM72.2604 61.5275C73.3306 62.152 73.986 63.3051 73.9901 64.5457V81.6473C73.9901 82.151 73.7205 82.6173 73.2808 82.8629L69.2779 85.1234C69.2281 85.1525 69.1742 85.1733 69.1161 85.19V75.6942C69.1161 74.4661 68.4732 73.3255 67.4196 72.6927L51.3583 63.0512V52.3315C51.3583 51.3657 52.1423 50.583 53.1047 50.5872C53.4116 50.5872 53.7144 50.6705 53.9799 50.8245L72.2604 61.5275ZM80.2661 48.897C81.3405 49.5215 82 50.6746 82 51.9194V76.8973C81.9958 77.4093 81.7138 77.8798 81.2658 78.1254L77.4703 80.1819V62.7931C77.4703 61.565 76.8274 60.4285 75.7821 59.7957L59.3641 49.9128V39.7468C59.3641 39.4387 59.447 39.1348 59.5964 38.8684C60.0817 38.0358 61.1477 37.7527 61.9773 38.2356L80.2661 48.897Z" fill="white"/>
    <defs>
        <filter id="filter0_d" x="0" y="0" width="126.645" height="126.645" filterUnits="userSpaceOnUse" color-interpolation-filters="sRGB">
            <feFlood flood-opacity="0" result="BackgroundImageFix"/>
            <feColorMatrix in="SourceAlpha" type="matrix" values="0 0 0 0 0 0 0 0 0 0 0 0 0 0 0 0 0 0 127 0" result="hardAlpha"/>
            <feMorphology radius="3" operator="dilate" in="SourceAlpha" result="effect1_dropShadow"/>
            <feOffset/>
            <feGaussianBlur stdDeviation="5"/>
            <feColorMatrix type="matrix" values="0 0 0 0 0.153906 0 0 0 0 0.820833 0 0 0 0 0.500708 0 0 0 1 0"/>
            <feBlend mode="normal" in2="BackgroundImageFix" result="effect1_dropShadow"/>
            <feBlend mode="normal" in="SourceGraphic" in2="effect1_dropShadow" result="shape"/>
        </filter>
        <filter id="filter1_d" x="16" y="16" width="94" height="94" filterUnits="userSpaceOnUse" color-interpolation-filters="sRGB">
            <feFlood flood-opacity="0" result="BackgroundImageFix"/>
            <feColorMatrix in="SourceAlpha" type="matrix" values="0 0 0 0 0 0 0 0 0 0 0 0 0 0 0 0 0 0 127 0" result="hardAlpha"/>
            <feMorphology radius="1" operator="dilate" in="SourceAlpha" result="effect1_dropShadow"/>
            <feOffset/>
            <feGaussianBlur stdDeviation="2"/>
            <feColorMatrix type="matrix" values="0 0 0 0 0.0885417 0 0 0 0 0.85 0 0 0 0 0.59618 0 0 0 1 0"/>
            <feBlend mode="normal" in2="BackgroundImageFix" result="effect1_dropShadow"/>
            <feBlend mode="normal" in="SourceGraphic" in2="effect1_dropShadow" result="shape"/>
        </filter>
        <filter id="filter2_d" x="21" y="21" width="84" height="84" filterUnits="userSpaceOnUse" color-interpolation-filters="sRGB">
            <feFlood flood-opacity="0" result="BackgroundImageFix"/>
            <feColorMatrix in="SourceAlpha" type="matrix" values="0 0 0 0 0 0 0 0 0 0 0 0 0 0 0 0 0 0 127 0" result="hardAlpha"/>
            <feOffset/>
            <feGaussianBlur stdDeviation="2"/>
            <feColorMatrix type="matrix" values="0 0 0 0 0 0 0 0 0 0 0 0 0 0 0 0 0 0 0.25 0"/>
            <feBlend mode="normal" in2="BackgroundImageFix" result="effect1_dropShadow"/>
            <feBlend mode="normal" in="SourceGraphic" in2="effect1_dropShadow" result="shape"/>
        </filter>
        <linearGradient id="paint0_linear" x1="93" y1="96" x2="32.5" y2="26.5" gradientUnits="userSpaceOnUse">
            <stop stop-color="#21B28F"/>
            <stop offset="1" stop-color="#5CF0B7"/>
        </linearGradient>
        <linearGradient id="paint1_linear" x1="42.5" y1="38" x2="83" y2="87.5" gradientUnits="userSpaceOnUse">
            <stop/>
            <stop offset="1" stop-color="#60DBA4"/>
        </linearGradient>
    </defs>
</svg>
