<svg width="126" height="126" viewBox="0 0 126 126" fill="none" xmlns="http://www.w3.org/2000/svg">
    <circle cx="63" cy="62" r="60" fill="#391AB1" fill-opacity="0.9"/>
    <g filter="url(#filter0_d)">
        <circle cx="63.0003" cy="63.0003" r="50.3226" fill="#17377E"/>
    </g>
    <g filter="url(#filter1_d)">
        <circle cx="63.0006" cy="62.9997" r="40.6452" fill="url(#paint0_linear)"/>
    </g>
    <g filter="url(#filter2_d)">
        <circle cx="63.0008" cy="62.9998" r="36.7742" fill="#90D2FF"/>
    </g>
    <circle cx="63.0009" cy="62.9999" r="32.9032" fill="url(#paint1_linear)" fill-opacity="0.7"/>
    <path d="M77.2749 78.8181C76.9727 78.8181 76.6736 78.8985 76.411 79.0504C73.5872 80.6861 70.3643 81.5603 67.0918 81.5603C59.175 81.5603 52.1876 76.4155 49.5556 69.1964H65.5133C66.464 69.1964 67.2372 68.4257 67.2372 67.4776C67.2372 66.5288 66.464 65.7587 65.5133 65.7587H48.6969C48.5594 64.7274 48.4891 63.9137 48.4891 63.0083C48.4891 62.1031 48.5591 61.2898 48.6969 60.2585H65.5129C66.4636 60.2585 67.2369 59.4877 67.2369 58.5396C67.2369 57.5908 66.4636 56.8208 65.5129 56.8208H49.5553C52.1876 49.2579 59.175 44.4394 67.0918 44.4394C70.3643 44.4394 73.5872 45.3012 76.4117 46.9362C76.6736 47.0878 76.9727 47.1672 77.2749 47.1672C77.8876 47.1672 78.4599 46.8378 78.7676 46.3095C79.2445 45.4896 78.9637 44.4346 78.1415 43.9578C74.7915 42.0193 70.9711 41 67.0921 41C57.3398 41.0003 48.6783 47.5391 45.9358 56.8208H41.7236C40.7736 56.8208 40 57.5908 40 58.5396C40 59.4877 40.7736 60.2585 41.7236 60.2585H45.2173C45.1005 61.2898 45.0419 62.1059 45.0419 63.0083C45.0419 63.911 45.1005 64.7274 45.2173 65.7587H41.7236C40.7736 65.7587 40 66.5288 40 67.4776C40 68.4257 40.7736 69.1964 41.7236 69.1964H45.9358C48.6783 78.4781 57.3401 85 67.0918 85C70.9711 85 74.7915 83.9704 78.1412 82.0305C78.9637 81.5544 79.2442 80.498 78.7666 79.6778C78.4599 79.1491 77.8876 78.8181 77.2749 78.8181Z" fill="white"/>
    <defs>
        <filter id="filter0_d" x="0.677734" y="0.677734" width="124.645" height="124.645" filterUnits="userSpaceOnUse" color-interpolation-filters="sRGB">
            <feFlood flood-opacity="0" result="BackgroundImageFix"/>
            <feColorMatrix in="SourceAlpha" type="matrix" values="0 0 0 0 0 0 0 0 0 0 0 0 0 0 0 0 0 0 127 0" result="hardAlpha"/>
            <feMorphology radius="2" operator="dilate" in="SourceAlpha" result="effect1_dropShadow"/>
            <feOffset/>
            <feGaussianBlur stdDeviation="5"/>
            <feColorMatrix type="matrix" values="0 0 0 0 0.104167 0 0 0 0 0.352688 0 0 0 0 1 0 0 0 1 0"/>
            <feBlend mode="normal" in2="BackgroundImageFix" result="effect1_dropShadow"/>
            <feBlend mode="normal" in="SourceGraphic" in2="effect1_dropShadow" result="shape"/>
        </filter>
        <filter id="filter1_d" x="17.3555" y="17.3545" width="91.2903" height="91.2903" filterUnits="userSpaceOnUse" color-interpolation-filters="sRGB">
            <feFlood flood-opacity="0" result="BackgroundImageFix"/>
            <feColorMatrix in="SourceAlpha" type="matrix" values="0 0 0 0 0 0 0 0 0 0 0 0 0 0 0 0 0 0 127 0" result="hardAlpha"/>
            <feMorphology radius="1" operator="dilate" in="SourceAlpha" result="effect1_dropShadow"/>
            <feOffset/>
            <feGaussianBlur stdDeviation="2"/>
            <feColorMatrix type="matrix" values="0 0 0 0 0.14375 0 0 0 0 0.369731 0 0 0 0 0.958333 0 0 0 1 0"/>
            <feBlend mode="normal" in2="BackgroundImageFix" result="effect1_dropShadow"/>
            <feBlend mode="normal" in="SourceGraphic" in2="effect1_dropShadow" result="shape"/>
        </filter>
        <filter id="filter2_d" x="21.2266" y="21.2256" width="83.5484" height="83.5484" filterUnits="userSpaceOnUse" color-interpolation-filters="sRGB">
            <feFlood flood-opacity="0" result="BackgroundImageFix"/>
            <feColorMatrix in="SourceAlpha" type="matrix" values="0 0 0 0 0 0 0 0 0 0 0 0 0 0 0 0 0 0 127 0" result="hardAlpha"/>
            <feMorphology radius="1" operator="dilate" in="SourceAlpha" result="effect1_dropShadow"/>
            <feOffset/>
            <feGaussianBlur stdDeviation="2"/>
            <feColorMatrix type="matrix" values="0 0 0 0 0 0 0 0 0 0 0 0 0 0 0 0 0 0 0.25 0"/>
            <feBlend mode="normal" in2="BackgroundImageFix" result="effect1_dropShadow"/>
            <feBlend mode="normal" in="SourceGraphic" in2="effect1_dropShadow" result="shape"/>
        </filter>
        <linearGradient id="paint0_linear" x1="95.42" y1="95.419" x2="32.5168" y2="30.0964" gradientUnits="userSpaceOnUse">
            <stop stop-color="#0E317E"/>
            <stop offset="1" stop-color="#54B1F1"/>
        </linearGradient>
        <linearGradient id="paint1_linear" x1="38.5" y1="37.5" x2="86.5" y2="90" gradientUnits="userSpaceOnUse">
            <stop stop-color="#1A4199"/>
            <stop offset="1" stop-color="#60BEFF"/>
        </linearGradient>
    </defs>
</svg>
