<svg width="128" height="128" viewBox="0 0 128 128" fill="none" xmlns="http://www.w3.org/2000/svg">
    <g filter="url(#filter0_d)">
        <circle cx="64" cy="64" r="60" fill="#240A0A" fill-opacity="0.9"/>
    </g>
    <g filter="url(#filter1_d)">
        <circle cx="64" cy="64" r="52" fill="#AB3232"/>
    </g>
    <g filter="url(#filter2_d)">
        <circle cx="64" cy="64" r="42" fill="url(#paint0_linear)"/>
    </g>
    <g filter="url(#filter3_d)">
        <circle cx="64" cy="64" r="38" fill="#FDCFCF"/>
    </g>
    <circle cx="64" cy="64" r="34" fill="url(#paint1_linear)" fill-opacity="0.7"/>
    <path d="M85.3544 79.8086L65.4524 40.0136C64.4635 38.2942 62.5749 39.0871 62.2007 40.0136L42.1829 80.0135C41.497 81.6171 42.8956 82.695 43.8132 82.6416H83.831C83.8399 82.6416 83.8399 82.6416 83.8488 82.6416C85.2831 82.7218 86.1472 81.0202 85.3544 79.8086ZM46.7531 79.0158L63.8221 44.8955L80.8911 79.0158H46.7531Z" fill="white"/>
    <path d="M62.0039 56.1299V67.3459C62.0039 68.3526 62.8146 69.1633 63.8213 69.1633C64.828 69.1633 65.6386 68.3526 65.6386 67.3459V56.1299C65.6386 55.1232 64.828 54.3125 63.8213 54.3125C62.8146 54.3125 62.0039 55.1232 62.0039 56.1299Z" fill="white"/>
    <path d="M63.8204 75.5676C64.829 75.5676 65.6467 74.7499 65.6467 73.7413C65.6467 72.7327 64.829 71.915 63.8204 71.915C62.8118 71.915 61.9941 72.7327 61.9941 73.7413C61.9941 74.7499 62.8118 75.5676 63.8204 75.5676Z" fill="white"/>
    <defs>
        <filter id="filter0_d" x="0" y="0" width="128" height="128" filterUnits="userSpaceOnUse" color-interpolation-filters="sRGB">
            <feFlood flood-opacity="0" result="BackgroundImageFix"/>
            <feColorMatrix in="SourceAlpha" type="matrix" values="0 0 0 0 0 0 0 0 0 0 0 0 0 0 0 0 0 0 127 0" result="hardAlpha"/>
            <feOffset/>
            <feGaussianBlur stdDeviation="2"/>
            <feColorMatrix type="matrix" values="0 0 0 0 0 0 0 0 0 0 0 0 0 0 0 0 0 0 0.25 0"/>
            <feBlend mode="normal" in2="BackgroundImageFix" result="effect1_dropShadow"/>
            <feBlend mode="normal" in="SourceGraphic" in2="effect1_dropShadow" result="shape"/>
        </filter>
        <filter id="filter1_d" x="0" y="0" width="128" height="128" filterUnits="userSpaceOnUse" color-interpolation-filters="sRGB">
            <feFlood flood-opacity="0" result="BackgroundImageFix"/>
            <feColorMatrix in="SourceAlpha" type="matrix" values="0 0 0 0 0 0 0 0 0 0 0 0 0 0 0 0 0 0 127 0" result="hardAlpha"/>
            <feMorphology radius="2" operator="dilate" in="SourceAlpha" result="effect1_dropShadow"/>
            <feOffset/>
            <feGaussianBlur stdDeviation="5"/>
            <feColorMatrix type="matrix" values="0 0 0 0 0.8625 0 0 0 0 0.251563 0 0 0 0 0.251563 0 0 0 1 0"/>
            <feBlend mode="normal" in2="BackgroundImageFix" result="effect1_dropShadow"/>
            <feBlend mode="normal" in="SourceGraphic" in2="effect1_dropShadow" result="shape"/>
        </filter>
        <filter id="filter2_d" x="17" y="17" width="94" height="94" filterUnits="userSpaceOnUse" color-interpolation-filters="sRGB">
            <feFlood flood-opacity="0" result="BackgroundImageFix"/>
            <feColorMatrix in="SourceAlpha" type="matrix" values="0 0 0 0 0 0 0 0 0 0 0 0 0 0 0 0 0 0 127 0" result="hardAlpha"/>
            <feMorphology radius="1" operator="dilate" in="SourceAlpha" result="effect1_dropShadow"/>
            <feOffset/>
            <feGaussianBlur stdDeviation="2"/>
            <feColorMatrix type="matrix" values="0 0 0 0 0.875 0 0 0 0 0.255208 0 0 0 0 0.255208 0 0 0 1 0"/>
            <feBlend mode="normal" in2="BackgroundImageFix" result="effect1_dropShadow"/>
            <feBlend mode="normal" in="SourceGraphic" in2="effect1_dropShadow" result="shape"/>
        </filter>
        <filter id="filter3_d" x="22" y="22" width="84" height="84" filterUnits="userSpaceOnUse" color-interpolation-filters="sRGB">
            <feFlood flood-opacity="0" result="BackgroundImageFix"/>
            <feColorMatrix in="SourceAlpha" type="matrix" values="0 0 0 0 0 0 0 0 0 0 0 0 0 0 0 0 0 0 127 0" result="hardAlpha"/>
            <feOffset/>
            <feGaussianBlur stdDeviation="2"/>
            <feColorMatrix type="matrix" values="0 0 0 0 0 0 0 0 0 0 0 0 0 0 0 0 0 0 0.72 0"/>
            <feBlend mode="normal" in2="BackgroundImageFix" result="effect1_dropShadow"/>
            <feBlend mode="normal" in="SourceGraphic" in2="effect1_dropShadow" result="shape"/>
        </filter>
        <linearGradient id="paint0_linear" x1="34" y1="26.5" x2="91.5" y2="109.5" gradientUnits="userSpaceOnUse">
            <stop stop-color="#FFA2A2"/>
            <stop offset="1" stop-color="#810C0C"/>
        </linearGradient>
        <linearGradient id="paint1_linear" x1="40.2" y1="38.2571" x2="91" y2="91.5" gradientUnits="userSpaceOnUse">
            <stop stop-color="#290909"/>
            <stop offset="1" stop-color="#FF4A4A"/>
        </linearGradient>
    </defs>
</svg>
