<svg width="127" height="127" viewBox="0 0 127 127" fill="none" xmlns="http://www.w3.org/2000/svg">
    <circle cx="63" cy="63" r="60" fill="#1D3D59" fill-opacity="0.9"/>
    <g filter="url(#filter0_d)">
        <circle cx="63.3226" cy="63.3226" r="50.3226" fill="#0EBA7C"/>
    </g>
    <g filter="url(#filter1_d)">
        <circle cx="63" cy="63" r="42" fill="url(#paint0_linear)"/>
    </g>
    <g filter="url(#filter2_d)">
        <circle cx="63" cy="63" r="38" fill="#B4F3D9"/>
    </g>
    <circle cx="63" cy="63" r="34" fill="url(#paint1_linear)" fill-opacity="0.7"/>
    <path d="M84.3544 77.8086L64.4524 38.0136C63.4635 36.2942 61.5749 37.0871 61.2007 38.0136L41.1829 78.0135C40.497 79.6171 41.8956 80.695 42.8132 80.6416H82.831C82.8399 80.6416 82.8399 80.6416 82.8488 80.6416C84.2831 80.7218 85.1472 79.0202 84.3544 77.8086ZM45.7531 77.0158L62.8221 42.8955L79.8911 77.0158H45.7531Z" fill="white"/>
    <path d="M61.0039 54.1299V65.3459C61.0039 66.3526 61.8146 67.1633 62.8213 67.1633C63.828 67.1633 64.6386 66.3526 64.6386 65.3459V54.1299C64.6386 53.1232 63.828 52.3125 62.8213 52.3125C61.8146 52.3125 61.0039 53.1232 61.0039 54.1299Z" fill="white"/>
    <path d="M62.8204 73.5676C63.829 73.5676 64.6467 72.7499 64.6467 71.7413C64.6467 70.7327 63.829 69.915 62.8204 69.915C61.8118 69.915 60.9941 70.7327 60.9941 71.7413C60.9941 72.7499 61.8118 73.5676 62.8204 73.5676Z" fill="white"/>
    <defs>
        <filter id="filter0_d" x="0" y="0" width="126.645" height="126.645" filterUnits="userSpaceOnUse" color-interpolation-filters="sRGB">
            <feFlood flood-opacity="0" result="BackgroundImageFix"/>
            <feColorMatrix in="SourceAlpha" type="matrix" values="0 0 0 0 0 0 0 0 0 0 0 0 0 0 0 0 0 0 127 0" result="hardAlpha"/>
            <feMorphology radius="3" operator="dilate" in="SourceAlpha" result="effect1_dropShadow"/>
            <feOffset/>
            <feGaussianBlur stdDeviation="5"/>
            <feColorMatrix type="matrix" values="0 0 0 0 0.153906 0 0 0 0 0.820833 0 0 0 0 0.500708 0 0 0 1 0"/>
            <feBlend mode="normal" in2="BackgroundImageFix" result="effect1_dropShadow"/>
            <feBlend mode="normal" in="SourceGraphic" in2="effect1_dropShadow" result="shape"/>
        </filter>
        <filter id="filter1_d" x="16" y="16" width="94" height="94" filterUnits="userSpaceOnUse" color-interpolation-filters="sRGB">
            <feFlood flood-opacity="0" result="BackgroundImageFix"/>
            <feColorMatrix in="SourceAlpha" type="matrix" values="0 0 0 0 0 0 0 0 0 0 0 0 0 0 0 0 0 0 127 0" result="hardAlpha"/>
            <feMorphology radius="1" operator="dilate" in="SourceAlpha" result="effect1_dropShadow"/>
            <feOffset/>
            <feGaussianBlur stdDeviation="2"/>
            <feColorMatrix type="matrix" values="0 0 0 0 0.0885417 0 0 0 0 0.85 0 0 0 0 0.59618 0 0 0 1 0"/>
            <feBlend mode="normal" in2="BackgroundImageFix" result="effect1_dropShadow"/>
            <feBlend mode="normal" in="SourceGraphic" in2="effect1_dropShadow" result="shape"/>
        </filter>
        <filter id="filter2_d" x="21" y="21" width="84" height="84" filterUnits="userSpaceOnUse" color-interpolation-filters="sRGB">
            <feFlood flood-opacity="0" result="BackgroundImageFix"/>
            <feColorMatrix in="SourceAlpha" type="matrix" values="0 0 0 0 0 0 0 0 0 0 0 0 0 0 0 0 0 0 127 0" result="hardAlpha"/>
            <feOffset/>
            <feGaussianBlur stdDeviation="2"/>
            <feColorMatrix type="matrix" values="0 0 0 0 0 0 0 0 0 0 0 0 0 0 0 0 0 0 0.25 0"/>
            <feBlend mode="normal" in2="BackgroundImageFix" result="effect1_dropShadow"/>
            <feBlend mode="normal" in="SourceGraphic" in2="effect1_dropShadow" result="shape"/>
        </filter>
        <linearGradient id="paint0_linear" x1="93" y1="96" x2="32.5" y2="26.5" gradientUnits="userSpaceOnUse">
            <stop stop-color="#21B28F"/>
            <stop offset="1" stop-color="#5CF0B7"/>
        </linearGradient>
        <linearGradient id="paint1_linear" x1="42.5" y1="38" x2="83" y2="87.5" gradientUnits="userSpaceOnUse">
            <stop/>
            <stop offset="1" stop-color="#2DFF81"/>
        </linearGradient>
    </defs>
</svg>
