<svg width="127" height="127" viewBox="0 0 127 127" fill="none" xmlns="http://www.w3.org/2000/svg">
    <circle cx="63" cy="63" r="60" fill="#1D3D59" fill-opacity="0.9"/>
    <g filter="url(#filter0_d)">
        <circle cx="63.3226" cy="63.3226" r="50.3226" fill="#249983"/>
    </g>
    <g filter="url(#filter1_d)">
        <circle cx="63" cy="63" r="42" fill="url(#paint0_linear)"/>
    </g>
    <g filter="url(#filter2_d)">
        <circle cx="63" cy="63" r="38" fill="#C6F0E9"/>
    </g>
    <circle cx="63" cy="63" r="34" fill="url(#paint1_linear)" fill-opacity="0.7"/>
    <path d="M43.5849 74.5921V56.0777L57.6253 66.6448V74.5921H61.2089V65.8987C61.2082 65.5757 61.1327 65.2572 60.9882 64.9683C60.8438 64.6793 60.6343 64.4278 60.3763 64.2335L43.3488 51.4137C43.0374 51.1824 42.6679 51.042 42.2815 51.008C41.895 50.9741 41.5067 51.048 41.1597 51.2215C40.8127 51.395 40.5206 51.6613 40.3159 51.9908C40.1112 52.3204 40.0018 52.7002 40 53.0882V74.5921H43.5849ZM82.4151 74.5921V56.0777L68.3747 66.6448V74.5921H64.7911V65.8987C64.7918 65.5757 64.8673 65.2572 65.0118 64.9683C65.1562 64.6793 65.3657 64.4278 65.6237 64.2335L82.6512 51.419C82.9622 51.1879 83.3312 51.0475 83.7172 51.0134C84.1032 50.9792 84.4912 51.0527 84.838 51.2255C85.1848 51.3984 85.477 51.6639 85.6821 51.9927C85.8872 52.3215 85.9972 52.7007 86 53.0882V74.5921H82.4151Z" fill="white"/>
    <defs>
        <filter id="filter0_d" x="0" y="0" width="126.645" height="126.645" filterUnits="userSpaceOnUse" color-interpolation-filters="sRGB">
            <feFlood flood-opacity="0" result="BackgroundImageFix"/>
            <feColorMatrix in="SourceAlpha" type="matrix" values="0 0 0 0 0 0 0 0 0 0 0 0 0 0 0 0 0 0 127 0" result="hardAlpha"/>
            <feMorphology radius="3" operator="dilate" in="SourceAlpha" result="effect1_dropShadow"/>
            <feOffset/>
            <feGaussianBlur stdDeviation="5"/>
            <feColorMatrix type="matrix" values="0 0 0 0 0.197691 0 0 0 0 0.804167 0 0 0 0 0.692773 0 0 0 1 0"/>
            <feBlend mode="normal" in2="BackgroundImageFix" result="effect1_dropShadow"/>
            <feBlend mode="normal" in="SourceGraphic" in2="effect1_dropShadow" result="shape"/>
        </filter>
        <filter id="filter1_d" x="16" y="16" width="94" height="94" filterUnits="userSpaceOnUse" color-interpolation-filters="sRGB">
            <feFlood flood-opacity="0" result="BackgroundImageFix"/>
            <feColorMatrix in="SourceAlpha" type="matrix" values="0 0 0 0 0 0 0 0 0 0 0 0 0 0 0 0 0 0 127 0" result="hardAlpha"/>
            <feMorphology radius="1" operator="dilate" in="SourceAlpha" result="effect1_dropShadow"/>
            <feOffset/>
            <feGaussianBlur stdDeviation="2"/>
            <feColorMatrix type="matrix" values="0 0 0 0 0.322917 0 0 0 0 0.833333 0 0 0 0 0.739583 0 0 0 1 0"/>
            <feBlend mode="normal" in2="BackgroundImageFix" result="effect1_dropShadow"/>
            <feBlend mode="normal" in="SourceGraphic" in2="effect1_dropShadow" result="shape"/>
        </filter>
        <filter id="filter2_d" x="21" y="21" width="84" height="84" filterUnits="userSpaceOnUse" color-interpolation-filters="sRGB">
            <feFlood flood-opacity="0" result="BackgroundImageFix"/>
            <feColorMatrix in="SourceAlpha" type="matrix" values="0 0 0 0 0 0 0 0 0 0 0 0 0 0 0 0 0 0 127 0" result="hardAlpha"/>
            <feOffset/>
            <feGaussianBlur stdDeviation="2"/>
            <feColorMatrix type="matrix" values="0 0 0 0 0 0 0 0 0 0 0 0 0 0 0 0 0 0 0.25 0"/>
            <feBlend mode="normal" in2="BackgroundImageFix" result="effect1_dropShadow"/>
            <feBlend mode="normal" in="SourceGraphic" in2="effect1_dropShadow" result="shape"/>
        </filter>
        <linearGradient id="paint0_linear" x1="93" y1="96" x2="32.5" y2="26.5" gradientUnits="userSpaceOnUse">
            <stop stop-color="#21B28F"/>
            <stop offset="1" stop-color="#5CF0B7"/>
        </linearGradient>
        <linearGradient id="paint1_linear" x1="42.5" y1="38" x2="83" y2="87.5" gradientUnits="userSpaceOnUse">
            <stop/>
            <stop offset="1" stop-color="#61C1B0"/>
        </linearGradient>
    </defs>
</svg>
