<svg width="128" height="128" viewBox="0 0 128 128" fill="none" xmlns="http://www.w3.org/2000/svg">
    <g filter="url(#filter0_d)">
        <circle cx="64" cy="64" r="60" fill="#1C180F" fill-opacity="0.9"/>
    </g>
    <g filter="url(#filter1_d)">
        <circle cx="64" cy="64" r="52" fill="#BBAE32"/>
    </g>
    <g filter="url(#filter2_d)">
        <circle cx="64" cy="64" r="42" fill="url(#paint0_linear)"/>
    </g>
    <g filter="url(#filter3_d)">
        <circle cx="64" cy="64" r="38" fill="#EDE8B9"/>
    </g>
    <circle cx="64" cy="64" r="34" fill="url(#paint1_linear)" fill-opacity="0.7"/>
    <path d="M85.3544 78.8086L65.4524 39.0136C64.4635 37.2942 62.5749 38.0871 62.2007 39.0136L42.1829 79.0135C41.497 80.6171 42.8956 81.695 43.8132 81.6416H83.831C83.8399 81.6416 83.8399 81.6416 83.8488 81.6416C85.2831 81.7218 86.1472 80.0202 85.3544 78.8086ZM46.7531 78.0158L63.8221 43.8955L80.8911 78.0158H46.7531Z" fill="white"/>
    <path d="M62.0039 55.1299V66.3459C62.0039 67.3526 62.8146 68.1633 63.8213 68.1633C64.828 68.1633 65.6386 67.3526 65.6386 66.3459V55.1299C65.6386 54.1232 64.828 53.3125 63.8213 53.3125C62.8146 53.3125 62.0039 54.1232 62.0039 55.1299Z" fill="white"/>
    <path d="M63.8204 74.5676C64.829 74.5676 65.6467 73.7499 65.6467 72.7413C65.6467 71.7327 64.829 70.915 63.8204 70.915C62.8118 70.915 61.9941 71.7327 61.9941 72.7413C61.9941 73.7499 62.8118 74.5676 63.8204 74.5676Z" fill="white"/>
    <defs>
        <filter id="filter0_d" x="0" y="0" width="128" height="128" filterUnits="userSpaceOnUse" color-interpolation-filters="sRGB">
            <feFlood flood-opacity="0" result="BackgroundImageFix"/>
            <feColorMatrix in="SourceAlpha" type="matrix" values="0 0 0 0 0 0 0 0 0 0 0 0 0 0 0 0 0 0 127 0" result="hardAlpha"/>
            <feOffset/>
            <feGaussianBlur stdDeviation="2"/>
            <feColorMatrix type="matrix" values="0 0 0 0 0 0 0 0 0 0 0 0 0 0 0 0 0 0 0.25 0"/>
            <feBlend mode="normal" in2="BackgroundImageFix" result="effect1_dropShadow"/>
            <feBlend mode="normal" in="SourceGraphic" in2="effect1_dropShadow" result="shape"/>
        </filter>
        <filter id="filter1_d" x="0" y="0" width="128" height="128" filterUnits="userSpaceOnUse" color-interpolation-filters="sRGB">
            <feFlood flood-opacity="0" result="BackgroundImageFix"/>
            <feColorMatrix in="SourceAlpha" type="matrix" values="0 0 0 0 0 0 0 0 0 0 0 0 0 0 0 0 0 0 127 0" result="hardAlpha"/>
            <feMorphology radius="2" operator="dilate" in="SourceAlpha" result="effect1_dropShadow"/>
            <feOffset/>
            <feGaussianBlur stdDeviation="5"/>
            <feColorMatrix type="matrix" values="0 0 0 0 0.8 0 0 0 0 0.749836 0 0 0 0 0.252552 0 0 0 1 0"/>
            <feBlend mode="normal" in2="BackgroundImageFix" result="effect1_dropShadow"/>
            <feBlend mode="normal" in="SourceGraphic" in2="effect1_dropShadow" result="shape"/>
        </filter>
        <filter id="filter2_d" x="17" y="17" width="94" height="94" filterUnits="userSpaceOnUse" color-interpolation-filters="sRGB">
            <feFlood flood-opacity="0" result="BackgroundImageFix"/>
            <feColorMatrix in="SourceAlpha" type="matrix" values="0 0 0 0 0 0 0 0 0 0 0 0 0 0 0 0 0 0 127 0" result="hardAlpha"/>
            <feMorphology radius="1" operator="dilate" in="SourceAlpha" result="effect1_dropShadow"/>
            <feOffset/>
            <feGaussianBlur stdDeviation="2"/>
            <feColorMatrix type="matrix" values="0 0 0 0 0.925 0 0 0 0 0.863902 0 0 0 0 0.258229 0 0 0 1 0"/>
            <feBlend mode="normal" in2="BackgroundImageFix" result="effect1_dropShadow"/>
            <feBlend mode="normal" in="SourceGraphic" in2="effect1_dropShadow" result="shape"/>
        </filter>
        <filter id="filter3_d" x="22" y="23" width="84" height="84" filterUnits="userSpaceOnUse" color-interpolation-filters="sRGB">
            <feFlood flood-opacity="0" result="BackgroundImageFix"/>
            <feColorMatrix in="SourceAlpha" type="matrix" values="0 0 0 0 0 0 0 0 0 0 0 0 0 0 0 0 0 0 127 0" result="hardAlpha"/>
            <feOffset dy="1"/>
            <feGaussianBlur stdDeviation="2"/>
            <feColorMatrix type="matrix" values="0 0 0 0 0 0 0 0 0 0 0 0 0 0 0 0 0 0 0.25 0"/>
            <feBlend mode="normal" in2="BackgroundImageFix" result="effect1_dropShadow"/>
            <feBlend mode="normal" in="SourceGraphic" in2="effect1_dropShadow" result="shape"/>
        </filter>
        <linearGradient id="paint0_linear" x1="89.5" y1="102" x2="38" y2="22" gradientUnits="userSpaceOnUse">
            <stop stop-color="#766F2D"/>
            <stop offset="1" stop-color="#FFE804"/>
        </linearGradient>
        <linearGradient id="paint1_linear" x1="20" y1="20" x2="93.4879" y2="114.009" gradientUnits="userSpaceOnUse">
            <stop offset="0.156708"/>
            <stop offset="0.806685" stop-color="#FFE804"/>
        </linearGradient>
    </defs>
</svg>
