<svg width="86" height="86" viewBox="0 0 86 86" fill="none" xmlns="http://www.w3.org/2000/svg">
<g filter="url(#filter0_biiiiii)">
<path d="M68 43C68 56.8071 56.8071 68 43 68C29.1929 68 18 56.8071 18 43C18 29.1929 29.1929 18 43 18C56.8071 18 68 29.1929 68 43Z" fill="#C4C4C4" fill-opacity="0.01"/>
</g>
<g filter="url(#filter1_ddif)">
<path d="M64.3369 48.3318C61.4004 60.1107 49.4703 67.2791 37.69 64.3418C25.9147 61.4053 18.7463 49.4744 21.6841 37.6965C24.6193 25.9163 36.5494 18.7474 48.3261 21.6839C60.1055 24.6205 67.2734 36.5526 64.3366 48.332L64.3368 48.3318H64.3369Z" fill="url(#paint0_linear)"/>
</g>
<g filter="url(#filter2_d)">
<path d="M43.1887 25.0562C43.0851 24.9834 42.9464 24.9813 42.8397 25.0499C37.737 28.3333 34.1626 32.6697 31.3121 36.883C32.0579 36.2586 33.1065 35.7858 33.9657 35.3453C34.0043 35.3234 34.0043 35.2762 33.9657 35.2543C33.7445 35.1267 33.4805 35.0875 33.313 35.0761C33.2666 35.0728 33.2536 35.0109 33.2947 34.9889C34.3677 34.417 35.7857 34.2408 36.3834 34.2205V34.22C36.4288 34.2194 36.4194 34.1883 36.4115 34.1724C36.4069 34.1648 36.4029 34.1574 36.3985 34.15C36.1761 33.7966 35.8256 33.5389 35.6301 33.4139C35.5919 33.3891 35.6084 33.3307 35.6534 33.329C36.3924 33.3012 38.1585 32.919 39.4608 33.1642C39.5102 33.1733 39.5393 33.1217 39.5179 33.0761C39.3892 32.7954 39.1654 32.5464 39.0257 32.4485C38.992 32.4255 39.0039 32.3723 39.0443 32.365C41.2458 31.9869 43.7683 32.8212 43.7683 32.8212C44.027 32.8829 44.4089 32.6689 44.6033 32.3996L45.4766 31.1897C45.5077 31.0906 45.6475 31.091 45.6781 31.1905C46.1057 32.6079 46.8933 33.8892 47.9633 34.909L52.6223 39.5272C52.7686 39.6722 52.7724 39.9085 52.6301 40.0582L51.2333 41.5237C51.0265 41.7461 50.7019 41.8111 50.4262 41.6865L47.9798 41.0007C47.8961 40.9821 47.8123 40.9628 47.7287 40.9436L45.1395 40.4828C44.5568 40.379 44.025 40.0827 43.6287 39.6413L43.0632 39.0105C42.9533 38.8877 42.7651 38.8777 42.6425 38.9875L40.289 41.1031C39.3147 41.9723 38.8634 42.3527 37.9479 42.9967L36.2908 43.9787C37.9402 43.3434 41.9161 42.2462 44.9467 42.7294C45.0322 42.7425 45.0864 42.824 45.0678 42.9092C44.6883 44.6545 43.2317 47.603 41.7648 49.7022C41.6666 49.843 41.5385 49.9588 41.3882 50.0404C40.7469 50.3887 38.9047 51.3901 38.2428 51.75C38.1516 51.7993 38.0462 51.7157 38.0725 51.6149L38.6444 49.4492C38.6982 49.2446 38.8474 49.079 39.0442 49.0037L40.1267 48.5893C40.3405 48.5079 40.5153 48.3479 40.6144 48.1414C40.8921 47.5612 41.1598 46.713 41.3294 45.8213C41.3493 45.7167 41.263 45.622 41.1576 45.6347C38.4665 45.9571 33.9107 47.3873 31.8563 49.0087C30.3974 50.2159 29.2174 51.2859 28.0694 52.8736C27.9276 53.0698 28.0121 53.3485 28.2402 53.4278C38.8793 57.1154 49.9971 56.9284 59.158 52.2804C59.285 52.2165 59.367 52.0835 59.3666 51.9409C59.3333 41.4631 51.513 30.9425 43.1887 25.0562Z" fill="white"/>
</g>
<defs>
<filter id="filter0_biiiiii" x="8.95736" y="8.95736" width="68.0853" height="68.0853" filterUnits="userSpaceOnUse" color-interpolation-filters="sRGB">
<feFlood flood-opacity="0" result="BackgroundImageFix"/>
<feGaussianBlur in="BackgroundImage" stdDeviation="4.52132"/>
<feComposite in2="SourceAlpha" operator="in" result="effect1_backgroundBlur"/>
<feBlend mode="normal" in="SourceGraphic" in2="effect1_backgroundBlur" result="shape"/>
<feColorMatrix in="SourceAlpha" type="matrix" values="0 0 0 0 0 0 0 0 0 0 0 0 0 0 0 0 0 0 127 0" result="hardAlpha"/>
<feOffset dy="0.0474222"/>
<feGaussianBlur stdDeviation="0.948444"/>
<feComposite in2="hardAlpha" operator="arithmetic" k2="-1" k3="1"/>
<feColorMatrix type="matrix" values="0 0 0 0 0.888917 0 0 0 0 0.870833 0 0 0 0 1 0 0 0 0.2 0"/>
<feBlend mode="normal" in2="shape" result="effect2_innerShadow"/>
<feColorMatrix in="SourceAlpha" type="matrix" values="0 0 0 0 0 0 0 0 0 0 0 0 0 0 0 0 0 0 127 0" result="hardAlpha"/>
<feOffset dy="0.189689"/>
<feGaussianBlur stdDeviation="0.4268"/>
<feComposite in2="hardAlpha" operator="arithmetic" k2="-1" k3="1"/>
<feColorMatrix type="matrix" values="0 0 0 0 0.60543 0 0 0 0 0.574062 0 0 0 0 0.825 0 0 0 0.3 0"/>
<feBlend mode="normal" in2="effect2_innerShadow" result="effect3_innerShadow"/>
<feColorMatrix in="SourceAlpha" type="matrix" values="0 0 0 0 0 0 0 0 0 0 0 0 0 0 0 0 0 0 127 0" result="hardAlpha"/>
<feMorphology radius="2.27627" operator="dilate" in="SourceAlpha" result="effect4_innerShadow"/>
<feOffset dy="4.64738"/>
<feGaussianBlur stdDeviation="2.37111"/>
<feComposite in2="hardAlpha" operator="arithmetic" k2="-1" k3="1"/>
<feColorMatrix type="matrix" values="0 0 0 0 0.792093 0 0 0 0 0.675 0 0 0 0 1 0 0 0 0.3 0"/>
<feBlend mode="normal" in2="effect3_innerShadow" result="effect4_innerShadow"/>
<feColorMatrix in="SourceAlpha" type="matrix" values="0 0 0 0 0 0 0 0 0 0 0 0 0 0 0 0 0 0 127 0" result="hardAlpha"/>
<feMorphology radius="3.03502" operator="dilate" in="SourceAlpha" result="effect5_innerShadow"/>
<feOffset dy="-3.88862"/>
<feGaussianBlur stdDeviation="1.61236"/>
<feComposite in2="hardAlpha" operator="arithmetic" k2="-1" k3="1"/>
<feColorMatrix type="matrix" values="0 0 0 0 0.374841 0 0 0 0 0.266806 0 0 0 0 0.566667 0 0 0 0.3 0"/>
<feBlend mode="normal" in2="effect4_innerShadow" result="effect5_innerShadow"/>
<feColorMatrix in="SourceAlpha" type="matrix" values="0 0 0 0 0 0 0 0 0 0 0 0 0 0 0 0 0 0 127 0" result="hardAlpha"/>
<feMorphology radius="0.189689" operator="dilate" in="SourceAlpha" result="effect6_innerShadow"/>
<feOffset dy="0.331956"/>
<feGaussianBlur stdDeviation="0.260822"/>
<feComposite in2="hardAlpha" operator="arithmetic" k2="-1" k3="1"/>
<feColorMatrix type="matrix" values="0 0 0 0 1 0 0 0 0 1 0 0 0 0 1 0 0 0 1 0"/>
<feBlend mode="normal" in2="effect5_innerShadow" result="effect6_innerShadow"/>
<feColorMatrix in="SourceAlpha" type="matrix" values="0 0 0 0 0 0 0 0 0 0 0 0 0 0 0 0 0 0 127 0" result="hardAlpha"/>
<feMorphology radius="1.7072" operator="dilate" in="SourceAlpha" result="effect7_innerShadow"/>
<feOffset dy="1.84947"/>
<feGaussianBlur stdDeviation="1.32782"/>
<feComposite in2="hardAlpha" operator="arithmetic" k2="-1" k3="1"/>
<feColorMatrix type="matrix" values="0 0 0 0 1 0 0 0 0 1 0 0 0 0 1 0 0 0 0.5 0"/>
<feBlend mode="normal" in2="effect6_innerShadow" result="effect7_innerShadow"/>
</filter>
<filter id="filter1_ddif" x="0.816032" y="0.816399" width="84.3883" height="84.3932" filterUnits="userSpaceOnUse" color-interpolation-filters="sRGB">
<feFlood flood-opacity="0" result="BackgroundImageFix"/>
<feColorMatrix in="SourceAlpha" type="matrix" values="0 0 0 0 0 0 0 0 0 0 0 0 0 0 0 0 0 0 127 0" result="hardAlpha"/>
<feOffset/>
<feGaussianBlur stdDeviation="10.1048"/>
<feColorMatrix type="matrix" values="0 0 0 0 0.439216 0 0 0 0 0.0352941 0 0 0 0 0.72549 0 0 0 1 0"/>
<feBlend mode="normal" in2="BackgroundImageFix" result="effect1_dropShadow"/>
<feColorMatrix in="SourceAlpha" type="matrix" values="0 0 0 0 0 0 0 0 0 0 0 0 0 0 0 0 0 0 127 0" result="hardAlpha"/>
<feOffset/>
<feGaussianBlur stdDeviation="2.61017"/>
<feColorMatrix type="matrix" values="0 0 0 0 0.458824 0 0 0 0 0.0392157 0 0 0 0 0.709804 0 0 0 1 0"/>
<feBlend mode="normal" in2="effect1_dropShadow" result="effect2_dropShadow"/>
<feBlend mode="normal" in="SourceGraphic" in2="effect2_dropShadow" result="shape"/>
<feColorMatrix in="SourceAlpha" type="matrix" values="0 0 0 0 0 0 0 0 0 0 0 0 0 0 0 0 0 0 127 0" result="hardAlpha"/>
<feOffset/>
<feGaussianBlur stdDeviation="1.01048"/>
<feComposite in2="hardAlpha" operator="arithmetic" k2="-1" k3="1"/>
<feColorMatrix type="matrix" values="0 0 0 0 0.443137 0 0 0 0 0.0352941 0 0 0 0 0.721569 0 0 0 1 0"/>
<feBlend mode="normal" in2="shape" result="effect3_innerShadow"/>
<feGaussianBlur stdDeviation="0.186441" result="effect4_foregroundBlur"/>
</filter>
<filter id="filter2_d" x="24.198" y="21.198" width="38.9707" height="38.604" filterUnits="userSpaceOnUse" color-interpolation-filters="sRGB">
<feFlood flood-opacity="0" result="BackgroundImageFix"/>
<feColorMatrix in="SourceAlpha" type="matrix" values="0 0 0 0 0 0 0 0 0 0 0 0 0 0 0 0 0 0 127 0" result="hardAlpha"/>
<feOffset/>
<feGaussianBlur stdDeviation="1.90101"/>
<feComposite in2="hardAlpha" operator="out"/>
<feColorMatrix type="matrix" values="0 0 0 0 0.762162 0 0 0 0 0.533333 0 0 0 0 0.8 0 0 0 1 0"/>
<feBlend mode="normal" in2="BackgroundImageFix" result="effect1_dropShadow"/>
<feBlend mode="normal" in="SourceGraphic" in2="effect1_dropShadow" result="shape"/>
</filter>
<linearGradient id="paint0_linear" x1="29.5" y1="46" x2="62" y2="34" gradientUnits="userSpaceOnUse">
<stop stop-color="#8D0EA2"/>
<stop offset="1" stop-color="#3C01E3"/>
</linearGradient>
</defs>
</svg>
