<svg width="126" height="126" viewBox="0 0 126 126" fill="none" xmlns="http://www.w3.org/2000/svg">
    <circle cx="63" cy="62" r="60" fill="#3F21B3" fill-opacity="0.9"/>
    <g filter="url(#filter0_d)">
        <circle cx="63.0003" cy="63.0003" r="50.3226" fill="#241072"/>
    </g>
    <g filter="url(#filter1_d)">
        <circle cx="63.0006" cy="62.9997" r="40.6452" fill="url(#paint0_linear)"/>
    </g>
    <g filter="url(#filter2_d)">
        <circle cx="63.0008" cy="62.9998" r="36.7742" fill="#B9F3F7"/>
    </g>
    <circle cx="63.0009" cy="62.9999" r="32.9032" fill="url(#paint1_linear)" fill-opacity="0.7"/>
    <path d="M50.9756 54.4728C50.6909 54.1194 50.259 53.923 49.7976 53.923H40.2847C40.2062 53.923 40.1374 53.8936 40.0785 53.8445C40.0295 53.7954 40 53.7365 40 53.6678V47.2572C40 47.1884 40.0295 47.1295 40.0785 47.0804C40.1374 47.0215 40.2062 46.9921 40.2847 47.0019H50.3375C52.8703 47.0019 55.0596 48.0425 56.9052 50.114L59.3497 53.0984L54.5883 58.9003L50.9756 54.4728ZM68.5484 50.0845C70.3842 48.0327 72.5832 47.0019 75.1455 47.0019H85.1689C85.2376 46.9921 85.3063 47.0215 85.3554 47.0608C85.4045 47.1099 85.4241 47.1786 85.4143 47.2572V53.6678C85.4143 53.7365 85.3947 53.7954 85.3554 53.8445C85.3063 53.9034 85.2376 53.9328 85.1689 53.923H75.656C75.2044 53.9132 74.7725 54.1194 74.478 54.4728L67.4685 63.0039L74.5074 71.594C74.7921 71.9179 75.2142 72.1143 75.6462 72.1045H85.1591C85.2278 72.0946 85.3063 72.1339 85.3456 72.183C85.3849 72.2419 85.4143 72.3204 85.4045 72.3891V78.7998C85.4045 78.8685 85.3849 78.9274 85.3456 78.9765C85.2965 79.0354 85.2278 79.0648 85.1591 79.055H75.1455C72.5832 79.055 70.4038 78.0144 68.5778 75.943L62.7464 68.8255L56.915 75.943C55.0792 78.0144 52.8801 79.055 50.3179 79.055H40.2847C40.216 79.0648 40.1374 79.0256 40.0982 78.9765C40.0491 78.9176 40.0295 78.839 40.0393 78.7703V72.3597C40.0393 72.291 40.0589 72.2321 40.0982 72.183C40.1473 72.1241 40.216 72.0946 40.2847 72.1045H49.7976C50.2491 72.1045 50.6811 71.8983 50.9756 71.5547L57.8575 63.1512L68.5484 50.0845Z" fill="white"/>
    <defs>
        <filter id="filter0_d" x="0.677734" y="0.677734" width="124.645" height="124.645" filterUnits="userSpaceOnUse" color-interpolation-filters="sRGB">
            <feFlood flood-opacity="0" result="BackgroundImageFix"/>
            <feColorMatrix in="SourceAlpha" type="matrix" values="0 0 0 0 0 0 0 0 0 0 0 0 0 0 0 0 0 0 127 0" result="hardAlpha"/>
            <feMorphology radius="2" operator="dilate" in="SourceAlpha" result="effect1_dropShadow"/>
            <feOffset/>
            <feGaussianBlur stdDeviation="5"/>
            <feColorMatrix type="matrix" values="0 0 0 0 0 0 0 0 0 0.819608 0 0 0 0 1 0 0 0 1 0"/>
            <feBlend mode="normal" in2="BackgroundImageFix" result="effect1_dropShadow"/>
            <feBlend mode="normal" in="SourceGraphic" in2="effect1_dropShadow" result="shape"/>
        </filter>
        <filter id="filter1_d" x="17.3555" y="17.3545" width="91.2903" height="91.2903" filterUnits="userSpaceOnUse" color-interpolation-filters="sRGB">
            <feFlood flood-opacity="0" result="BackgroundImageFix"/>
            <feColorMatrix in="SourceAlpha" type="matrix" values="0 0 0 0 0 0 0 0 0 0 0 0 0 0 0 0 0 0 127 0" result="hardAlpha"/>
            <feMorphology radius="1" operator="dilate" in="SourceAlpha" result="effect1_dropShadow"/>
            <feOffset/>
            <feGaussianBlur stdDeviation="2"/>
            <feColorMatrix type="matrix" values="0 0 0 0 0 0 0 0 0 0.819608 0 0 0 0 1 0 0 0 1 0"/>
            <feBlend mode="normal" in2="BackgroundImageFix" result="effect1_dropShadow"/>
            <feBlend mode="normal" in="SourceGraphic" in2="effect1_dropShadow" result="shape"/>
        </filter>
        <filter id="filter2_d" x="21.2266" y="21.2256" width="83.5484" height="83.5484" filterUnits="userSpaceOnUse" color-interpolation-filters="sRGB">
            <feFlood flood-opacity="0" result="BackgroundImageFix"/>
            <feColorMatrix in="SourceAlpha" type="matrix" values="0 0 0 0 0 0 0 0 0 0 0 0 0 0 0 0 0 0 127 0" result="hardAlpha"/>
            <feMorphology radius="1" operator="dilate" in="SourceAlpha" result="effect1_dropShadow"/>
            <feOffset/>
            <feGaussianBlur stdDeviation="2"/>
            <feColorMatrix type="matrix" values="0 0 0 0 0 0 0 0 0 0 0 0 0 0 0 0 0 0 0.25 0"/>
            <feBlend mode="normal" in2="BackgroundImageFix" result="effect1_dropShadow"/>
            <feBlend mode="normal" in="SourceGraphic" in2="effect1_dropShadow" result="shape"/>
        </filter>
        <linearGradient id="paint0_linear" x1="95.42" y1="95.419" x2="32.5168" y2="30.0964" gradientUnits="userSpaceOnUse">
            <stop stop-color="#170659"/>
            <stop offset="1" stop-color="#00D1FF"/>
        </linearGradient>
        <linearGradient id="paint1_linear" x1="39.2912" y1="42.6773" x2="85.7428" y2="87.6773" gradientUnits="userSpaceOnUse">
            <stop stop-color="#170659"/>
            <stop offset="1" stop-color="#00D1FF"/>
        </linearGradient>
    </defs>
</svg>
