<svg width="128" height="128" viewBox="0 0 128 128" fill="none" xmlns="http://www.w3.org/2000/svg">
    <g filter="url(#filter0_d)">
        <circle cx="64" cy="64" r="60" fill="#280B1B" fill-opacity="0.9"/>
    </g>
    <g filter="url(#filter1_d)">
        <circle cx="64" cy="64" r="52" fill="#C1106E"/>
    </g>
    <g filter="url(#filter2_d)">
        <circle cx="64" cy="64" r="42" fill="url(#paint0_linear)"/>
    </g>
    <g filter="url(#filter3_d)">
        <circle cx="64" cy="64" r="38" fill="#FFBADF"/>
    </g>
    <circle cx="64" cy="64" r="34" fill="url(#paint1_linear)" fill-opacity="0.7"/>
    <path d="M56.7259 42.8486C56.1737 42.7634 56.1505 42.7517 56.4101 42.713C56.908 42.6355 58.086 42.742 58.8978 42.9339C60.7908 43.3853 62.5132 44.5381 64.3538 46.586L64.8421 47.1285L65.5396 47.0181C68.4846 46.5434 71.4819 46.9212 73.9871 48.0779C74.6768 48.3957 75.7638 49.0292 75.8994 49.1939C75.944 49.2443 76.0234 49.5795 76.0757 49.936C76.2617 51.1702 76.1687 52.1157 75.7928 52.8229C75.5875 53.2065 75.5758 53.3266 75.7134 53.656C75.7787 53.792 75.8809 53.907 76.0083 53.9879C76.1357 54.0687 76.2833 54.1121 76.4342 54.1132C77.058 54.1132 77.7284 53.1057 78.0384 51.7049L78.1624 51.1489L78.4065 51.4259C79.7473 52.9449 80.7993 55.0161 80.9795 56.4886L81.028 56.8742L80.8013 56.5254C80.4138 55.9248 80.0263 55.514 79.5264 55.1827C78.6274 54.5879 77.6761 54.3864 75.1573 54.2527C72.8827 54.1326 71.5943 53.9389 70.3194 53.5223C68.1475 52.8151 67.0528 51.8715 64.472 48.4867C63.327 46.9832 62.6178 46.152 61.9145 45.4836C60.3122 43.9607 58.739 43.1625 56.7259 42.8486Z" fill="white"/>
    <path d="M76.5499 47.3414C76.608 46.3339 76.7437 45.6693 77.0188 45.0629C77.1273 44.8226 77.23 44.625 77.2455 44.625C77.2282 44.761 77.1924 44.894 77.1389 45.0202C76.9394 45.6092 76.9064 46.4153 77.044 47.3511C77.2184 48.5407 77.3191 48.7112 78.5746 49.9957C79.1655 50.5983 79.8514 51.3578 80.0994 51.6852L80.5509 52.2781L80.0994 51.8538C79.5472 51.3365 78.2762 50.3232 77.9953 50.1798C77.8074 50.0829 77.7783 50.0849 77.662 50.1992C77.5555 50.3077 77.5322 50.4666 77.5187 51.2241C77.4954 52.4021 77.3346 53.1616 76.9452 53.9172C76.7359 54.3241 76.703 54.2389 76.8929 53.7758C77.0343 53.4309 77.0479 53.2798 77.0479 52.1386C77.0479 49.8446 76.7747 49.2944 75.1762 48.3489C74.6953 48.0698 74.2013 47.8137 73.696 47.5816C73.4463 47.4815 73.2042 47.3636 72.9714 47.229C73.0159 47.1844 74.5737 47.6378 75.1995 47.88C76.1334 48.2384 76.2864 48.2849 76.4007 48.2404C76.4763 48.2113 76.5131 47.9904 76.5499 47.3414ZM57.9364 51.2648C56.8145 49.7206 56.1209 47.3511 56.2701 45.5802L56.3166 45.0319L56.5724 45.0784C57.0529 45.1656 57.8802 45.4736 58.2677 45.71C59.3294 46.3552 59.7905 47.2057 60.2575 49.3874C60.395 50.0267 60.5752 50.7494 60.6585 50.9955C60.7903 51.3888 61.294 52.3091 61.7048 52.9078C61.9993 53.3379 61.8017 53.5414 61.1507 53.4832C60.1548 53.3922 58.8063 52.4622 57.9364 51.2648ZM75.1898 62.7639C69.945 60.652 68.0985 58.8191 68.0985 55.7269C68.0985 55.2716 68.114 54.8996 68.1315 54.8996C68.1509 54.8996 68.3543 55.0487 68.5829 55.2328C69.6466 56.0853 70.8382 56.4496 74.1339 56.9301C76.0733 57.2149 77.166 57.4435 78.1735 57.7767C81.3743 58.8385 83.3544 60.993 83.8272 63.9264C83.9628 64.7789 83.8834 66.3773 83.6605 67.2201C83.4862 67.8866 82.9495 69.0859 82.808 69.1324C82.7693 69.1441 82.7305 68.9949 82.7189 68.7876C82.6647 67.6871 82.1086 66.6137 81.1728 65.8096C80.1091 64.8971 78.6812 64.1686 75.1879 62.7639H75.1898ZM71.5085 63.6396C71.4466 63.2654 71.3618 62.8953 71.2547 62.5314L71.1191 62.1322L71.369 62.4113C71.712 62.7987 71.9852 63.2909 72.2138 63.9496C72.3901 64.4514 72.4095 64.6006 72.4075 65.4163C72.4075 66.2184 72.3862 66.3851 72.2235 66.8384C71.9972 67.5032 71.6183 68.1057 71.1172 68.5977C70.1581 69.5742 68.9278 70.1128 67.1492 70.3376C66.8392 70.3763 65.9402 70.4422 65.1477 70.4829C63.1521 70.5875 61.8404 70.8006 60.6605 71.2153C60.5541 71.2629 60.4398 71.2905 60.3234 71.2966C60.2769 71.2482 61.079 70.7696 61.7435 70.4499C62.6794 69.9985 63.6094 69.7524 65.696 69.4056C66.7268 69.2332 67.7924 69.0259 68.0617 68.9426C70.6154 68.1598 71.927 66.1409 71.5066 63.6396H71.5085Z" fill="white"/>
    <path d="M72.6529 68.5551C71.9554 67.0574 71.7965 65.6101 72.1782 64.2616C72.2189 64.1182 72.2847 64 72.3235 64C72.4546 64.0475 72.578 64.1141 72.6897 64.1976C73.0113 64.4146 73.6546 64.7789 75.3692 65.7127C77.5102 66.8811 78.7308 67.7859 79.562 68.8166C80.2886 69.7214 80.7381 70.7522 80.9551 72.0077C81.0771 72.7188 81.0054 74.4296 80.8233 75.1464C80.2479 77.4056 78.9091 79.1803 77.0026 80.2149C76.8226 80.319 76.6362 80.4116 76.4446 80.492C76.4174 80.492 76.5182 80.2343 76.6712 79.9166C77.3106 78.5758 77.3862 77.2699 76.8999 75.8168C76.6034 74.9275 75.997 73.8406 74.7744 72.0077C73.3523 69.8764 73.0036 69.3068 72.6529 68.5551ZM52.9543 76.6364C54.9015 74.9934 57.3214 73.827 59.5282 73.4686C60.4776 73.3136 62.0625 73.3756 62.9421 73.6003C64.3526 73.9607 65.6159 74.7706 66.2727 75.7335C66.9121 76.6751 67.1891 77.4966 67.4739 79.3217C67.5902 80.0425 67.7122 80.7652 67.7491 80.9299C67.9622 81.8754 68.3826 82.6329 68.9019 83.0127C69.7253 83.6152 71.1455 83.6521 72.5405 83.1096C72.6863 83.0427 72.8399 82.9945 72.9977 82.9662C73.0481 83.0166 72.3467 83.4874 71.8507 83.7354C71.2655 84.0486 70.6099 84.2073 69.9462 84.1965C68.6674 84.1965 67.6057 83.5474 66.7202 82.2203C66.5459 81.9587 66.1545 81.1779 65.8484 80.4823C64.9145 78.3511 64.4534 77.7001 63.3684 76.989C62.4209 76.369 61.2022 76.2586 60.2858 76.7081C59.0807 77.299 58.7455 78.8393 59.6077 79.8139C59.9506 80.2014 60.59 80.5366 61.1131 80.6005C61.3413 80.6307 61.5734 80.6116 61.7935 80.5445C62.0137 80.4773 62.2169 80.3637 62.3894 80.2112C62.5619 80.0588 62.6996 79.871 62.7933 79.6608C62.887 79.4505 62.9344 79.2226 62.9324 78.9924C62.9324 78.3491 62.6844 77.9849 62.0644 77.7039C61.2177 77.3222 60.3071 77.7679 60.311 78.5642C60.3129 78.9032 60.4602 79.1164 60.8012 79.2714C61.0201 79.3682 61.024 79.3779 60.8457 79.3411C60.0688 79.1784 59.8867 78.2426 60.5125 77.6206C61.2623 76.8727 62.8142 77.2021 63.3471 78.2212C63.5718 78.6494 63.597 79.5039 63.4013 80.0193C62.9654 81.1721 61.6905 81.7766 60.3982 81.4472C59.5186 81.2224 59.1601 80.9802 58.1003 79.8875C56.2577 77.9887 55.5428 77.6206 52.8846 77.206L52.375 77.1266L52.9563 76.6364H52.9543Z" fill="white"/>
    <path fill-rule="evenodd" clip-rule="evenodd" d="M44.625 39.1302L44.811 39.3569C51.9952 48.1532 55.7075 52.7179 55.9439 53.0434C56.3314 53.5821 56.1861 54.0645 55.5196 54.4443C55.1495 54.6554 54.3861 54.8686 54.0064 54.8686C53.5743 54.8686 53.088 54.6613 52.7334 54.3261C52.4835 54.0877 51.4741 52.5804 49.1432 48.9631C48.0518 47.2534 46.9461 45.5529 45.8262 43.8616C45.7313 43.7725 45.7332 43.7744 48.9611 49.5501C50.9878 53.1771 51.6736 54.4578 51.6736 54.6303C51.6736 54.979 51.5768 55.1611 51.1466 55.6416C50.4298 56.4418 50.1101 57.3408 49.8776 59.2008C49.6179 61.2875 48.8894 62.76 46.8667 65.2807C45.6848 66.7571 45.4911 67.0283 45.1907 67.6231C44.8149 68.371 44.7122 68.7914 44.6696 69.7369C44.625 70.7367 44.7122 71.3838 45.0183 72.339C45.2857 73.176 45.5647 73.7301 46.2777 74.8345C46.8938 75.7897 47.2484 76.4988 47.2484 76.7759C47.2484 76.9967 47.291 76.9967 48.2462 76.7817C50.5305 76.2663 52.3847 75.3576 53.429 74.2455C54.0742 73.5577 54.2253 73.1779 54.2311 72.2344C54.2331 71.6183 54.2117 71.4884 54.0451 71.1339C53.7739 70.5565 53.2798 70.076 52.1909 69.332C50.763 68.3555 50.1546 67.5689 49.9861 66.4897C49.8466 65.6043 50.0074 64.9784 50.7979 63.3238C51.6136 61.6111 51.817 60.8826 51.9546 59.1562C52.0417 58.0403 52.1638 57.6004 52.4854 57.2478C52.8187 56.8797 53.1209 56.7537 53.9483 56.6414C55.2968 56.4573 56.1551 56.1086 56.8603 55.4595C57.4726 54.8937 57.7283 54.3493 57.7671 53.5317L57.7981 52.9117L57.4551 52.5126C56.963 51.9391 52.8923 47.4479 45.2411 39.0353L45.0357 38.8125L44.625 39.1322V39.1302ZM47.9459 70.8704C48.081 70.631 48.1214 70.3497 48.059 70.082C47.9965 69.8143 47.8359 69.5798 47.6087 69.425C47.167 69.1305 46.4792 69.27 46.4792 69.6536C46.4792 69.7699 46.5431 69.8551 46.6884 69.9307C46.9345 70.0566 46.9519 70.2 46.7601 70.4887C46.5644 70.7832 46.5799 71.0428 46.8047 71.2191C47.1651 71.502 47.6766 71.3451 47.9478 70.8704H47.9459ZM58.6486 56.9669C58.0151 57.1606 57.4009 57.8329 57.2091 58.5363C57.0928 58.9644 57.1587 59.7181 57.3331 59.9506C57.614 60.3265 57.8872 60.4253 58.6234 60.4195C60.0649 60.4098 61.3166 59.7917 61.4638 59.0187C61.5839 58.3851 61.0317 57.5074 60.2742 57.1199C59.8828 56.9223 59.0516 56.8429 58.6486 56.9669ZM60.3342 58.2844C60.5571 57.9686 60.4582 57.6256 60.0824 57.397C59.3616 56.9572 58.2727 57.3195 58.2727 58.0015C58.2727 58.3386 58.8404 58.7087 59.3597 58.7087C59.7084 58.7087 60.1812 58.5014 60.3342 58.2844Z" fill="white"/>
    <defs>
        <filter id="filter0_d" x="0" y="0" width="128" height="128" filterUnits="userSpaceOnUse" color-interpolation-filters="sRGB">
            <feFlood flood-opacity="0" result="BackgroundImageFix"/>
            <feColorMatrix in="SourceAlpha" type="matrix" values="0 0 0 0 0 0 0 0 0 0 0 0 0 0 0 0 0 0 127 0" result="hardAlpha"/>
            <feOffset/>
            <feGaussianBlur stdDeviation="2"/>
            <feColorMatrix type="matrix" values="0 0 0 0 0 0 0 0 0 0 0 0 0 0 0 0 0 0 0.25 0"/>
            <feBlend mode="normal" in2="BackgroundImageFix" result="effect1_dropShadow"/>
            <feBlend mode="normal" in="SourceGraphic" in2="effect1_dropShadow" result="shape"/>
        </filter>
        <filter id="filter1_d" x="0" y="0" width="128" height="128" filterUnits="userSpaceOnUse" color-interpolation-filters="sRGB">
            <feFlood flood-opacity="0" result="BackgroundImageFix"/>
            <feColorMatrix in="SourceAlpha" type="matrix" values="0 0 0 0 0 0 0 0 0 0 0 0 0 0 0 0 0 0 127 0" result="hardAlpha"/>
            <feMorphology radius="2" operator="dilate" in="SourceAlpha" result="effect1_dropShadow"/>
            <feOffset/>
            <feGaussianBlur stdDeviation="5"/>
            <feColorMatrix type="matrix" values="0 0 0 0 0.95 0 0 0 0 0.182083 0 0 0 0 0.589413 0 0 0 1 0"/>
            <feBlend mode="normal" in2="BackgroundImageFix" result="effect1_dropShadow"/>
            <feBlend mode="normal" in="SourceGraphic" in2="effect1_dropShadow" result="shape"/>
        </filter>
        <filter id="filter2_d" x="17" y="17" width="94" height="94" filterUnits="userSpaceOnUse" color-interpolation-filters="sRGB">
            <feFlood flood-opacity="0" result="BackgroundImageFix"/>
            <feColorMatrix in="SourceAlpha" type="matrix" values="0 0 0 0 0 0 0 0 0 0 0 0 0 0 0 0 0 0 127 0" result="hardAlpha"/>
            <feMorphology radius="1" operator="dilate" in="SourceAlpha" result="effect1_dropShadow"/>
            <feOffset/>
            <feGaussianBlur stdDeviation="2"/>
            <feColorMatrix type="matrix" values="0 0 0 0 0.804167 0 0 0 0 0.113924 0 0 0 0 0.480052 0 0 0 1 0"/>
            <feBlend mode="normal" in2="BackgroundImageFix" result="effect1_dropShadow"/>
            <feBlend mode="normal" in="SourceGraphic" in2="effect1_dropShadow" result="shape"/>
        </filter>
        <filter id="filter3_d" x="22" y="22" width="84" height="84" filterUnits="userSpaceOnUse" color-interpolation-filters="sRGB">
            <feFlood flood-opacity="0" result="BackgroundImageFix"/>
            <feColorMatrix in="SourceAlpha" type="matrix" values="0 0 0 0 0 0 0 0 0 0 0 0 0 0 0 0 0 0 127 0" result="hardAlpha"/>
            <feOffset/>
            <feGaussianBlur stdDeviation="2"/>
            <feColorMatrix type="matrix" values="0 0 0 0 0 0 0 0 0 0 0 0 0 0 0 0 0 0 0.72 0"/>
            <feBlend mode="normal" in2="BackgroundImageFix" result="effect1_dropShadow"/>
            <feBlend mode="normal" in="SourceGraphic" in2="effect1_dropShadow" result="shape"/>
        </filter>
        <linearGradient id="paint0_linear" x1="34" y1="26.5" x2="91.5" y2="109.5" gradientUnits="userSpaceOnUse">
            <stop stop-color="#FF2498"/>
            <stop offset="1" stop-color="#8B034C"/>
        </linearGradient>
        <linearGradient id="paint1_linear" x1="40.2" y1="38.2571" x2="83.9143" y2="85.8571" gradientUnits="userSpaceOnUse">
            <stop stop-color="#C41070"/>
            <stop offset="1" stop-color="#FF8DC2"/>
            <stop offset="1" stop-color="#E289B3"/>
        </linearGradient>
    </defs>
</svg>
