<svg width="127" height="127" viewBox="0 0 127 127" fill="none" xmlns="http://www.w3.org/2000/svg">
    <circle cx="63" cy="63" r="60" fill="#1D3D59" fill-opacity="0.9"/>
    <g filter="url(#filter0_d)">
        <circle cx="63.3226" cy="63.3226" r="50.3226" fill="#249983"/>
    </g>
    <g filter="url(#filter1_d)">
        <circle cx="63" cy="63" r="42" fill="url(#paint0_linear)"/>
    </g>
    <g filter="url(#filter2_d)">
        <circle cx="63" cy="63" r="38" fill="#C6F0E9"/>
    </g>
    <circle cx="63" cy="63" r="34" fill="url(#paint1_linear)" fill-opacity="0.7"/>
    <path d="M65.2 61.4962V48.2911C67.7605 49.2105 69.6 51.6863 69.6 54.59C69.6 55.8201 70.585 56.8173 71.8 56.8173C73.015 56.8173 74 55.8201 74 54.59C74 49.2119 70.2148 44.7121 65.2 43.6774V41.2273C65.2 39.9973 64.215 39 63 39C61.785 39 60.8 39.9973 60.8 41.2273V43.6774C55.7852 44.7121 52 49.2119 52 54.59C52 59.9681 55.7852 64.4678 60.8 65.5026V78.7076C58.2393 77.7881 56.4 75.3124 56.4 72.4087C56.4 71.1786 55.415 70.1813 54.2 70.1813C52.985 70.1813 52 71.1786 52 72.4087C52 77.7868 55.7852 82.2866 60.8 83.3213V85.7727C60.8 87.0027 61.785 88 63 88C64.215 88 65.2 87.0027 65.2 85.7727V83.3213C70.2148 82.2866 74 77.7868 74 72.4087C74 67.0305 70.2147 62.5309 65.2 61.4962ZM56.4 54.59C56.4 51.6863 58.2393 49.2105 60.8 48.2911V60.8889C58.2393 59.9695 56.4 57.4937 56.4 54.59ZM65.2 78.7076V66.1098C67.7605 67.0292 69.6 69.505 69.6 72.4087C69.6 75.3124 67.7605 77.7881 65.2 78.7076Z" fill="white"/>
    <defs>
        <filter id="filter0_d" x="0" y="0" width="126.645" height="126.645" filterUnits="userSpaceOnUse" color-interpolation-filters="sRGB">
            <feFlood flood-opacity="0" result="BackgroundImageFix"/>
            <feColorMatrix in="SourceAlpha" type="matrix" values="0 0 0 0 0 0 0 0 0 0 0 0 0 0 0 0 0 0 127 0" result="hardAlpha"/>
            <feMorphology radius="3" operator="dilate" in="SourceAlpha" result="effect1_dropShadow"/>
            <feOffset/>
            <feGaussianBlur stdDeviation="5"/>
            <feColorMatrix type="matrix" values="0 0 0 0 0.197691 0 0 0 0 0.804167 0 0 0 0 0.692773 0 0 0 1 0"/>
            <feBlend mode="normal" in2="BackgroundImageFix" result="effect1_dropShadow"/>
            <feBlend mode="normal" in="SourceGraphic" in2="effect1_dropShadow" result="shape"/>
        </filter>
        <filter id="filter1_d" x="16" y="16" width="94" height="94" filterUnits="userSpaceOnUse" color-interpolation-filters="sRGB">
            <feFlood flood-opacity="0" result="BackgroundImageFix"/>
            <feColorMatrix in="SourceAlpha" type="matrix" values="0 0 0 0 0 0 0 0 0 0 0 0 0 0 0 0 0 0 127 0" result="hardAlpha"/>
            <feMorphology radius="1" operator="dilate" in="SourceAlpha" result="effect1_dropShadow"/>
            <feOffset/>
            <feGaussianBlur stdDeviation="2"/>
            <feColorMatrix type="matrix" values="0 0 0 0 0.322917 0 0 0 0 0.833333 0 0 0 0 0.739583 0 0 0 1 0"/>
            <feBlend mode="normal" in2="BackgroundImageFix" result="effect1_dropShadow"/>
            <feBlend mode="normal" in="SourceGraphic" in2="effect1_dropShadow" result="shape"/>
        </filter>
        <filter id="filter2_d" x="21" y="21" width="84" height="84" filterUnits="userSpaceOnUse" color-interpolation-filters="sRGB">
            <feFlood flood-opacity="0" result="BackgroundImageFix"/>
            <feColorMatrix in="SourceAlpha" type="matrix" values="0 0 0 0 0 0 0 0 0 0 0 0 0 0 0 0 0 0 127 0" result="hardAlpha"/>
            <feOffset/>
            <feGaussianBlur stdDeviation="2"/>
            <feColorMatrix type="matrix" values="0 0 0 0 0 0 0 0 0 0 0 0 0 0 0 0 0 0 0.25 0"/>
            <feBlend mode="normal" in2="BackgroundImageFix" result="effect1_dropShadow"/>
            <feBlend mode="normal" in="SourceGraphic" in2="effect1_dropShadow" result="shape"/>
        </filter>
        <linearGradient id="paint0_linear" x1="93" y1="96" x2="32.5" y2="26.5" gradientUnits="userSpaceOnUse">
            <stop stop-color="#21B28F"/>
            <stop offset="1" stop-color="#5CF0B7"/>
        </linearGradient>
        <linearGradient id="paint1_linear" x1="42.5" y1="38" x2="83" y2="87.5" gradientUnits="userSpaceOnUse">
            <stop/>
            <stop offset="1" stop-color="#61C1B0"/>
        </linearGradient>
    </defs>
</svg>
