<svg width="86" height="86" viewBox="0 0 86 86" fill="none" xmlns="http://www.w3.org/2000/svg">
<g filter="url(#filter0_biiiiii)">
<path d="M68 43C68 56.8071 56.8071 68 43 68C29.1929 68 18 56.8071 18 43C18 29.1929 29.1929 18 43 18C56.8071 18 68 29.1929 68 43Z" fill="#C4C4C4" fill-opacity="0.01"/>
</g>
<g filter="url(#filter1_ddif)">
<path d="M64.3369 48.3318C61.4004 60.1107 49.4703 67.2791 37.69 64.3418C25.9147 61.4053 18.7463 49.4744 21.6841 37.6965C24.6193 25.9163 36.5494 18.7474 48.3261 21.6839C60.1055 24.6205 67.2734 36.5526 64.3366 48.332L64.3368 48.3318H64.3369Z" fill="#F7931A"/>
</g>
<g filter="url(#filter2_d)">
<path fill-rule="evenodd" clip-rule="evenodd" d="M52.7051 39.8804C53.1427 36.9544 50.9151 35.3815 47.8689 34.3323L48.8571 30.3688L46.4444 29.7676L45.4824 33.6268C44.8482 33.4686 44.1968 33.3195 43.5494 33.1717L44.5183 29.2871L42.1071 28.6859L41.1184 32.6481C40.5935 32.5286 40.078 32.4105 39.5778 32.2861L39.5806 32.2736L36.2534 31.4427L35.6116 34.0197C35.6116 34.0197 37.4016 34.43 37.3639 34.4553C38.3409 34.6991 38.5176 35.3459 38.4883 35.8585L37.3626 40.3739C37.4299 40.391 37.5172 40.4157 37.6134 40.4544L37.5434 40.4369C37.4839 40.422 37.422 40.4065 37.3584 40.3913L35.7806 46.7167C35.6612 47.0135 35.3582 47.459 34.6751 47.2898C34.6993 47.3249 32.9215 46.8522 32.9215 46.8522L31.7236 49.614L34.8634 50.3967C35.2072 50.4829 35.547 50.5715 35.8834 50.6592L35.8834 50.6592C36.1184 50.7204 36.3517 50.7813 36.5836 50.8405L35.5852 54.8495L37.9951 55.4507L38.9838 51.4843C39.6422 51.663 40.2811 51.8279 40.9066 51.9833L39.9212 55.931L42.334 56.5322L43.3323 52.5307C47.4465 53.3093 50.54 52.9954 51.8421 49.2741C52.8914 46.2781 51.7899 44.55 49.6254 43.423C51.2019 43.0595 52.3894 42.0226 52.706 39.8807L52.7052 39.8802L52.7051 39.8804ZM47.1926 47.6103C46.5085 50.3591 42.2059 49.2227 40.2373 48.7027L40.2371 48.7026C40.0601 48.6559 39.902 48.6141 39.767 48.5806L41.0919 43.2694C41.2564 43.3105 41.4575 43.3556 41.6852 43.4067C43.7215 43.8637 47.8935 44.8 47.1927 47.6103H47.1926ZM42.0936 40.9416C43.7349 41.3797 47.3152 42.3352 47.9388 39.8369H47.939C48.5757 37.2817 45.0962 36.5114 43.3968 36.1351C43.2056 36.0928 43.037 36.0555 42.8993 36.0211L41.6981 40.8381C41.8115 40.8663 41.9446 40.9019 42.0936 40.9416Z" fill="white"/>
</g>
<defs>
<filter id="filter0_biiiiii" x="8.95736" y="8.95736" width="68.0853" height="68.0853" filterUnits="userSpaceOnUse" color-interpolation-filters="sRGB">
<feFlood flood-opacity="0" result="BackgroundImageFix"/>
<feGaussianBlur in="BackgroundImage" stdDeviation="4.52132"/>
<feComposite in2="SourceAlpha" operator="in" result="effect1_backgroundBlur"/>
<feBlend mode="normal" in="SourceGraphic" in2="effect1_backgroundBlur" result="shape"/>
<feColorMatrix in="SourceAlpha" type="matrix" values="0 0 0 0 0 0 0 0 0 0 0 0 0 0 0 0 0 0 127 0" result="hardAlpha"/>
<feOffset dy="0.0474222"/>
<feGaussianBlur stdDeviation="0.948444"/>
<feComposite in2="hardAlpha" operator="arithmetic" k2="-1" k3="1"/>
<feColorMatrix type="matrix" values="0 0 0 0 0.888917 0 0 0 0 0.870833 0 0 0 0 1 0 0 0 0.2 0"/>
<feBlend mode="normal" in2="shape" result="effect2_innerShadow"/>
<feColorMatrix in="SourceAlpha" type="matrix" values="0 0 0 0 0 0 0 0 0 0 0 0 0 0 0 0 0 0 127 0" result="hardAlpha"/>
<feOffset dy="0.189689"/>
<feGaussianBlur stdDeviation="0.4268"/>
<feComposite in2="hardAlpha" operator="arithmetic" k2="-1" k3="1"/>
<feColorMatrix type="matrix" values="0 0 0 0 0.60543 0 0 0 0 0.574062 0 0 0 0 0.825 0 0 0 0.3 0"/>
<feBlend mode="normal" in2="effect2_innerShadow" result="effect3_innerShadow"/>
<feColorMatrix in="SourceAlpha" type="matrix" values="0 0 0 0 0 0 0 0 0 0 0 0 0 0 0 0 0 0 127 0" result="hardAlpha"/>
<feMorphology radius="2.27627" operator="dilate" in="SourceAlpha" result="effect4_innerShadow"/>
<feOffset dy="4.64738"/>
<feGaussianBlur stdDeviation="2.37111"/>
<feComposite in2="hardAlpha" operator="arithmetic" k2="-1" k3="1"/>
<feColorMatrix type="matrix" values="0 0 0 0 0.792093 0 0 0 0 0.675 0 0 0 0 1 0 0 0 0.3 0"/>
<feBlend mode="normal" in2="effect3_innerShadow" result="effect4_innerShadow"/>
<feColorMatrix in="SourceAlpha" type="matrix" values="0 0 0 0 0 0 0 0 0 0 0 0 0 0 0 0 0 0 127 0" result="hardAlpha"/>
<feMorphology radius="3.03502" operator="dilate" in="SourceAlpha" result="effect5_innerShadow"/>
<feOffset dy="-3.88862"/>
<feGaussianBlur stdDeviation="1.61236"/>
<feComposite in2="hardAlpha" operator="arithmetic" k2="-1" k3="1"/>
<feColorMatrix type="matrix" values="0 0 0 0 0.374841 0 0 0 0 0.266806 0 0 0 0 0.566667 0 0 0 0.3 0"/>
<feBlend mode="normal" in2="effect4_innerShadow" result="effect5_innerShadow"/>
<feColorMatrix in="SourceAlpha" type="matrix" values="0 0 0 0 0 0 0 0 0 0 0 0 0 0 0 0 0 0 127 0" result="hardAlpha"/>
<feMorphology radius="0.189689" operator="dilate" in="SourceAlpha" result="effect6_innerShadow"/>
<feOffset dy="0.331956"/>
<feGaussianBlur stdDeviation="0.260822"/>
<feComposite in2="hardAlpha" operator="arithmetic" k2="-1" k3="1"/>
<feColorMatrix type="matrix" values="0 0 0 0 1 0 0 0 0 1 0 0 0 0 1 0 0 0 1 0"/>
<feBlend mode="normal" in2="effect5_innerShadow" result="effect6_innerShadow"/>
<feColorMatrix in="SourceAlpha" type="matrix" values="0 0 0 0 0 0 0 0 0 0 0 0 0 0 0 0 0 0 127 0" result="hardAlpha"/>
<feMorphology radius="1.7072" operator="dilate" in="SourceAlpha" result="effect7_innerShadow"/>
<feOffset dy="1.84947"/>
<feGaussianBlur stdDeviation="1.32782"/>
<feComposite in2="hardAlpha" operator="arithmetic" k2="-1" k3="1"/>
<feColorMatrix type="matrix" values="0 0 0 0 1 0 0 0 0 1 0 0 0 0 1 0 0 0 0.5 0"/>
<feBlend mode="normal" in2="effect6_innerShadow" result="effect7_innerShadow"/>
</filter>
<filter id="filter1_ddif" x="0.816032" y="0.816399" width="84.3883" height="84.3932" filterUnits="userSpaceOnUse" color-interpolation-filters="sRGB">
<feFlood flood-opacity="0" result="BackgroundImageFix"/>
<feColorMatrix in="SourceAlpha" type="matrix" values="0 0 0 0 0 0 0 0 0 0 0 0 0 0 0 0 0 0 127 0" result="hardAlpha"/>
<feOffset/>
<feGaussianBlur stdDeviation="10.1048"/>
<feColorMatrix type="matrix" values="0 0 0 0 1 0 0 0 0 0.773804 0 0 0 0 0.192157 0 0 0 0.5 0"/>
<feBlend mode="normal" in2="BackgroundImageFix" result="effect1_dropShadow"/>
<feColorMatrix in="SourceAlpha" type="matrix" values="0 0 0 0 0 0 0 0 0 0 0 0 0 0 0 0 0 0 127 0" result="hardAlpha"/>
<feOffset/>
<feGaussianBlur stdDeviation="2.61017"/>
<feColorMatrix type="matrix" values="0 0 0 0 1 0 0 0 0 0.676667 0 0 0 0 0.191667 0 0 0 0.7 0"/>
<feBlend mode="normal" in2="effect1_dropShadow" result="effect2_dropShadow"/>
<feBlend mode="normal" in="SourceGraphic" in2="effect2_dropShadow" result="shape"/>
<feColorMatrix in="SourceAlpha" type="matrix" values="0 0 0 0 0 0 0 0 0 0 0 0 0 0 0 0 0 0 127 0" result="hardAlpha"/>
<feOffset/>
<feGaussianBlur stdDeviation="1.01048"/>
<feComposite in2="hardAlpha" operator="arithmetic" k2="-1" k3="1"/>
<feColorMatrix type="matrix" values="0 0 0 0 1 0 0 0 0 0.676863 0 0 0 0 0.192157 0 0 0 0.5 0"/>
<feBlend mode="normal" in2="shape" result="effect3_innerShadow"/>
<feGaussianBlur stdDeviation="0.186441" result="effect4_foregroundBlur"/>
</filter>
<filter id="filter2_d" x="27.7236" y="24.6859" width="29.0364" height="35.8463" filterUnits="userSpaceOnUse" color-interpolation-filters="sRGB">
<feFlood flood-opacity="0" result="BackgroundImageFix"/>
<feColorMatrix in="SourceAlpha" type="matrix" values="0 0 0 0 0 0 0 0 0 0 0 0 0 0 0 0 0 0 127 0" result="hardAlpha"/>
<feOffset/>
<feGaussianBlur stdDeviation="2"/>
<feComposite in2="hardAlpha" operator="out"/>
<feColorMatrix type="matrix" values="0 0 0 0 1 0 0 0 0 1 0 0 0 0 1 0 0 0 0.25 0"/>
<feBlend mode="normal" in2="BackgroundImageFix" result="effect1_dropShadow"/>
<feBlend mode="normal" in="SourceGraphic" in2="effect1_dropShadow" result="shape"/>
</filter>
</defs>
</svg>
