<svg width="141" height="141" viewBox="0 0 141 141" fill="none" xmlns="http://www.w3.org/2000/svg">
<path d="M68.2766 0.255645C67.8107 -0.0754171 67.1873 -0.0849334 66.7077 0.227096C43.7701 15.1609 27.7025 34.8849 14.8886 54.0485C18.2414 51.2083 22.9549 49.058 26.8172 47.0546C26.9908 46.9548 26.9908 46.74 26.8172 46.6407C25.8229 46.0603 24.6362 45.882 23.8831 45.83C23.6745 45.815 23.6163 45.5336 23.8007 45.4334C28.6242 42.832 34.9985 42.0309 37.6854 41.9384V41.9363C37.8895 41.9334 37.8471 41.7921 37.8117 41.7196C37.7908 41.6849 37.7728 41.6514 37.753 41.6179C36.7532 40.0102 35.1779 38.8382 34.2991 38.2698C34.1273 38.157 34.2013 37.8914 34.4039 37.8835C37.7257 37.7569 45.6647 36.0185 51.5187 37.1338C51.7411 37.1752 51.8717 36.9408 51.7756 36.7334C51.197 35.4565 50.1911 34.3241 49.5631 33.8788C49.4113 33.7739 49.465 33.5322 49.6464 33.499C59.5427 31.7791 70.8822 35.5737 70.8822 35.5737C72.0449 35.8545 73.7616 34.8811 74.6357 33.6564L78.5614 28.153C78.701 27.7022 79.3292 27.7042 79.4669 28.157C81.3893 34.6035 84.9297 40.4315 89.7394 45.0701L110.683 66.0752C111.34 66.735 111.358 67.8098 110.718 68.4905L104.439 75.1562C103.509 76.1676 102.05 76.4634 100.811 75.8965L89.8135 72.7772C89.4372 72.6926 89.0606 72.605 88.685 72.5178L77.0459 70.4219C74.4264 69.9495 72.0359 68.6021 70.2545 66.5943L67.7125 63.725C67.2184 63.1665 66.3724 63.1213 65.8211 63.6207L55.242 73.243C50.8623 77.1966 48.8333 78.9268 44.718 81.8561L37.2691 86.3223C44.6835 83.4329 62.5559 78.4424 76.1793 80.64C76.5634 80.6996 76.8073 81.0703 76.7234 81.4581C75.0178 89.3961 68.4697 102.807 61.876 112.355C61.4344 112.996 60.8584 113.522 60.1829 113.894C57.3 115.478 49.0191 120.032 46.0436 121.669C45.6337 121.894 45.1599 121.514 45.2783 121.055L47.8488 111.204C48.0909 110.274 48.7613 109.521 49.6461 109.178L54.5124 107.293C55.4731 106.923 56.2593 106.195 56.7046 105.256C57.953 102.617 59.156 98.7593 59.9184 94.7035C60.0081 94.2277 59.62 93.797 59.1462 93.8546C47.0493 95.321 26.5701 101.826 17.3349 109.201C10.7767 114.692 5.47235 119.559 0.311977 126.78C-0.325239 127.672 0.0545267 128.94 1.07989 129.301C48.9047 146.073 98.8818 145.223 140.062 124.082C140.633 123.791 141.002 123.186 141 122.538C140.85 74.8807 105.696 27.0286 68.2766 0.255645Z" fill="url(#paint0_linear_1128_10)"/>
<defs>
<linearGradient id="paint0_linear_1128_10" x1="140.988" y1="-19.8082" x2="-38.4512" y2="140.988" gradientUnits="userSpaceOnUse">
<stop stop-color="#F82EF8"/>
<stop offset="1" stop-color="#9E54FD"/>
</linearGradient>
</defs>
</svg>
