<svg width="141" height="140" viewBox="0 0 141 140" fill="none" xmlns="http://www.w3.org/2000/svg">
<path d="M68.2766 0.253832C67.8107 -0.0748822 67.1873 -0.084331 66.7077 0.225486C43.7701 15.0534 27.7025 34.6375 14.8886 53.6652C18.2414 50.8451 22.9549 48.7101 26.8172 46.7209C26.9908 46.6218 26.9908 46.4085 26.8172 46.31C25.8229 45.7336 24.6362 45.5566 23.8831 45.505C23.6745 45.4901 23.6163 45.2107 23.8007 45.1112C28.6242 42.5282 34.9985 41.7328 37.6854 41.641V41.6389C37.8895 41.636 37.8471 41.4957 37.8117 41.4237C37.7908 41.3893 37.7728 41.356 37.753 41.3228C36.7532 39.7265 35.1779 38.5627 34.2991 37.9983C34.1273 37.8863 34.2013 37.6227 34.4039 37.6148C37.7257 37.4891 45.6647 35.763 51.5187 36.8705C51.7411 36.9116 51.8717 36.6788 51.7756 36.4729C51.197 35.205 50.1911 34.0807 49.5631 33.6385C49.4113 33.5344 49.465 33.2943 49.6464 33.2614C59.5427 31.5537 70.8822 35.3214 70.8822 35.3214C72.0449 35.6003 73.7616 34.6337 74.6357 33.4177L78.5614 27.9533C78.701 27.5058 79.3292 27.5078 79.4669 27.9573C81.3893 34.358 84.9297 40.1447 89.7394 44.7504L110.683 65.6066C111.34 66.2617 111.358 67.3289 110.718 68.0047L104.439 74.6232C103.509 75.6274 102.05 75.9211 100.811 75.3582L89.8134 72.261C89.4372 72.177 89.0607 72.0901 88.685 72.0035L77.0459 69.9224C74.4264 69.4534 72.0359 68.1156 70.2545 66.122L67.7125 63.273C67.2184 62.7186 66.3724 62.6736 65.8211 63.1695L55.242 72.7236C50.8623 76.6491 48.8333 78.367 44.718 81.2755L37.2691 85.71C44.6835 82.8412 62.5559 77.8861 76.1793 80.068C76.5634 80.1273 76.8073 80.4953 76.7234 80.8803C75.0178 88.7621 68.4697 102.078 61.876 111.558C61.4344 112.194 60.8584 112.717 60.1829 113.086C57.3 114.659 49.0191 119.181 46.0436 120.806C45.6337 121.029 45.1599 120.652 45.2783 120.196L47.8488 110.416C48.0909 109.492 48.7613 108.744 49.6461 108.404L54.5124 106.532C55.4731 106.165 56.2593 105.442 56.7046 104.509C57.953 101.889 59.156 98.0589 59.9184 94.0319C60.0081 93.5594 59.62 93.1318 59.1462 93.189C47.0493 94.645 26.5701 101.104 17.3349 108.427C10.7767 113.878 5.47235 118.711 0.311977 125.881C-0.325239 126.767 0.0545267 128.026 1.07989 128.384C48.9047 145.037 98.8818 144.193 140.062 123.202C140.633 122.913 141.002 122.313 141 121.669C140.85 74.3496 105.696 26.8369 68.2766 0.253832Z" fill="url(#paint0_linear_1128_6)"/>
<defs>
<linearGradient id="paint0_linear_1128_6" x1="141" y1="8" x2="-19" y2="148.5" gradientUnits="userSpaceOnUse">
<stop stop-color="#D1770E"/>
<stop offset="1" stop-color="#43290A"/>
</linearGradient>
</defs>
</svg>
