<svg width="160" height="31" viewBox="0 0 160 31" fill="none" xmlns="http://www.w3.org/2000/svg">
<path d="M24.736 5.16016H6.49097C6.03502 5.16016 5.66541 5.52977 5.66541 5.98572V23.3226C5.66541 23.7786 6.03502 24.1482 6.49097 24.1482H24.736C25.1919 24.1482 25.5615 23.7786 25.5615 23.3226V5.98572C25.5615 5.52977 25.1919 5.16016 24.736 5.16016Z" fill="white"/>
<path fill-rule="evenodd" clip-rule="evenodd" d="M31 15.5C31 24.0605 24.0605 31 15.5 31C6.93958 31 0 24.0605 0 15.5C0 6.93958 6.93958 0 15.5 0C24.0605 0 31 6.93958 31 15.5ZM11.1077 21.6682H8.09963C7.46753 21.6682 7.1553 21.6682 6.96493 21.5464C6.7593 21.4131 6.63365 21.1923 6.61842 20.9485C6.60698 20.724 6.76312 20.4497 7.07535 19.9014L14.5028 6.80958C14.8188 6.25364 14.9787 5.97567 15.1805 5.87287C15.3976 5.76245 15.6565 5.76245 15.8735 5.87287C16.0754 5.97567 16.2353 6.25364 16.5513 6.80958L18.0782 9.475L18.086 9.4886C18.4274 10.085 18.6005 10.3875 18.6761 10.7049C18.7598 11.0514 18.7598 11.4169 18.6761 11.7634C18.5999 12.0833 18.4286 12.3879 18.082 12.9934L14.1806 19.89L14.1705 19.9077C13.8269 20.509 13.6528 20.8138 13.4114 21.0437C13.1487 21.2951 12.8327 21.4777 12.4861 21.5807C12.1701 21.6682 11.816 21.6682 11.1077 21.6682ZM18.7042 21.6682H23.0145C23.6504 21.6682 23.9703 21.6682 24.1608 21.5427C24.3664 21.4094 24.4958 21.1846 24.5073 20.9411C24.5183 20.7238 24.3655 20.4602 24.0663 19.9438C24.056 19.9262 24.0456 19.9083 24.0351 19.8901L21.8761 16.1966L21.8515 16.155C21.5481 15.6419 21.395 15.3829 21.1983 15.2827C20.9813 15.1723 20.726 15.1723 20.5091 15.2827C20.3112 15.3855 20.1512 15.6559 19.835 16.2004L17.6837 19.8939L17.6764 19.9066C17.3614 20.4502 17.2041 20.7219 17.2154 20.9448C17.2306 21.1886 17.3563 21.4131 17.5619 21.5464C17.7485 21.6682 18.0683 21.6682 18.7042 21.6682Z" fill="#E84142"/>
<path d="M42.9206 10.2876H44.662L49.5346 21.5983H47.2341L46.1797 19.0101H41.2751L40.2526 21.5983H38L42.9206 10.2876ZM45.4767 17.2853L43.7354 12.6837L41.962 17.2853H45.4767Z" fill="#E84142"/>
<path d="M51.6938 10.2876H54.0103L57.0937 18.8349L60.2729 10.2876H62.4456L57.8765 21.5983H56.1351L51.6938 10.2876Z" fill="#E84142"/>
<path d="M69.6398 10.2876H71.3811L76.2538 21.5983H73.9532L72.8988 19.0101H67.9942L66.9718 21.5983H64.7191L69.6398 10.2876ZM72.1959 17.2853L70.4545 12.6837L68.6812 17.2853H72.1959Z" fill="#E84142"/>
<path d="M80.7059 10.2876H82.7189V19.7771H87.5276V21.5983H80.7059V10.2876Z" fill="#E84142"/>
<path d="M95.844 10.2876H97.5854L102.458 21.5983H100.157L99.1031 19.0101H94.1985L93.176 21.5983H90.9235L95.844 10.2876ZM98.4002 17.2853L96.6588 12.6837L94.8855 17.2853H98.4002Z" fill="#E84142"/>
<path d="M106.91 10.2876H109.578L115.058 18.6906H115.09V10.2876H117.103V21.5983H114.547L108.955 12.9237H108.923V21.5983H106.91V10.2876Z" fill="#E84142"/>
<path d="M130.585 12.9401C130.17 12.4926 129.765 12.1944 129.371 12.045C128.987 11.8963 128.599 11.8212 128.205 11.8212C127.619 11.8212 127.087 11.9279 126.607 12.1407C126.138 12.3431 125.734 12.6309 125.393 13.0034C125.052 13.3656 124.785 13.7918 124.594 14.2821C124.413 14.7716 124.322 15.2987 124.322 15.8633C124.322 16.4706 124.413 17.0294 124.594 17.541C124.785 18.0519 125.052 18.4943 125.393 18.8668C125.734 19.24 126.138 19.5322 126.607 19.7457C127.087 19.9585 127.619 20.0652 128.205 20.0652C128.663 20.0652 129.104 19.9585 129.531 19.7457C129.967 19.5219 130.372 19.1708 130.744 18.6908L132.406 19.8731C131.895 20.5761 131.272 21.0877 130.537 21.4072C129.802 21.7267 129.02 21.8864 128.189 21.8864C127.316 21.8864 126.511 21.748 125.776 21.4712C125.052 21.1834 124.423 20.7837 123.891 20.2728C123.369 19.7509 122.959 19.1281 122.661 18.4037C122.363 17.6794 122.213 16.8755 122.213 15.9914C122.213 15.086 122.363 14.2659 122.661 13.5312C122.959 12.7855 123.369 12.1517 123.891 11.6298C124.423 11.1079 125.052 10.7082 125.776 10.4314C126.511 10.1443 127.316 10 128.189 10C128.956 10 129.664 10.1384 130.313 10.4159C130.973 10.6817 131.586 11.1395 132.15 11.7895L130.585 12.9401Z" fill="#E84142"/>
<path d="M136.952 10.2876H138.966V14.7928H144.253V10.2876H146.267V21.5983H144.253V16.614H138.966V21.5983H136.952V10.2876Z" fill="#E84142"/>
<path d="M151.989 10.2876H159.482V12.1088H154.002V14.8885H159.195V16.7097H154.002V19.7771H159.769V21.5983H151.989V10.2876Z" fill="#E84142"/>
</svg>
