<svg width="31" height="31" viewBox="0 0 31 31" fill="none" xmlns="http://www.w3.org/2000/svg">
<path d="M24.736 5.16016H6.49103C6.03508 5.16016 5.66547 5.52977 5.66547 5.98572V23.3226C5.66547 23.7786 6.03508 24.1482 6.49103 24.1482H24.736C25.192 24.1482 25.5616 23.7786 25.5616 23.3226V5.98572C25.5616 5.52977 25.192 5.16016 24.736 5.16016Z" fill="white"/>
<path fill-rule="evenodd" clip-rule="evenodd" d="M31 15.5C31 24.0605 24.0605 31 15.5 31C6.93958 31 0 24.0605 0 15.5C0 6.93958 6.93958 0 15.5 0C24.0605 0 31 6.93958 31 15.5ZM11.1077 21.6682H8.09963C7.46753 21.6682 7.1553 21.6682 6.96493 21.5464C6.7593 21.4131 6.63365 21.1923 6.61842 20.9485C6.60698 20.724 6.76312 20.4497 7.07535 19.9014L14.5028 6.80958C14.8188 6.25364 14.9787 5.97567 15.1805 5.87287C15.3976 5.76245 15.6565 5.76245 15.8735 5.87287C16.0754 5.97567 16.2353 6.25364 16.5513 6.80958L18.0782 9.475L18.086 9.4886C18.4274 10.085 18.6005 10.3875 18.6761 10.7049C18.7598 11.0514 18.7598 11.4169 18.6761 11.7634C18.5999 12.0833 18.4286 12.3879 18.082 12.9934L14.1806 19.89L14.1705 19.9077C13.8269 20.509 13.6528 20.8138 13.4114 21.0437C13.1487 21.2951 12.8327 21.4777 12.4861 21.5807C12.1701 21.6682 11.816 21.6682 11.1077 21.6682ZM18.7042 21.6682H23.0145C23.6504 21.6682 23.9703 21.6682 24.1608 21.5427C24.3664 21.4094 24.4958 21.1846 24.5073 20.9411C24.5183 20.7238 24.3655 20.4602 24.0663 19.9438C24.056 19.9262 24.0456 19.9083 24.0351 19.8901L21.8761 16.1966L21.8515 16.155C21.5481 15.6419 21.395 15.3829 21.1983 15.2827C20.9813 15.1723 20.726 15.1723 20.5091 15.2827C20.3112 15.3855 20.1512 15.6559 19.835 16.2004L17.6837 19.8939L17.6764 19.9066C17.3614 20.4502 17.2041 20.7219 17.2154 20.9448C17.2306 21.1886 17.3563 21.4131 17.5619 21.5464C17.7485 21.6682 18.0683 21.6682 18.7042 21.6682Z" fill="#E84142"/>
</svg>
