<svg width="29" height="29" viewBox="0 0 29 29" fill="none" xmlns="http://www.w3.org/2000/svg">
<path d="M8.82156 12.186L14.4238 6.55444L20.0289 12.189L23.2887 8.91203L14.4238 0L5.56181 8.90905L8.82156 12.186Z" fill="#F3BA2F"/>
<path d="M6.51955 14.4996L3.25986 11.2227L8.71828e-07 14.4998L3.2597 17.7767L6.51955 14.4996Z" fill="#F3BA2F"/>
<path d="M8.82157 16.8138L14.4238 22.4454L20.0287 16.811L23.2903 20.0862L23.2887 20.088L14.4238 28.9998L5.56159 20.091L5.55704 20.0864L8.82157 16.8138Z" fill="#F3BA2F"/>
<path d="M25.588 17.7781L28.8479 14.501L25.5882 11.224L22.3283 14.5011L25.588 17.7781Z" fill="#F3BA2F"/>
<path d="M17.7302 14.4982H17.7316L14.4238 11.1729L11.9792 13.6303H11.979L11.6983 13.9127L11.1189 14.4952L11.1143 14.4998L11.1189 14.5046L14.4238 17.8269L17.7316 14.5016L17.7332 14.4998L17.7302 14.4982Z" fill="#F3BA2F"/>
</svg>
