<svg width="144" height="29" viewBox="0 0 144 29" fill="none" xmlns="http://www.w3.org/2000/svg">
<g clip-path="url(#clip0_1355_3563)">
<path d="M8.69699 12.186L14.2992 6.55444L19.9044 12.189L23.1641 8.91203L14.2992 0L5.43724 8.90905L8.69699 12.186Z" fill="#F3BA2F"/>
<path d="M6.39498 14.4996L3.13528 11.2227L-0.124572 14.4998L3.13512 17.7767L6.39498 14.4996Z" fill="#F3BA2F"/>
<path d="M8.697 16.8138L14.2992 22.4454L19.9041 16.811L23.1657 20.0862L23.1641 20.088L14.2992 28.9998L5.43702 20.091L5.43246 20.0864L8.697 16.8138Z" fill="#F3BA2F"/>
<path d="M25.4634 17.7781L28.7233 14.501L25.4636 11.224L22.2037 14.5011L25.4634 17.7781Z" fill="#F3BA2F"/>
<path d="M17.6057 14.4982H17.607L14.2992 11.1729L11.8547 13.6303H11.8544L11.5737 13.9127L10.9943 14.4952L10.9898 14.4998L10.9943 14.5046L14.2992 17.8269L17.607 14.5016L17.6086 14.4998L17.6057 14.4982Z" fill="#F3BA2F"/>
<path d="M33.8051 7.02686H40.8949C42.6545 7.02686 43.9851 7.48083 44.8869 8.38877C45.5848 9.09195 45.9336 9.96348 45.9336 11.0031V11.0471C45.9336 11.4864 45.8796 11.8747 45.7709 12.2114C45.6625 12.5485 45.5176 12.852 45.3364 13.123C45.1558 13.3942 44.9457 13.6321 44.7069 13.8369C44.4679 14.0421 44.2111 14.218 43.9361 14.3642C44.8206 14.7013 45.5169 15.1587 46.0245 15.7373C46.5319 16.3161 46.786 17.118 46.786 18.143V18.1868C46.786 18.8899 46.6516 19.5049 46.3825 20.0324C46.1134 20.5595 45.7279 20.999 45.2259 21.3506C44.724 21.7022 44.1204 21.9656 43.415 22.1415C42.7096 22.3172 41.9279 22.4049 41.0701 22.4049H33.8051V7.02686ZM40.1861 13.2439C40.9293 13.2439 41.5194 13.1161 41.9562 12.8596C42.3932 12.6033 42.6117 12.1894 42.6117 11.6184V11.5744C42.6117 11.062 42.4221 10.6703 42.0434 10.3991C41.6645 10.1282 41.1182 9.99257 40.4046 9.99257H37.0828V13.2439H40.1861V13.2439ZM41.0822 19.4394C41.8252 19.4394 42.4075 19.3043 42.8304 19.0331C43.2528 18.7621 43.4643 18.3409 43.4643 17.7697V17.7259C43.4643 17.2133 43.2674 16.807 42.8741 16.5065C42.4807 16.2066 41.847 16.0564 40.9728 16.0564H37.0828V19.4397H41.0822V19.4394Z" fill="#F3BA2F"/>
<path d="M51.0084 7.02686H54.3741V22.4054H51.0084V7.02686Z" fill="#F3BA2F"/>
<path d="M59.4716 7.02686H62.5744L69.7425 16.4957V7.02686H73.0643V22.4054H70.2016L62.7931 12.6291V22.4054H59.4716V7.02686Z" fill="#F3BA2F"/>
<path d="M83.2534 6.91748H86.3564L92.9128 22.4057H89.3942L87.9955 18.9567H81.5268L80.1283 22.4057H76.6968L83.2534 6.91748ZM86.7936 15.9685L84.7611 10.9817L82.7291 15.9685H86.7936Z" fill="#F3BA2F"/>
<path d="M96.5458 7.02686H99.6492L106.817 16.4957V7.02686H110.139V22.4054H107.276L99.8675 12.6291V22.4054H96.5458V7.02686V7.02686Z" fill="#F3BA2F"/>
<path d="M122.251 22.6687C121.128 22.6687 120.087 22.4635 119.125 22.0537C118.164 21.644 117.334 21.0835 116.634 20.373C115.935 19.6627 115.388 18.8242 114.995 17.8576C114.602 16.8908 114.405 15.8582 114.405 14.7597V14.716C114.405 13.6174 114.602 12.5888 114.995 11.6293C115.388 10.6701 115.935 9.82785 116.634 9.10291C117.333 8.37797 118.171 7.8065 119.147 7.38917C120.123 6.97185 121.202 6.76318 122.382 6.76318C123.095 6.76318 123.747 6.82205 124.337 6.93886C124.927 7.05637 125.462 7.21716 125.944 7.42215C126.425 7.62738 126.869 7.87636 127.277 8.16908C127.684 8.46226 128.063 8.7843 128.413 9.13589L126.272 11.6183C125.674 11.0766 125.066 10.6515 124.447 10.3441C123.827 10.0367 123.132 9.88282 122.36 9.88282C121.719 9.88282 121.125 10.0074 120.579 10.2564C120.033 10.5054 119.562 10.8494 119.169 11.2887C118.776 11.728 118.47 12.2372 118.251 12.8155C118.033 13.3944 117.924 14.013 117.924 14.672V14.7157C117.924 15.3747 118.033 15.9975 118.251 16.5829C118.47 17.1691 118.772 17.6814 119.158 18.1208C119.544 18.5601 120.01 18.9082 120.557 19.1645C121.103 19.4211 121.704 19.5489 122.36 19.5489C123.234 19.5489 123.973 19.3879 124.578 19.0656C125.182 18.7438 125.784 18.3042 126.381 17.7474L128.522 19.9225C128.129 20.3473 127.72 20.7282 127.299 21.0647C126.876 21.4019 126.413 21.6909 125.911 21.9328C125.408 22.1742 124.858 22.3577 124.261 22.4818C123.663 22.6062 122.993 22.6687 122.251 22.6687Z" fill="#F3BA2F"/>
<path d="M132.483 7.02686H144V10.0368H135.805V13.1564H143.017V16.1661H135.805V19.3957H144.11V22.4054H132.483V7.02686Z" fill="#F3BA2F"/>
</g>
<defs>
<clipPath id="clip0_1355_3563">
<rect width="144" height="29" fill="white"/>
</clipPath>
</defs>
</svg>
