<svg width="187" height="32" viewBox="0 0 187 32" fill="none" xmlns="http://www.w3.org/2000/svg">
<path d="M27.4108 19.1318C26.8527 19.4729 26.2015 19.5349 25.7054 19.2558C25.0853 18.8837 24.7132 18.0465 24.7132 16.8992V13.3954C24.7132 11.7209 24.062 10.5116 22.9457 10.2015C21.0543 9.64341 19.6279 11.969 19.1008 12.8372L15.7519 18.2016V11.5969C15.7209 10.0775 15.2248 9.1783 14.2946 8.89923C13.6744 8.71318 12.7442 8.80621 11.845 10.1705L4.37209 22.1395C3.37984 20.2481 2.85271 18.1395 2.85271 16C2.85271 8.7752 8.65116 2.91473 15.7519 2.91473C22.8527 2.91473 28.6512 8.7752 28.6512 16V16.031V16.062C28.7132 17.4574 28.2791 18.5736 27.4108 19.1318ZM31.5039 16V15.969V15.938C31.4729 7.16279 24.4031 0 15.7519 0C7.06977 0 0 7.16279 0 16C0 24.8062 7.06977 32 15.7519 32C19.7519 32 23.5349 30.4806 26.4496 27.7209C27.0388 27.1628 27.0698 26.2636 26.5116 25.6744C25.9845 25.0853 25.0853 25.0543 24.4961 25.5814C24.4961 25.5814 24.4961 25.5814 24.4651 25.6124C22.1085 27.845 18.9457 29.1163 15.6899 29.1163C11.876 29.1163 8.46511 27.4419 6.10853 24.7752L12.8372 13.9845V18.9767C12.8372 21.3643 13.7674 22.1395 14.5426 22.3566C15.3178 22.5736 16.4961 22.4186 17.7674 20.4031L21.4574 14.4186C21.5814 14.2326 21.6744 14.0465 21.7984 13.9225V16.9612C21.7984 19.1938 22.6977 20.9922 24.2481 21.8605C25.6434 22.6667 27.4108 22.5736 28.8682 21.6744C30.6667 20.4961 31.6279 18.4496 31.5039 16ZM53.4574 10.5426C53.8294 10.7597 54.1705 11.2868 54.1705 11.7519C54.1705 12.4961 53.5504 13.1163 52.8372 13.1163C52.6512 13.1163 52.4961 13.0543 52.3411 13.0233C51.5039 12.4031 50.4496 12 49.3333 12C46.6977 12 44.8992 14.1395 44.8992 16.8062C44.8992 19.4729 46.7287 21.5814 49.3333 21.5814C50.6357 21.5814 51.8139 21.0543 52.6822 20.2171C52.8992 20.062 53.1783 19.969 53.4574 19.969C54.1705 19.969 54.7287 20.5271 54.7287 21.2403C54.7287 21.7054 54.4496 22.1085 54.1085 22.3256C52.8372 23.4109 51.1318 24.124 49.3643 24.124C45.3333 24.124 42.0465 20.8062 42.0465 16.7132C42.0465 12.6202 45.3333 9.30232 49.3643 9.30232C50.8527 9.27132 52.2791 9.73643 53.4574 10.5426ZM60.8372 13.6434C63.5969 13.6434 65.8915 15.969 65.8915 18.8527C65.8915 21.7054 63.5659 24.155 60.8372 24.155C57.9535 24.155 55.5659 21.7364 55.5659 18.8527C55.5659 15.969 57.9535 13.6434 60.8372 13.6434ZM60.8062 21.5814C62.0155 21.5814 63.0387 20.4341 63.0387 18.8837C63.0387 17.3333 62.0155 16.3411 60.8062 16.3411C59.5039 16.3411 58.4186 17.3023 58.4186 18.8837C58.4186 20.4031 59.5039 21.5814 60.8062 21.5814ZM67.6279 22.5426V15.2248C67.6279 14.4186 68.248 13.7674 69.0542 13.7674C69.8294 13.7674 70.4806 14.4186 70.4806 15.2248V22.5426C70.4806 23.3488 69.8294 24 69.0542 24C68.2791 24 67.6279 23.3178 67.6279 22.5426ZM67.4108 11.0078C67.4108 10.0465 68.155 9.30232 69.0542 9.30232C69.9845 9.30232 70.7287 10.0775 70.7287 11.0078C70.7287 11.938 69.9845 12.6822 69.0542 12.6822C68.124 12.6512 67.4108 11.907 67.4108 11.0078ZM75.938 18.5736V22.5426C75.938 23.3488 75.2868 24 74.5116 24C73.7364 24 73.0853 23.3488 73.0853 22.5426V14.8837C73.0853 14.2636 73.5814 13.7674 74.2015 13.7674C74.8217 13.7674 75.2868 14.2946 75.2868 14.8837C76.4341 13.7984 77.4574 13.6434 78.4186 13.6434C81.2713 13.6434 82.5426 15.7829 82.5426 18.2326V22.5426C82.5426 23.3488 81.8914 24 81.1163 24C80.3411 24 79.6899 23.3488 79.6899 22.5426V18.5736C79.6899 17.3333 79.5349 16.2791 77.7364 16.2791C76.4651 16.2791 75.938 17.3333 75.938 18.5736ZM91.7829 20.093C91.4418 20.093 91.2248 19.938 91.0387 19.7209L87.7209 16.124V22.5426C87.7209 23.3488 87.0697 24 86.2946 24C85.5194 24 84.8682 23.3488 84.8682 22.5426V9.82946C84.9612 9.61241 85.1783 9.45736 85.3953 9.45736C85.6434 9.45736 85.8604 9.67442 86.0155 9.82946L91.3178 15.7829C91.4729 15.969 91.6589 16.062 91.7829 16.062C91.876 16.062 92.093 15.969 92.248 15.7829L97.5504 9.82946C97.7054 9.67442 97.8914 9.45736 98.1705 9.45736C98.4186 9.45736 98.6356 9.61241 98.6977 9.82946V22.5426C98.6977 23.3488 98.0775 24 97.2713 24C96.4961 24 95.8449 23.3488 95.8449 22.5426V16.124L92.5271 19.7209C92.279 19.938 92.062 20.093 91.7829 20.093ZM105.488 21.5814C106.76 21.5814 107.845 20.4341 107.845 18.8837C107.845 17.3333 106.729 16.3101 105.488 16.3101C104.248 16.3101 103.225 17.3643 103.225 18.8837C103.225 20.3721 104.217 21.5814 105.488 21.5814ZM108.527 22.8837L108.465 22.5426C107.907 23.6279 106.14 24.124 105.023 24.124C102.357 24.124 100.372 21.7054 100.372 18.8217C100.372 15.969 102.388 13.6124 105.178 13.6124C105.643 13.6124 107.256 13.7364 108.496 15.1938L108.558 14.8527C108.558 14.2326 109.023 13.7364 109.643 13.7364C110.264 13.7364 110.76 14.2636 110.76 14.8527V22.8527C110.76 23.4729 110.264 23.969 109.643 23.969C108.992 24 108.527 23.4729 108.527 22.8837ZM118.605 16.2791H118.295C116.496 16.3721 116.155 17.3953 116.155 18.5736V22.5426C116.155 23.3488 115.504 24 114.729 24C113.953 24 113.302 23.3488 113.302 22.5426V14.8837C113.302 14.2636 113.798 13.7674 114.419 13.7674C115.039 13.7674 115.504 14.2946 115.504 14.8837C116.558 13.8915 117.426 13.6744 118.295 13.6434H118.574C119.256 13.6434 119.876 14.2326 119.876 14.9767C119.907 15.6589 119.287 16.2791 118.605 16.2791ZM129.612 21.8605C129.736 22.0775 129.829 22.2946 129.829 22.5426C129.829 23.2868 129.147 23.969 128.403 23.969C127.907 23.969 127.473 23.5969 127.132 23.1628L123.845 19.3488V22.5116C123.845 23.3178 123.194 23.969 122.419 23.969C121.643 23.969 120.992 23.3178 120.992 22.5116V10.8837C120.992 10.0775 121.612 9.42635 122.419 9.42635C123.225 9.42635 123.845 10.0775 123.845 10.8837V18.1395L127.132 14.5116C127.473 14.1395 127.876 13.7364 128.372 13.7364C129.085 13.7364 129.736 14.3876 129.736 15.1318C129.736 15.3488 129.674 15.5969 129.55 15.7829L126.946 18.6357L129.612 21.8605ZM135.194 16.3101C134.419 16.3101 133.147 16.7132 133.147 17.9225H137.271C137.24 16.7132 135.938 16.3101 135.194 16.3101ZM138.915 19.7519H133.147C133.147 21.4574 134.791 21.7364 135.504 21.7364C136.031 21.7364 136.775 21.6434 137.364 21.3643C137.55 21.2403 137.829 21.1473 138.108 21.1473C138.729 21.1473 139.256 21.6744 139.256 22.3256C139.256 22.7597 138.977 23.1318 138.636 23.3488C137.767 24 136.62 24.155 135.535 24.155C132.651 24.155 130.264 22.6047 130.264 18.9767C130.264 16.124 131.721 13.6434 135.132 13.6434C137.891 13.6434 139.969 15.4419 140.031 18.6357C140.031 19.2248 139.535 19.7519 138.915 19.7519ZM146.853 24.124H146.077C143.907 24.124 142.636 23.1628 142.636 19.7829V16.2791H141.891C141.209 16.2791 140.62 15.6589 140.62 14.9767C140.62 14.2326 141.24 13.6434 141.891 13.6434H142.636V10.9457C142.636 10.1395 143.256 9.48837 144.062 9.48837C144.837 9.48837 145.488 10.1395 145.488 10.9457V13.6434H146.667C147.349 13.6434 147.938 14.2326 147.938 14.9767C147.938 15.6589 147.318 16.2791 146.667 16.2791H145.488V19.2248C145.488 21.1783 145.581 21.5814 146.45 21.5814H146.853C147.535 21.5814 148.124 22.1395 148.124 22.8527C148.124 23.5349 147.535 24.124 146.853 24.124ZM160.651 10.5426C161.023 10.7597 161.364 11.2868 161.364 11.7519C161.364 12.4961 160.744 13.1163 160.031 13.1163C159.845 13.1163 159.69 13.0543 159.535 13.0233C158.698 12.4031 157.643 12 156.527 12C153.891 12 152.093 14.1395 152.093 16.8062C152.093 19.4729 153.922 21.5814 156.527 21.5814C157.829 21.5814 159.008 21.0543 159.876 20.2171C160.093 20.062 160.372 19.969 160.651 19.969C161.364 19.969 161.922 20.5271 161.922 21.2403C161.922 21.7054 161.643 22.1085 161.302 22.3256C160.031 23.4109 158.326 24.124 156.558 24.124C152.527 24.124 149.24 20.8062 149.24 16.7132C149.24 12.6202 152.527 9.30232 156.558 9.30232C158.046 9.27132 159.504 9.73643 160.651 10.5426ZM167.876 21.5814C169.147 21.5814 170.233 20.4341 170.233 18.8837C170.233 17.3333 169.116 16.3101 167.876 16.3101C166.605 16.3101 165.612 17.3643 165.612 18.8837C165.612 20.3721 166.636 21.5814 167.876 21.5814ZM170.915 22.8837L170.853 22.5426C170.295 23.6279 168.527 24.124 167.411 24.124C164.744 24.124 162.76 21.7054 162.76 18.8217C162.76 15.969 164.775 13.6124 167.566 13.6124C168.031 13.6124 169.643 13.7364 170.884 15.1938L170.946 14.8527C170.946 14.2326 171.411 13.7364 172.031 13.7364C172.651 13.7364 173.147 14.2636 173.147 14.8527V22.8527C173.147 23.4729 172.651 23.969 172.031 23.969C171.38 24 170.915 23.4729 170.915 22.8837ZM180.93 21.5814C182.202 21.5814 183.194 20.3721 183.194 18.8837C183.194 17.3333 182.171 16.3101 180.93 16.3101C179.659 16.3101 178.574 17.3333 178.574 18.8837C178.574 20.4341 179.659 21.5814 180.93 21.5814ZM178.574 23.2868V26.9147C178.574 27.7209 177.922 28.3721 177.147 28.3721C176.372 28.3721 175.721 27.7209 175.721 26.9147V14.8837C175.721 14.2636 176.217 13.7674 176.837 13.7674C177.457 13.7674 177.922 14.2946 177.922 15.0077C178.977 13.9225 180.279 13.6434 181.271 13.6434C184.031 13.6434 186.077 15.969 186.077 18.8527C186.077 21.7054 184.124 24.155 181.426 24.155C180.589 24.124 179.349 23.876 178.574 23.2868Z" fill="#3A5CDF"/>
</svg>
