<svg width="134" height="29" viewBox="0 0 134 29" fill="none" xmlns="http://www.w3.org/2000/svg">
<path fill-rule="evenodd" clip-rule="evenodd" d="M84.5825 20.9376C84.2904 21.7166 83.9496 22.3495 83.4627 22.8851C82.9758 23.4206 82.4403 23.8588 81.7587 24.1509C81.1257 24.443 80.3954 24.6378 79.6651 24.6378C78.9348 24.6378 78.2045 24.4917 77.5715 24.1509C76.9386 23.8588 76.3544 23.4206 75.8675 22.8851C75.3806 22.3008 74.9911 21.6679 74.7477 20.9376C74.4556 20.1586 74.3582 19.3309 74.3582 18.5032C74.3582 17.6268 74.5042 16.8478 74.7477 16.0688C75.0398 15.2898 75.3806 14.6569 75.8675 14.1213C76.3544 13.5858 76.8899 13.1476 77.5715 12.8555C78.2532 12.5634 78.9348 12.3686 79.6651 12.3686C80.3954 12.3686 81.1257 12.5147 81.7587 12.8555C82.3916 13.1476 82.9758 13.5858 83.4627 14.1213C83.9496 14.6569 84.2904 15.2898 84.5825 16.0688C84.8259 16.8478 84.972 17.6268 84.972 18.5032C85.0207 19.3796 84.8746 20.2073 84.5825 20.9376ZM89.5486 14.4622C89.0617 13.245 88.2828 12.1252 87.3577 11.1514C85.4102 9.20393 82.7324 8.13281 80.0059 8.13281C77.2307 8.13281 74.6016 9.20393 72.6054 11.1514C71.6804 12.0765 70.9014 13.245 70.4145 14.4622C69.879 15.728 69.5868 17.14 69.5868 18.5519C69.5868 20.0125 69.879 21.3271 70.4145 22.6416C70.9501 23.9075 71.6804 25.0273 72.6054 25.9524C74.5529 27.8999 77.2307 28.971 80.0059 28.971C82.7811 28.971 85.4102 27.8999 87.3577 25.9524C88.2828 25.0273 89.0131 23.9075 89.5486 22.6416C90.0842 21.3757 90.3763 20.0125 90.3763 18.5519C90.3763 17.0913 90.0842 15.728 89.5486 14.4622ZM61.2126 20.9376C60.9692 21.6192 60.6284 22.3008 60.1902 22.8851C59.752 23.4206 59.2651 23.8588 58.6322 24.1509C58.0479 24.443 57.415 24.6378 56.7334 24.6378H53.5687V12.3686H56.7334C57.415 12.3686 58.0479 12.5147 58.6322 12.8555C59.2164 13.1963 59.752 13.6345 60.1902 14.17C60.6284 14.7056 60.9692 15.3872 61.2126 16.1175C61.4561 16.8965 61.6021 17.6755 61.6021 18.5519C61.6021 19.4283 61.4561 20.2073 61.2126 20.9376ZM66.6169 14.4622C66.13 13.245 65.351 12.1252 64.426 11.1514C63.5009 10.2264 62.3811 9.44737 61.1639 8.96049C59.8981 8.42493 58.5348 8.13281 57.1229 8.13281H48.7974V28.9223H57.1229C58.5348 28.9223 59.8981 28.6788 61.1639 28.1433C62.4298 27.6077 63.5009 26.8774 64.426 25.9524C65.351 25.0273 66.0813 23.9075 66.6169 22.6416C67.1525 21.3757 67.3959 20.0125 67.3959 18.6006C67.4446 17.0913 67.1525 15.728 66.6169 14.4622ZM128.255 20.9376C127.963 21.7166 127.622 22.3495 127.135 22.8851C126.648 23.4206 126.113 23.8588 125.431 24.1509C124.798 24.443 124.068 24.6378 123.338 24.6378C122.607 24.6378 121.877 24.4917 121.244 24.1509C120.611 23.8588 120.027 23.4206 119.54 22.8851C119.053 22.3008 118.664 21.6679 118.42 20.9376C118.128 20.1586 118.031 19.3309 118.031 18.5032C118.031 17.6268 118.177 16.8478 118.42 16.0688C118.712 15.2898 119.053 14.6569 119.54 14.1213C120.027 13.5858 120.611 13.1476 121.244 12.8555C121.877 12.5634 122.607 12.3686 123.338 12.3686C124.117 12.3686 124.798 12.5147 125.431 12.8555C126.113 13.1476 126.648 13.5858 127.135 14.1213C127.622 14.6569 127.963 15.2898 128.255 16.0688C128.547 16.8478 128.644 17.6268 128.644 18.5032C128.693 19.3796 128.547 20.2073 128.255 20.9376ZM133.172 14.4622C132.686 13.245 131.907 12.1252 130.981 11.1514C129.034 9.20393 126.356 8.13281 123.63 8.13281C120.855 8.13281 118.225 9.20393 116.229 11.1514C115.304 12.0765 114.525 13.245 114.038 14.4622C113.503 15.728 113.211 17.14 113.259 18.5519C113.259 20.0125 113.503 21.3271 114.038 22.6416C114.574 23.9075 115.304 25.0273 116.229 25.9524C118.177 27.8999 120.855 28.971 123.63 28.971C126.405 28.971 129.034 27.8999 130.981 25.9524C131.907 25.0273 132.637 23.9075 133.172 22.6416C133.708 21.3757 134 20.0125 134 18.5519C134 17.0913 133.757 15.728 133.172 14.4622ZM104.885 20.9376C104.642 21.6192 104.301 22.3008 103.863 22.8851C103.424 23.4206 102.938 23.8588 102.305 24.1509C101.72 24.443 101.087 24.6378 100.406 24.6378H97.2412V12.3686H100.406C101.087 12.3686 101.72 12.5147 102.305 12.8555C102.889 13.1963 103.424 13.6345 103.863 14.17C104.301 14.7056 104.642 15.3872 104.885 16.1175C105.129 16.8965 105.275 17.6755 105.275 18.5519C105.226 19.4283 105.129 20.2073 104.885 20.9376ZM110.289 14.4622C109.803 13.245 109.024 12.1252 108.098 11.1514C107.173 10.2264 106.054 9.44737 104.836 8.96049C103.571 8.42493 102.207 8.13281 100.795 8.13281H92.4699V28.9223H100.795C102.207 28.9223 103.571 28.6788 104.836 28.1433C106.102 27.6077 107.173 26.8774 108.098 25.9524C109.024 25.0273 109.754 23.9075 110.289 22.6416C110.825 21.3757 111.068 20.0125 111.068 18.6006C111.117 17.0913 110.825 15.728 110.289 14.4622Z" fill="#FFE804"/>
<path fill-rule="evenodd" clip-rule="evenodd" d="M24.5133 6.76398C24.7354 6.22089 24.8589 5.70248 24.8836 5.20876C25.007 4.17195 24.7601 3.35731 24.143 3.11044C23.5505 2.86358 22.7852 3.25856 22.1187 4.02383V3.87571C22.1187 1.75271 21.1313 0 19.897 0C18.6627 0 17.6752 1.72802 17.6752 3.87571C17.6752 4.02383 17.6752 4.17195 17.6999 4.32006C16.9593 3.33262 15.9719 2.81421 15.2807 3.13513C14.4167 3.55479 14.2932 5.11002 15.0338 6.64055C15.1573 6.88741 15.4288 7.33176 15.6016 7.55394C6.09746 9.0351 0.69121 16.5397 0 28.8827H5.30751C5.87528 18.712 11.1334 12.9355 19.897 12.9355C27.7471 12.9355 33.6224 18.4652 33.5484 28.8827H38.8559C38.9546 16.589 31.9931 8.64013 24.0195 7.60331C24.217 7.35645 24.3652 7.0849 24.5133 6.76398Z" fill="#FFE804"/>
<path fill-rule="evenodd" clip-rule="evenodd" d="M13.2317 20.0213V23.4527C13.2317 24.218 14.0216 24.8351 14.9844 24.8351C15.9472 24.8351 16.7371 24.218 16.7371 23.4527V20.0213C16.7371 19.2561 15.9472 18.6389 14.9844 18.6389C14.0216 18.6389 13.2317 19.2561 13.2317 20.0213ZM24.0442 18.6389C23.1555 18.6389 22.4149 19.2561 22.4149 20.0213V23.4527C22.4149 24.218 23.1308 24.8351 24.0442 24.8351C24.9329 24.8351 25.6735 24.218 25.6735 23.4527V20.0213C25.6735 19.2561 24.9329 18.6389 24.0442 18.6389Z" fill="#FFE804"/>
</svg>
