<svg width="168" height="47" viewBox="0 0 168 47" fill="none" xmlns="http://www.w3.org/2000/svg">
<path fill-rule="evenodd" clip-rule="evenodd" d="M101.583 30.9376C101.29 31.7166 100.95 32.3495 100.463 32.8851C99.9758 33.4206 99.4403 33.8588 98.7587 34.1509C98.1257 34.443 97.3954 34.6378 96.6651 34.6378C95.9348 34.6378 95.2045 34.4917 94.5715 34.1509C93.9386 33.8588 93.3544 33.4206 92.8675 32.8851C92.3806 32.3008 91.9911 31.6679 91.7477 30.9376C91.4556 30.1586 91.3582 29.3309 91.3582 28.5032C91.3582 27.6268 91.5042 26.8478 91.7477 26.0688C92.0398 25.2898 92.3806 24.6569 92.8675 24.1213C93.3544 23.5858 93.8899 23.1476 94.5715 22.8555C95.2532 22.5634 95.9348 22.3686 96.6651 22.3686C97.3954 22.3686 98.1257 22.5147 98.7587 22.8555C99.3916 23.1476 99.9758 23.5858 100.463 24.1213C100.95 24.6569 101.29 25.2898 101.583 26.0688C101.826 26.8478 101.972 27.6268 101.972 28.5032C102.021 29.3796 101.875 30.2073 101.583 30.9376ZM106.549 24.4622C106.062 23.245 105.283 22.1252 104.358 21.1514C102.41 19.2039 99.7324 18.1328 97.0059 18.1328C94.2307 18.1328 91.6016 19.2039 89.6054 21.1514C88.6804 22.0765 87.9014 23.245 87.4145 24.4622C86.879 25.728 86.5868 27.14 86.5868 28.5519C86.5868 30.0125 86.879 31.3271 87.4145 32.6416C87.9501 33.9075 88.6804 35.0273 89.6054 35.9524C91.5529 37.8999 94.2307 38.971 97.0059 38.971C99.7811 38.971 102.41 37.8999 104.358 35.9524C105.283 35.0273 106.013 33.9075 106.549 32.6416C107.084 31.3757 107.376 30.0125 107.376 28.5519C107.376 27.0913 107.084 25.728 106.549 24.4622ZM78.2126 30.9376C77.9692 31.6192 77.6284 32.3008 77.1902 32.8851C76.752 33.4206 76.2651 33.8588 75.6322 34.1509C75.0479 34.443 74.415 34.6378 73.7334 34.6378H70.5687V22.3686H73.7334C74.415 22.3686 75.0479 22.5147 75.6322 22.8555C76.2164 23.1963 76.752 23.6345 77.1902 24.17C77.6284 24.7056 77.9692 25.3872 78.2126 26.1175C78.4561 26.8965 78.6021 27.6755 78.6021 28.5519C78.6021 29.4283 78.4561 30.2073 78.2126 30.9376ZM83.6169 24.4622C83.13 23.245 82.351 22.1252 81.426 21.1514C80.5009 20.2264 79.3811 19.4474 78.1639 18.9605C76.8981 18.4249 75.5348 18.1328 74.1229 18.1328H65.7974V38.9223H74.1229C75.5348 38.9223 76.8981 38.6788 78.1639 38.1433C79.4298 37.6077 80.5009 36.8774 81.426 35.9524C82.351 35.0273 83.0813 33.9075 83.6169 32.6416C84.1525 31.3757 84.3959 30.0125 84.3959 28.6006C84.4446 27.0913 84.1525 25.728 83.6169 24.4622ZM145.255 30.9376C144.963 31.7166 144.622 32.3495 144.135 32.8851C143.648 33.4206 143.113 33.8588 142.431 34.1509C141.798 34.443 141.068 34.6378 140.338 34.6378C139.607 34.6378 138.877 34.4917 138.244 34.1509C137.611 33.8588 137.027 33.4206 136.54 32.8851C136.053 32.3008 135.664 31.6679 135.42 30.9376C135.128 30.1586 135.031 29.3309 135.031 28.5032C135.031 27.6268 135.177 26.8478 135.42 26.0688C135.712 25.2898 136.053 24.6569 136.54 24.1213C137.027 23.5858 137.611 23.1476 138.244 22.8555C138.877 22.5634 139.607 22.3686 140.338 22.3686C141.117 22.3686 141.798 22.5147 142.431 22.8555C143.113 23.1476 143.648 23.5858 144.135 24.1213C144.622 24.6569 144.963 25.2898 145.255 26.0688C145.547 26.8478 145.644 27.6268 145.644 28.5032C145.693 29.3796 145.547 30.2073 145.255 30.9376ZM150.172 24.4622C149.686 23.245 148.907 22.1252 147.981 21.1514C146.034 19.2039 143.356 18.1328 140.63 18.1328C137.855 18.1328 135.225 19.2039 133.229 21.1514C132.304 22.0765 131.525 23.245 131.038 24.4622C130.503 25.728 130.211 27.14 130.259 28.5519C130.259 30.0125 130.503 31.3271 131.038 32.6416C131.574 33.9075 132.304 35.0273 133.229 35.9524C135.177 37.8999 137.855 38.971 140.63 38.971C143.405 38.971 146.034 37.8999 147.981 35.9524C148.907 35.0273 149.637 33.9075 150.172 32.6416C150.708 31.3757 151 30.0125 151 28.5519C151 27.0913 150.757 25.728 150.172 24.4622ZM121.885 30.9376C121.642 31.6192 121.301 32.3008 120.863 32.8851C120.424 33.4206 119.938 33.8588 119.305 34.1509C118.72 34.443 118.087 34.6378 117.406 34.6378H114.241V22.3686H117.406C118.087 22.3686 118.72 22.5147 119.305 22.8555C119.889 23.1963 120.424 23.6345 120.863 24.17C121.301 24.7056 121.642 25.3872 121.885 26.1175C122.129 26.8965 122.275 27.6755 122.275 28.5519C122.226 29.4283 122.129 30.2073 121.885 30.9376ZM127.289 24.4622C126.803 23.245 126.024 22.1252 125.098 21.1514C124.173 20.2264 123.054 19.4474 121.836 18.9605C120.571 18.4249 119.207 18.1328 117.795 18.1328H109.47V38.9223H117.795C119.207 38.9223 120.571 38.6788 121.836 38.1433C123.102 37.6077 124.173 36.8774 125.098 35.9524C126.024 35.0273 126.754 33.9075 127.289 32.6416C127.825 31.3757 128.068 30.0125 128.068 28.6006C128.117 27.0913 127.825 25.728 127.289 24.4622Z" fill="#FFE804"/>
<path fill-rule="evenodd" clip-rule="evenodd" d="M41.5133 16.764C41.7354 16.2209 41.8589 15.7025 41.8836 15.2088C42.007 14.1719 41.7601 13.3573 41.143 13.1104C40.5505 12.8636 39.7852 13.2586 39.1187 14.0238V13.8757C39.1187 11.7527 38.1313 10 36.897 10C35.6627 10 34.6752 11.728 34.6752 13.8757C34.6752 14.0238 34.6752 14.1719 34.6999 14.3201C33.9593 13.3326 32.9719 12.8142 32.2807 13.1351C31.4167 13.5548 31.2932 15.11 32.0338 16.6406C32.1573 16.8874 32.4288 17.3318 32.6016 17.5539C23.0975 19.0351 17.6912 26.5397 17 38.8827H22.3075C22.8753 28.712 28.1334 22.9355 36.897 22.9355C44.7471 22.9355 50.6224 28.4652 50.5484 38.8827H55.8559C55.9546 26.589 48.9931 18.6401 41.0195 17.6033C41.217 17.3564 41.3652 17.0849 41.5133 16.764Z" fill="#FFE804"/>
<path fill-rule="evenodd" clip-rule="evenodd" d="M30.2317 30.0213V33.4527C30.2317 34.218 31.0216 34.8351 31.9844 34.8351C32.9472 34.8351 33.7371 34.218 33.7371 33.4527V30.0213C33.7371 29.2561 32.9472 28.6389 31.9844 28.6389C31.0216 28.6389 30.2317 29.2561 30.2317 30.0213ZM41.0442 28.6389C40.1555 28.6389 39.4149 29.2561 39.4149 30.0213V33.4527C39.4149 34.218 40.1308 34.8351 41.0442 34.8351C41.9329 34.8351 42.6735 34.218 42.6735 33.4527V30.0213C42.6735 29.2561 41.9329 28.6389 41.0442 28.6389Z" fill="#FFE804"/>
</svg>
