<svg width="116" height="29" viewBox="0 0 116 29" fill="none" xmlns="http://www.w3.org/2000/svg">
<path fill-rule="evenodd" clip-rule="evenodd" d="M77.14 15.8318C76.9103 16.4299 76.6423 16.9159 76.2594 17.3271C75.8766 17.7383 75.4554 18.0748 74.9194 18.2991C74.4217 18.5234 73.8474 18.6729 73.2731 18.6729C72.6989 18.6729 72.1246 18.5607 71.6269 18.2991C71.1291 18.0748 70.6697 17.7383 70.2869 17.3271C69.904 16.8785 69.5977 16.3925 69.4063 15.8318C69.1766 15.2336 69.1 14.5981 69.1 13.9626C69.1 13.2897 69.2149 12.6916 69.4063 12.0935C69.636 11.4953 69.904 11.0093 70.2869 10.5981C70.6697 10.1869 71.0909 9.85047 71.6269 9.62617C72.1629 9.40187 72.6989 9.25234 73.2731 9.25234C73.8474 9.25234 74.4217 9.36449 74.9194 9.62617C75.4171 9.85047 75.8766 10.1869 76.2594 10.5981C76.6423 11.0093 76.9103 11.4953 77.14 12.0935C77.3314 12.6916 77.4463 13.2897 77.4463 13.9626C77.4846 14.6355 77.3697 15.271 77.14 15.8318ZM81.0451 10.8598C80.6623 9.92523 80.0497 9.06542 79.3223 8.31776C77.7909 6.82243 75.6851 6 73.5411 6C71.3589 6 69.2914 6.82243 67.7217 8.31776C66.9943 9.02804 66.3817 9.92523 65.9989 10.8598C65.5777 11.8318 65.348 12.9159 65.348 14C65.348 15.1215 65.5777 16.1308 65.9989 17.1402C66.42 18.1121 66.9943 18.972 67.7217 19.6822C69.2531 21.1776 71.3589 22 73.5411 22C75.7234 22 77.7909 21.1776 79.3223 19.6822C80.0497 18.972 80.624 18.1121 81.0451 17.1402C81.4663 16.1682 81.696 15.1215 81.696 14C81.696 12.8785 81.4663 11.8318 81.0451 10.8598ZM58.7629 15.8318C58.5714 16.3551 58.3034 16.8785 57.9589 17.3271C57.6143 17.7383 57.2314 18.0748 56.7337 18.2991C56.2743 18.5234 55.7766 18.6729 55.2406 18.6729H52.752V9.25234H55.2406C55.7766 9.25234 56.2743 9.36449 56.7337 9.62617C57.1931 9.88785 57.6143 10.2243 57.9589 10.6355C58.3034 11.0467 58.5714 11.5701 58.7629 12.1308C58.9543 12.729 59.0691 13.3271 59.0691 14C59.0691 14.6729 58.9543 15.271 58.7629 15.8318ZM63.0126 10.8598C62.6297 9.92523 62.0171 9.06542 61.2897 8.31776C60.5623 7.60748 59.6817 7.00934 58.7246 6.63551C57.7291 6.2243 56.6571 6 55.5469 6H49V21.9626H55.5469C56.6571 21.9626 57.7291 21.7757 58.7246 21.3645C59.72 20.9533 60.5623 20.3925 61.2897 19.6822C62.0171 18.972 62.5914 18.1121 63.0126 17.1402C63.4337 16.1682 63.6251 15.1215 63.6251 14.0374C63.6634 12.8785 63.4337 11.8318 63.0126 10.8598ZM111.482 15.8318C111.253 16.4299 110.985 16.9159 110.602 17.3271C110.219 17.7383 109.798 18.0748 109.262 18.2991C108.764 18.5234 108.19 18.6729 107.615 18.6729C107.041 18.6729 106.467 18.5607 105.969 18.2991C105.471 18.0748 105.012 17.7383 104.629 17.3271C104.246 16.8785 103.94 16.3925 103.749 15.8318C103.519 15.2336 103.442 14.5981 103.442 13.9626C103.442 13.2897 103.557 12.6916 103.749 12.0935C103.978 11.4953 104.246 11.0093 104.629 10.5981C105.012 10.1869 105.471 9.85047 105.969 9.62617C106.467 9.40187 107.041 9.25234 107.615 9.25234C108.228 9.25234 108.764 9.36449 109.262 9.62617C109.798 9.85047 110.219 10.1869 110.602 10.5981C110.985 11.0093 111.253 11.4953 111.482 12.0935C111.712 12.6916 111.789 13.2897 111.789 13.9626C111.827 14.6355 111.712 15.271 111.482 15.8318ZM115.349 10.8598C114.966 9.92523 114.354 9.06542 113.626 8.31776C112.095 6.82243 109.989 6 107.845 6C105.663 6 103.595 6.82243 102.026 8.31776C101.298 9.02804 100.686 9.92523 100.303 10.8598C99.8817 11.8318 99.652 12.9159 99.6903 14C99.6903 15.1215 99.8817 16.1308 100.303 17.1402C100.724 18.1121 101.298 18.972 102.026 19.6822C103.557 21.1776 105.663 22 107.845 22C110.027 22 112.095 21.1776 113.626 19.6822C114.354 18.972 114.928 18.1121 115.349 17.1402C115.77 16.1682 116 15.1215 116 14C116 12.8785 115.809 11.8318 115.349 10.8598ZM93.1051 15.8318C92.9137 16.3551 92.6457 16.8785 92.3011 17.3271C91.9566 17.7383 91.5737 18.0748 91.076 18.2991C90.6166 18.5234 90.1189 18.6729 89.5829 18.6729H87.0943V9.25234H89.5829C90.1189 9.25234 90.6166 9.36449 91.076 9.62617C91.5354 9.88785 91.9566 10.2243 92.3011 10.6355C92.6457 11.0467 92.9137 11.5701 93.1051 12.1308C93.2966 12.729 93.4114 13.3271 93.4114 14C93.3731 14.6729 93.2966 15.271 93.1051 15.8318ZM97.3549 10.8598C96.972 9.92523 96.3594 9.06542 95.632 8.31776C94.9046 7.60748 94.024 7.00934 93.0669 6.63551C92.0714 6.2243 90.9994 6 89.8891 6H83.3423V21.9626H89.8891C90.9994 21.9626 92.0714 21.7757 93.0669 21.3645C94.0623 20.9533 94.9046 20.3925 95.632 19.6822C96.3594 18.972 96.9337 18.1121 97.3549 17.1402C97.776 16.1682 97.9674 15.1215 97.9674 14.0374C98.0057 12.8785 97.776 11.8318 97.3549 10.8598Z" fill="#FFE804"/>
<path fill-rule="evenodd" clip-rule="evenodd" d="M24.5133 6.76398C24.7354 6.22089 24.8589 5.70248 24.8836 5.20876C25.007 4.17195 24.7601 3.35731 24.143 3.11044C23.5505 2.86358 22.7852 3.25856 22.1187 4.02383V3.87571C22.1187 1.75271 21.1313 0 19.897 0C18.6627 0 17.6752 1.72802 17.6752 3.87571C17.6752 4.02383 17.6752 4.17195 17.6999 4.32006C16.9593 3.33262 15.9719 2.81421 15.2807 3.13513C14.4167 3.55479 14.2932 5.11002 15.0338 6.64055C15.1573 6.88741 15.4288 7.33176 15.6016 7.55394C6.09746 9.0351 0.69121 16.5397 0 28.8827H5.30751C5.87528 18.712 11.1334 12.9355 19.897 12.9355C27.7471 12.9355 33.6224 18.4652 33.5484 28.8827H38.8559C38.9546 16.589 31.9931 8.64013 24.0195 7.60331C24.217 7.35645 24.3652 7.0849 24.5133 6.76398Z" fill="#FFE804"/>
<path fill-rule="evenodd" clip-rule="evenodd" d="M13.2317 20.0213V23.4527C13.2317 24.218 14.0217 24.8351 14.9844 24.8351C15.9472 24.8351 16.7371 24.218 16.7371 23.4527V20.0213C16.7371 19.2561 15.9472 18.6389 14.9844 18.6389C14.0217 18.6389 13.2317 19.2561 13.2317 20.0213ZM24.0442 18.6389C23.1555 18.6389 22.4149 19.2561 22.4149 20.0213V23.4527C22.4149 24.218 23.1308 24.8351 24.0442 24.8351C24.9329 24.8351 25.6735 24.218 25.6735 23.4527V20.0213C25.6735 19.2561 24.9329 18.6389 24.0442 18.6389Z" fill="#FFE804"/>
</svg>
