<svg width="172" height="29" viewBox="0 0 172 29" fill="none" xmlns="http://www.w3.org/2000/svg">
<path d="M36.3369 18.0794L29.4791 6.18971C27.9651 3.71825 24.3136 3.67372 22.8663 6.30104L15.6524 18.6806C14.3164 20.9516 15.9641 23.8016 18.6582 23.8016H33.0861C35.8025 23.8016 37.8287 20.8626 36.3369 18.0794Z" fill="#00B897"/>
<path d="M26.4291 19.0148L26.0061 18.28C25.6053 17.5898 24.737 16.1203 24.737 16.1203L18.9257 6.03408C17.7679 4.27512 15.4078 3.80755 13.6488 4.96534C13.0922 5.32159 12.6469 5.83369 12.3574 6.43486L5.61102 18.1242C4.56455 19.9277 5.18798 22.2433 7.01374 23.2897C7.59264 23.6237 8.23834 23.8018 8.9063 23.8018H33.0197C29.3014 23.8241 28.1213 21.887 26.4291 19.0148Z" fill="#76FCB2"/>
<path d="M26.4291 19.0146L26.0061 18.2798C25.6053 17.5896 24.737 16.1201 24.737 16.1201L20.9964 9.52954L15.6082 18.7029C14.2722 20.9739 15.9199 23.8239 18.614 23.8239H33.0197C29.2791 23.8016 28.1213 21.8868 26.4291 19.0146Z" fill="url(#paint0_linear_1349_2868)"/>
<path d="M165.743 22.8666C164.92 22.8889 164.118 22.6885 163.428 22.2877C162.827 21.9092 162.47 21.2413 162.515 20.5288V9.01758H164.051C164.608 9.01758 165.075 9.48515 165.075 10.0418V20.1725C165.098 20.5065 165.231 20.8182 165.476 21.0631C165.721 21.3081 166.055 21.4417 166.389 21.4417H166.679C166.79 21.4417 166.901 21.5307 166.901 21.6643V22.9112L165.743 22.8666Z" fill="#00B897"/>
<path d="M132.769 22.8667C131.188 22.8667 129.896 22.4437 128.917 21.5976C128.449 21.2191 128.093 20.7293 127.87 20.1726C127.648 19.6383 127.559 18.8812 127.559 17.857C127.559 16.8328 127.67 16.0535 127.87 15.5414C128.093 15.0071 128.449 14.5395 128.895 14.161C129.874 13.3149 131.166 12.8918 132.746 12.8918C134.327 12.8918 135.619 13.3149 136.598 14.161C137.044 14.5172 137.4 15.0071 137.623 15.5414C137.867 16.2984 137.979 17.0777 137.934 17.8793C137.934 18.9035 137.823 19.6828 137.623 20.1949C137.4 20.7515 137.044 21.2414 136.576 21.6199C135.663 22.4437 134.35 22.8667 132.769 22.8667ZM132.769 14.3614C131.032 14.3614 130.164 15.5414 130.164 17.9016C130.164 20.2617 131.032 21.464 132.769 21.464C134.505 21.464 135.374 20.284 135.374 17.9238C135.374 15.5637 134.483 14.3614 132.769 14.3614Z" fill="#00B897"/>
<path d="M143.701 22.8666C142.387 22.8889 141.096 22.5104 139.982 21.7756C139.804 21.6198 139.604 21.4862 139.404 21.3749C139.337 21.3303 139.292 21.2635 139.292 21.1967V9.01758H140.851C141.407 9.01758 141.875 9.48515 141.875 10.0418V13.6042L142.343 13.3371C142.899 13.0476 143.634 12.914 144.591 12.914C146.261 12.914 147.53 13.4261 148.354 14.3835C149.089 15.2519 149.468 16.4097 149.468 17.8347C149.468 19.2597 149.044 20.4174 148.198 21.2635C147.241 22.3545 145.705 22.8666 143.701 22.8666ZM143.946 14.3613C143.367 14.3613 142.699 14.5839 141.964 15.0292L141.853 15.0738V20.796L141.964 20.885C142.565 21.2635 143.233 21.4417 143.946 21.4417C144.836 21.4639 145.682 21.0186 146.128 20.2616C146.573 19.5491 146.818 18.7253 146.796 17.8792C146.796 15.5413 145.838 14.3613 143.946 14.3613Z" fill="#00B897"/>
<path d="M155.568 22.8442C152.674 22.8442 150.848 20.9516 150.848 17.8568C150.848 14.7619 152.629 12.8916 155.524 12.8916C156.525 12.8693 157.527 13.1588 158.351 13.7377L158.507 13.849V13.092H160.533C160.645 13.092 160.734 13.181 160.734 13.2924V22.6661H158.463V21.82L158.307 21.9536C157.683 22.5325 156.681 22.8442 155.568 22.8442ZM156.08 14.5837C154.254 14.5837 153.186 15.9865 153.186 17.8568C153.186 19.727 154.277 21.1743 156.08 21.1743C156.659 21.1743 157.661 21.1298 158.463 20.3282L158.485 20.3059V15.4966L158.463 15.4744C157.928 14.8509 157.104 14.5837 156.08 14.5837Z" fill="#00B897"/>
<path d="M61.8529 22.7553V9.01758H73.275V9.88593C73.275 10.5762 72.7184 11.1328 72.0282 11.1328H64.6806V14.8066H72.0282V16.9218H64.6806V20.6178H72.0282C72.7184 20.6178 73.275 21.1745 73.275 21.8647V22.733L61.8529 22.7553Z" fill="white"/>
<path d="M89.6627 8.99536H86.9685C86.4787 8.99536 86.0111 9.21802 85.6994 9.59653L82.4709 13.6934L79.2202 9.6188C78.9085 9.24028 78.4409 9.01763 77.9511 9.01763H75.257L80.712 15.8754L75.257 22.7331H77.9511C78.4409 22.7331 78.9085 22.5104 79.2202 22.1319L82.4709 18.0796L85.744 22.1765C86.0557 22.555 86.5232 22.7776 87.0131 22.7776H89.7072L84.2299 15.9199L89.6627 8.99536Z" fill="white"/>
<path d="M52.9025 21.2858L56.6431 14.7398V22.7108H59.493V8.97304H57.7341C57.1774 8.97304 56.6653 9.26249 56.3981 9.75233L51.9228 17.9237L47.4475 9.75233C47.1803 9.26249 46.6682 8.95078 46.1116 8.97304H44.3303V22.7108H47.1803V14.7398L50.9209 21.2858H52.9025Z" fill="white"/>
<path d="M97.0994 22.9113C93.203 23.0004 89.9745 19.9055 89.9077 16.009C89.9077 15.9645 89.9077 15.9422 89.9077 15.8977C89.9077 13.738 90.5757 11.9345 91.8003 10.7099C93.0249 9.48529 94.8284 8.8396 96.9658 8.8396C99.4818 8.8396 101.441 9.70795 102.866 11.4001L101.976 12.1571C101.419 12.6247 100.595 12.647 99.9939 12.2017C99.1478 11.5782 98.1236 11.2665 97.0772 11.3111C94.2717 11.3111 92.6241 13.0032 92.6241 15.8532C92.6241 18.7032 94.3385 20.5067 97.0772 20.5067C98.1236 20.5289 99.1478 20.2172 99.9939 19.616C100.595 19.1707 101.397 19.193 101.976 19.6606L102.866 20.4176C101.463 22.0652 99.5486 22.9113 97.0994 22.9113Z" fill="white"/>
<path d="M114.645 22.8888C110.214 22.8888 107.475 20.1946 107.475 15.8752C107.475 11.5557 110.214 8.86157 114.6 8.86157C116.715 8.86157 118.474 9.46274 119.855 10.7096L119.187 11.4444C118.719 11.9565 117.984 12.0901 117.361 11.7783C116.493 11.3553 115.558 11.1326 114.6 11.1326C111.75 11.1326 109.991 12.9584 109.991 15.8752C109.991 18.7919 111.839 20.64 114.801 20.64C116.226 20.64 117.339 20.3728 118.14 19.7939L118.185 19.7716V16.9439H115.045V16.031C115.045 15.3408 115.602 14.7842 116.292 14.7842H120.166C120.278 14.7842 120.389 14.8732 120.389 15.0068V21.1075C119.031 22.2876 117.094 22.8888 114.645 22.8888Z" fill="#00B897"/>
<path d="M125.466 22.8666C124.642 22.8889 123.84 22.6885 123.15 22.2877C122.549 21.9092 122.193 21.2413 122.215 20.5288V9.01758H123.751C124.33 9.01758 124.775 9.48515 124.775 10.0418V20.1725C124.798 20.5065 124.931 20.8182 125.176 21.0631C125.421 21.3081 125.755 21.4417 126.089 21.4417H126.378C126.49 21.4417 126.601 21.5307 126.601 21.6643V22.9112L125.466 22.8666Z" fill="#00B897"/>
<defs>
<linearGradient id="paint0_linear_1349_2868" x1="13.7084" y1="14.5361" x2="30.3785" y2="20.6947" gradientUnits="userSpaceOnUse">
<stop stop-color="#53E57A" stop-opacity="0"/>
<stop offset="1" stop-color="#00A977"/>
</linearGradient>
</defs>
</svg>
