<svg width="124" height="37" viewBox="0 0 124 37" fill="none" xmlns="http://www.w3.org/2000/svg">
<path d="M111.905 18.1374C111.527 17.6197 110.986 17.205 110.286 16.8931C109.585 16.5804 108.761 16.4248 107.813 16.4248C106.056 16.4248 104.688 16.8166 103.711 17.6001C103.104 18.0728 102.623 18.6564 102.267 19.3532C101.91 20.0496 101.634 20.8964 101.437 21.894L101.038 23.9602C100.819 25.0868 100.71 25.9581 100.71 26.575C100.71 27.9606 101.206 28.9978 102.199 29.6857C103.19 30.3748 104.509 30.7187 106.154 30.7187C106.737 30.7187 107.371 30.6811 108.052 30.6052C108.734 30.529 109.249 30.4339 109.598 30.3196C109.695 30.2894 109.772 30.2553 109.847 30.2206L110.583 27.3188C110.564 27.3234 110.55 27.3218 110.53 27.3284C110.091 27.4731 109.514 27.6137 108.802 27.7511C108.091 27.888 107.434 27.9562 106.836 27.9562C104.972 27.9562 104.04 27.3779 104.04 26.2203C104.04 26.0082 104.085 25.6344 104.176 25.1016H111.086C111.428 25.1016 111.667 25.041 111.803 24.9192C111.94 24.798 112.038 24.5768 112.098 24.2568L112.44 22.2706C112.568 21.5395 112.632 20.9645 112.632 20.5463C112.632 19.6175 112.39 18.815 111.905 18.1374ZM109.257 22.5333H104.665C104.755 22.0303 104.843 21.6177 104.926 21.2944C105.01 20.9711 105.123 20.6477 105.268 20.3234C105.412 20.0002 105.578 19.7493 105.767 19.5703C105.956 19.3917 106.202 19.2466 106.501 19.1364C106.8 19.0264 107.15 18.9707 107.552 18.9707C108.886 18.9707 109.552 19.5644 109.552 20.7521C109.552 21.0718 109.454 21.6655 109.257 22.5333Z" fill="white"/>
<path d="M70.0604 16.4248C68.816 16.4248 67.3151 16.6191 66.1553 16.8753L65.6899 19.6707C66.7422 19.4231 68.12 19.2336 69.2194 19.2336C69.9925 19.2336 70.5669 19.3322 70.9417 19.5305C71.3174 19.7288 71.5039 20.1058 71.5039 20.6609C71.5039 20.8889 71.4183 21.4413 71.2435 22.3164C70.2426 22.225 69.3226 22.1793 68.481 22.1793C66.8139 22.1793 65.5635 22.4537 64.7306 23.0013C63.4575 23.8469 62.8213 25.2886 62.8213 27.3289C62.8213 28.3331 63.1675 29.1498 63.8611 29.7777C64.5541 30.4054 65.5266 30.7192 66.7767 30.7192C68.2614 30.7192 69.44 30.2823 70.3109 29.4066L70.413 30.3375H73.1373C73.2188 29.505 73.4003 28.1411 73.5963 27.0888L74.323 23.3666C74.6496 21.7381 74.8119 20.5923 74.8119 19.9304C74.8119 17.5931 73.229 16.4248 70.0604 16.4248ZM70.2664 27.3057C69.6967 27.8768 68.8907 28.1622 67.8448 28.1622C67.2689 28.1622 66.8386 28.0363 66.5544 27.7853C66.2712 27.5338 66.1282 27.1919 66.1282 26.7583C66.1282 26.3851 66.1964 26.0457 66.3326 25.7418C66.469 25.4376 66.647 25.2088 66.8672 25.057C67.2764 24.7905 67.9051 24.657 68.7534 24.657C69.4053 24.657 70.0797 24.6954 70.7773 24.7706L70.2664 27.3057Z" fill="white"/>
<path d="M61.7688 13.5261C61.3299 13.085 60.7704 12.7611 60.0928 12.5552C59.4143 12.3501 58.5212 12.2471 57.4162 12.2471H52.3178L48.791 30.4582H52.3026L53.5512 24.0074H55.6881C56.7716 24.0074 57.6883 23.9202 58.4394 23.7447C59.1889 23.5698 59.8467 23.2674 60.4103 22.8372C60.9752 22.4073 61.4299 21.8435 61.7757 21.1472C62.1198 20.4504 62.4024 19.57 62.6219 18.5042C62.766 17.7664 62.838 17.0885 62.838 16.4721C62.8381 15.2236 62.4818 14.2415 61.7688 13.5261ZM59.1778 17.9673C59.0492 18.6676 58.8973 19.2044 58.7226 19.5774C58.5485 19.9508 58.3059 20.2584 57.9953 20.5025C57.6921 20.7462 57.3438 20.9114 56.9501 20.9986C56.5557 21.0863 56.0178 21.1298 55.3357 21.1298H54.1537L55.2451 15.1246H56.3931C57.1427 15.1246 57.7053 15.1664 58.0806 15.2505C58.4558 15.3341 58.7454 15.4936 58.9496 15.7295C59.1853 16.0268 59.3021 16.4226 59.3021 16.9172C59.3021 17.1378 59.2608 17.4879 59.1778 17.9673Z" fill="white"/>
<path d="M85.8935 16.6875C84.6496 19.7765 83.2002 23.0852 81.8739 25.8674H81.7268C81.1907 22.7875 81.381 23.5838 80.3304 16.6875H77.013C79.1729 27.7443 76.8628 15.941 79.6542 30.7313L79.6327 30.7419C79.2075 31.4958 78.7654 32.0114 78.3018 32.2899C77.8813 32.5419 77.4122 32.6737 76.8977 32.6961L76.25 35.4119H76.7447H77.393C78.5452 35.4119 79.5387 35.0485 80.3767 34.3219C81.2138 33.5947 82.0718 32.36 82.9514 30.6172C84.8299 26.8693 87.4423 21.185 89.4071 16.6875H85.8935Z" fill="white"/>
<path d="M97.1066 30.2527L97.7967 27.3592C97.4101 27.517 96.9718 27.6555 96.4651 27.7675C95.8967 27.8934 95.366 27.9562 94.8738 27.9562C94.0929 27.9562 93.5283 27.8155 93.1802 27.5336C92.8305 27.2523 92.6565 26.7764 92.6565 26.1067C92.6565 25.6955 92.7443 25.0183 92.9183 24.074L93.191 22.6703C93.3581 21.8706 93.5245 21.2871 93.6908 20.9178C93.858 20.5485 94.0698 20.2342 94.3278 19.9758C94.8276 19.4501 95.5593 19.1877 96.522 19.1877C97.5603 19.1877 98.6093 19.4479 99.2762 19.745C99.2893 19.7514 99.3117 19.7566 99.3302 19.762L99.9733 17.0687C99.5127 16.9132 98.6632 16.6583 98.0786 16.5673C97.4648 16.4721 96.901 16.4248 96.3857 16.4248C95.4761 16.4248 94.669 16.5314 93.9642 16.7445C93.2588 16.9575 92.6157 17.3117 92.0326 17.8061C91.0314 18.6662 90.3382 20.1162 89.9516 22.1562L89.6566 23.6747C89.4363 24.7779 89.3262 25.7147 89.3262 26.4836C89.3262 27.6175 89.6142 28.5274 90.1903 29.2123C91.0537 30.2171 92.4447 30.7189 94.3617 30.7189C95.2258 30.7189 96.1239 30.5713 97.055 30.2743C97.0743 30.2686 97.0889 30.2596 97.1066 30.2527Z" fill="white"/>
<path d="M123.669 16.7254C123.241 16.566 122.664 16.4937 122.304 16.4937C121.683 16.4937 121.031 16.6615 120.349 16.9965C119.666 17.3318 119.087 17.8116 118.61 18.4355L118.656 16.6316H116.113L113.428 30.4577H116.716L118.61 20.753C119.087 20.342 119.616 20.024 120.196 19.7996C120.775 19.5753 121.345 19.4627 121.906 19.4627C122.042 19.4627 122.211 19.4663 122.412 19.4737C122.542 19.4792 122.859 19.495 123.079 19.5051L123.669 16.7254Z" fill="white"/>
<path d="M18.1132 0.0670841C17.9896 -0.0197903 17.8243 -0.0222875 17.697 0.0595927C11.6119 3.9784 7.34924 9.15419 3.94982 14.1829C4.83929 13.4376 6.08975 12.8734 7.11438 12.3477C7.16044 12.3215 7.16044 12.2651 7.11438 12.2391C6.8506 12.0867 6.53579 12.04 6.33599 12.0263C6.28065 12.0224 6.26521 11.9485 6.31414 11.9222C7.59378 11.2396 9.28483 11.0294 9.99763 11.0051C10.0518 11.0043 10.0405 10.9667 10.0311 10.9477C10.0256 10.9386 10.0208 10.9298 10.0156 10.921C9.75033 10.4991 9.33242 10.1916 9.09929 10.0424C9.05369 10.0128 9.07333 9.94313 9.12709 9.94105C10.0083 9.90783 12.1145 9.45165 13.6675 9.74434C13.7265 9.7552 13.7611 9.69369 13.7357 9.63927C13.5822 9.30419 13.3153 9.00703 13.1487 8.89018C13.1084 8.86266 13.1227 8.79922 13.1708 8.79051C15.7962 8.33918 18.8045 9.33495 18.8045 9.33495C19.1129 9.40864 19.5684 9.15318 19.8003 8.83182L20.8417 7.38767C20.8787 7.26938 21.0454 7.26991 21.0819 7.38872C21.5919 9.08034 22.5312 10.6097 23.8072 11.8269L29.3633 17.3389C29.5376 17.512 29.5423 17.7941 29.3725 17.9727L27.7068 19.7218C27.4601 19.9872 27.0731 20.0649 26.7443 19.9161L23.8268 19.0976C23.727 19.0754 23.6271 19.0524 23.5274 19.0295L20.4397 18.4795C19.7447 18.3555 19.1106 18.002 18.638 17.4751L17.9636 16.7222C17.8325 16.5756 17.6081 16.5637 17.4618 16.6948L14.6553 19.2198C13.4934 20.2573 12.9551 20.7113 11.8633 21.48L9.88719 22.6519C11.8542 21.8937 16.5956 20.5842 20.2098 21.1608C20.3117 21.1765 20.3764 21.2738 20.3541 21.3755C19.9016 23.4585 18.1645 26.9778 16.4152 29.4833C16.2981 29.6513 16.1453 29.7896 15.966 29.887C15.2012 30.3027 13.0044 31.4979 12.215 31.9274C12.1063 31.9863 11.9806 31.8865 12.012 31.7661L12.6939 29.1813C12.7581 28.9371 12.936 28.7394 13.1707 28.6496L14.4617 28.155C14.7166 28.0579 14.9251 27.8669 15.0433 27.6203C15.3745 26.9278 15.6936 25.9156 15.8959 24.8513C15.9197 24.7264 15.8167 24.6134 15.691 24.6285C12.4818 25.0133 7.04883 26.7203 4.5988 28.6556C2.85899 30.0964 1.45177 31.3735 0.082765 33.2685C-0.0862832 33.5027 0.0144655 33.8353 0.286487 33.93C12.974 38.3312 26.2325 38.1081 37.1574 32.5605C37.3088 32.4842 37.4066 32.3255 37.4062 32.1553C37.3664 19.6495 28.0403 7.09261 18.1132 0.0670841Z" fill="white"/>
</svg>
