<svg width="66" height="66" viewBox="0 0 66 66" fill="none" xmlns="http://www.w3.org/2000/svg">
<path d="M33 66C51.1963 66 66 51.1963 66 33C66 14.8037 51.1963 0 33 0C14.8037 0 0 14.8037 0 33C0 51.1963 14.8037 66 33 66ZM33 2.94268C49.5739 2.94268 63.0573 16.4261 63.0573 33C63.0573 49.5739 49.5739 63.0573 33 63.0573C16.4261 63.0573 2.94268 49.5739 2.94268 33C2.94268 16.4261 16.4261 2.94268 33 2.94268Z" fill="url(#paint0_linear_96_624)"/>
<path d="M24.8655 30.0341C28.2311 30.0341 30.9586 27.3058 30.9586 23.9411C30.9594 20.5755 28.2311 17.8472 24.8655 17.8472C21.5 17.8472 18.7725 20.5755 18.7725 23.9402C18.7757 27.3041 21.5017 30.03 24.8655 30.0341ZM24.8655 20.7898C26.6054 20.7898 28.0159 22.2004 28.0159 23.9402C28.0168 25.6809 26.6062 27.0915 24.8655 27.0915C23.1257 27.0915 21.7151 25.6809 21.7151 23.9402C21.7168 22.2012 23.1265 20.7923 24.8655 20.7898Z" fill="url(#paint1_linear_96_624)"/>
<path d="M34.6719 42.4289C34.6719 45.7944 37.4002 48.5219 40.7649 48.5219C44.1305 48.5219 46.8588 45.7944 46.8588 42.4289C46.8588 39.0633 44.1305 36.335 40.7649 36.335C37.4011 36.3391 34.676 39.065 34.6719 42.4289ZM43.9162 42.4289C43.9162 44.1687 42.5056 45.5793 40.7649 45.5793C39.0251 45.5793 37.6145 44.1687 37.6145 42.4289C37.6145 40.689 39.0251 39.2785 40.7649 39.2776C42.5048 39.2801 43.9137 40.689 43.9162 42.4289Z" fill="url(#paint2_linear_96_624)"/>
<path d="M21.7968 50.1783C22.4774 50.6225 23.3896 50.4304 23.833 49.7497L44.632 17.8581C44.9202 17.4172 44.9514 16.8564 44.7141 16.3868C44.476 15.9172 44.0056 15.6101 43.4801 15.5822C42.9546 15.5542 42.4538 15.8088 42.1672 16.2505L21.3682 48.1421C20.924 48.8236 21.1161 49.7349 21.7968 50.1783Z" fill="url(#paint3_linear_96_624)"/>
<defs>
<linearGradient id="paint0_linear_96_624" x1="64.3163" y1="35.8696" x2="0.458468" y2="35.8696" gradientUnits="userSpaceOnUse">
<stop stop-color="#FF00B8"/>
<stop offset="1" stop-color="#00D1FF"/>
</linearGradient>
<linearGradient id="paint1_linear_96_624" x1="30.6478" y1="24.4705" x2="18.8571" y2="24.4705" gradientUnits="userSpaceOnUse">
<stop stop-color="#FF00B8"/>
<stop offset="1" stop-color="#00D1FF"/>
</linearGradient>
<linearGradient id="paint2_linear_96_624" x1="46.5479" y1="42.9583" x2="34.7565" y2="42.9583" gradientUnits="userSpaceOnUse">
<stop stop-color="#FF00B8"/>
<stop offset="1" stop-color="#00D1FF"/>
</linearGradient>
<linearGradient id="paint3_linear_96_624" x1="44.2667" y1="34.5135" x2="21.2938" y2="34.5135" gradientUnits="userSpaceOnUse">
<stop stop-color="#FF00B8"/>
<stop offset="1" stop-color="#00D1FF"/>
</linearGradient>
</defs>
</svg>
