<svg width="70" height="70" viewBox="0 0 70 70" fill="none" xmlns="http://www.w3.org/2000/svg">
<g clip-path="url(#clip0_96_640)">
<path d="M62.2902 12.0171L7.70557 12.0171C3.7468 12.0171 0.523437 15.2405 0.523437 19.1994L0.523437 50.801C0.523437 54.7598 3.7468 57.9831 7.70557 57.9831H62.2901C66.2488 57.9831 69.4722 54.7598 69.4722 50.801V19.1994C69.4723 15.2405 66.249 12.0171 62.2902 12.0171ZM66.5995 50.8008C66.5995 53.1768 64.6661 55.1102 62.2902 55.1102H7.70557C5.32966 55.1102 3.39626 53.1768 3.39626 50.8008L3.39626 19.1994C3.39626 16.8234 5.32966 14.8901 7.70557 14.8901L62.2901 14.8901C64.666 14.8901 66.5994 16.8234 66.5994 19.1994V50.8008H66.5995Z" fill="url(#paint0_linear_96_640)"/>
<path d="M68.0359 20.6357L1.95992 20.6357C1.16701 20.6357 0.523438 21.2793 0.523438 22.0722L0.523437 30.6908C0.523437 31.4838 1.16701 32.1273 1.95992 32.1273H68.036C68.8289 32.1273 69.4725 31.4838 69.4725 30.6908V22.0722C69.4724 21.2793 68.8288 20.6357 68.0359 20.6357ZM66.5995 29.2544H3.39626L3.39626 23.5086H66.5994V29.2544H66.5995Z" fill="url(#paint1_linear_96_640)"/>
<path d="M27.8158 40.7461H10.5786C9.78566 40.7461 9.14209 41.3897 9.14209 42.1826C9.14209 42.9755 9.78566 43.619 10.5786 43.619H27.8158C28.6087 43.619 29.2523 42.9754 29.2523 42.1825C29.2523 41.3896 28.6087 40.7461 27.8158 40.7461Z" fill="url(#paint2_linear_96_640)"/>
<path d="M27.8158 46.4918H10.5786C9.78566 46.4918 9.14209 47.1353 9.14209 47.9283C9.14209 48.7212 9.78566 49.3647 10.5786 49.3647H27.8158C28.6087 49.3647 29.2523 48.7212 29.2523 47.9283C29.2521 47.1353 28.6087 46.4918 27.8158 46.4918Z" fill="url(#paint3_linear_96_640)"/>
<path d="M56.5444 37.873H53.6716C51.2957 37.873 49.3623 39.8064 49.3623 42.1824V45.0552C49.3623 47.4311 51.2957 49.3645 53.6716 49.3645H56.5444C58.9204 49.3645 60.8537 47.4311 60.8537 45.0552V42.1824C60.8537 39.8066 58.9204 37.873 56.5444 37.873ZM57.9809 45.0553C57.9809 45.8482 57.3374 46.4918 56.5444 46.4918H53.6716C52.8787 46.4918 52.2351 45.8482 52.2351 45.0553V42.1825C52.2351 41.3896 52.8787 40.746 53.6716 40.746H56.5444C57.3374 40.746 57.9809 41.3896 57.9809 42.1825V45.0553Z" fill="url(#paint4_linear_96_640)"/>
</g>
<defs>
<linearGradient id="paint0_linear_96_640" x1="67.7133" y1="36.9986" x2="1.00239" y2="36.9986" gradientUnits="userSpaceOnUse">
<stop stop-color="#FF00B8"/>
<stop offset="1" stop-color="#00D1FF"/>
</linearGradient>
<linearGradient id="paint1_linear_96_640" x1="67.7136" y1="26.8812" x2="1.00239" y2="26.8812" gradientUnits="userSpaceOnUse">
<stop stop-color="#FF00B8"/>
<stop offset="1" stop-color="#00D1FF"/>
</linearGradient>
<linearGradient id="paint2_linear_96_640" x1="28.7393" y1="42.3074" x2="9.28178" y2="42.3074" gradientUnits="userSpaceOnUse">
<stop stop-color="#FF00B8"/>
<stop offset="1" stop-color="#00D1FF"/>
</linearGradient>
<linearGradient id="paint3_linear_96_640" x1="28.7393" y1="48.0532" x2="9.28178" y2="48.0532" gradientUnits="userSpaceOnUse">
<stop stop-color="#FF00B8"/>
<stop offset="1" stop-color="#00D1FF"/>
</linearGradient>
<linearGradient id="paint4_linear_96_640" x1="60.5606" y1="44.1184" x2="49.4421" y2="44.1184" gradientUnits="userSpaceOnUse">
<stop stop-color="#FF00B8"/>
<stop offset="1" stop-color="#00D1FF"/>
</linearGradient>
<clipPath id="clip0_96_640">
<rect width="68.9489" height="68.9489" fill="white" transform="translate(0.523438 0.525879)"/>
</clipPath>
</defs>
</svg>
