<svg width="66" height="73" viewBox="0 0 66 73" fill="none" xmlns="http://www.w3.org/2000/svg">
<path d="M60.2645 9.45315H59.402C61.0461 6.77651 60.439 3.18301 57.8004 1.22533C54.9574 -0.883831 50.9172 -0.204912 48.9332 2.76007L44.4544 9.45329H5.97995C2.81748 9.45329 0.244629 12.0261 0.244629 15.1886V51.8568C0.244629 55.0193 2.81748 57.5921 5.97995 57.5921H28.2576L26.5744 64.662H22.9414C20.5737 64.662 18.6474 66.5881 18.6474 68.9558V69.8524H14.1689C13.3847 69.8524 12.7491 70.4882 12.7491 71.2721C12.7491 72.0561 13.3847 72.6919 14.1689 72.6919H52.0757C52.8599 72.6919 53.4955 72.0561 53.4955 71.2721C53.4955 70.4882 52.8599 69.8524 52.0757 69.8524H47.5972V68.9558C47.5972 66.5881 45.6709 64.662 43.3032 64.662H39.6702L37.987 57.5921H60.2647C63.4271 57.5921 66 55.0193 66 51.8568V43.7884V15.1885C66 12.026 63.4271 9.45315 60.2645 9.45315V9.45315ZM39.9222 34.412C37.7025 35.9659 33.5439 33.8538 29.5726 35.9729C28.6036 30.9392 29.2145 26.2051 34.2582 25.1601C34.91 25.0243 35.6117 24.9628 36.2092 24.9747C37.9163 26.2413 39.643 27.5223 41.3452 28.7855C42.0904 30.9531 41.8107 33.0901 39.9222 34.412ZM41.353 19.1941L45.3719 22.1759L42.2813 25.944C41.0089 25 39.9151 24.1885 38.6427 23.2444C38.907 22.8495 41.1115 19.5549 41.353 19.1941V19.1941ZM51.2932 4.33925C52.3685 2.73196 54.5616 2.358 56.1085 3.50586C57.656 4.65386 57.9332 6.86099 56.7069 8.35612C54.5312 11.0086 49.3585 17.3152 47.1745 19.978L42.9338 16.8315L51.2932 4.33925ZM44.7576 68.9558V69.8524H21.4869V68.9558C21.4869 68.154 22.1394 67.5015 22.9414 67.5015H43.303C44.105 67.5015 44.7576 68.154 44.7576 68.9558ZM36.7512 64.662H29.4932L31.1765 57.5921H35.068L36.7512 64.662ZM63.1605 51.8568C63.1605 53.4536 61.8614 54.7526 60.2647 54.7526C58.011 54.7526 8.51404 54.7526 5.98009 54.7526C4.38331 54.7526 3.08425 53.4536 3.08425 51.8568V45.2081H7.14129C7.92542 45.2081 8.56103 44.5724 8.56103 43.7884C8.56103 43.0044 7.92542 42.3687 7.14129 42.3687H3.08396V15.1885C3.08396 13.5917 4.38303 12.2926 5.97981 12.2926H42.5544C41.1943 14.3253 37.2263 20.2552 35.9694 22.1334C33.1871 22.1585 30.4094 23.1278 28.591 25.2506C26.1165 28.139 25.6818 32.6777 27.2989 38.7402C27.5753 39.7769 28.8688 40.1483 29.6515 39.4007C33.3226 35.893 37.8947 39.7192 41.9891 36.4052C44.4884 34.3821 45.0798 31.1658 44.1374 28.1582C45.4113 26.605 55.8735 13.8495 57.1505 12.2926H60.2644C61.8612 12.2926 63.1602 13.5917 63.1602 15.1885V42.3685H18.4989C17.7148 42.3685 17.0792 43.0043 17.0792 43.7883C17.0792 44.5722 17.7148 45.208 18.4989 45.208H63.1605V51.8568Z" fill="url(#paint0_linear_204_1864)"/>
<path d="M12.5458 42.3961C11.8623 42.5358 11.4043 43.1265 11.4043 43.789C11.4043 44.6771 12.2163 45.3571 13.1009 45.1804C13.887 45.0208 14.3659 44.2632 14.2154 43.5107C14.0574 42.7341 13.3041 42.2434 12.5458 42.3961V42.3961Z" fill="url(#paint1_linear_204_1864)"/>
<defs>
<linearGradient id="paint0_linear_204_1864" x1="64.3226" y1="39.5065" x2="0.701397" y2="39.5065" gradientUnits="userSpaceOnUse">
<stop stop-color="#FF00B8"/>
<stop offset="1" stop-color="#00D1FF"/>
</linearGradient>
<linearGradient id="paint1_linear_204_1864" x1="14.1706" y1="43.9119" x2="11.424" y2="43.9119" gradientUnits="userSpaceOnUse">
<stop stop-color="#FF00B8"/>
<stop offset="1" stop-color="#00D1FF"/>
</linearGradient>
</defs>
</svg>
