<svg width="54" height="60" viewBox="0 0 54 60" fill="none" xmlns="http://www.w3.org/2000/svg">
<path d="M32.0921 45.2778C28.8127 46.3721 25.1954 46.3719 21.9066 45.2774C20.9852 44.9706 19.9901 45.469 19.6837 46.3901C19.3771 47.3112 19.8753 48.3066 20.7965 48.6131C22.7992 49.2797 24.9017 49.6128 27.0036 49.6128C29.1055 49.6128 31.2069 49.2793 33.2049 48.6127C34.1258 48.3054 34.6232 47.3098 34.3159 46.3888C34.0087 45.468 33.0132 44.9708 32.0921 45.2778V45.2778Z" fill="url(#paint0_linear_204_1868)"/>
<path d="M47.4768 11.4843C46.7287 6.11824 42.121 1.88285 36.4141 1.88285H34.4062V1.75781C34.4062 0.787031 33.6191 0 32.6484 0H21.3515C20.3807 0 19.5937 0.787031 19.5937 1.75781V1.88273H17.5859C11.9268 1.88273 7.31277 6.05906 6.52809 11.483C3.23301 12.2329 0.765625 15.1842 0.765625 18.703V33.7656C0.765625 38.5827 4.68941 40.5459 6.47172 40.9696C7.27656 51.814 16.3824 60 26.9999 60C37.8276 60 46.7294 51.5971 47.5273 40.97C52.1473 39.8732 53.2342 35.6816 53.2342 33.7657V18.7031C53.2343 15.1861 50.7693 12.2359 47.4768 11.4843V11.4843ZM34.4062 5.39836H36.4139C41.3876 5.39836 43.4423 9.46488 43.8694 11.2969H34.4062V5.39836ZM23.1093 3.51562H30.8905V11.2969H23.1093V3.51562ZM17.5859 5.39836H19.5937V11.2969H10.1377C11.2778 6.52078 15.6046 5.39836 17.5859 5.39836V5.39836ZM26.9999 56.4844C18.3239 56.4844 10.9077 49.9118 10.019 41.1718H18.6873C20.8444 41.1718 22.955 40.2977 24.4778 38.7737C24.4868 38.7647 24.4957 38.7555 24.5046 38.7463C25.1659 38.0994 26.0732 37.7292 26.9999 37.7292C27.9269 37.7292 28.8341 38.0995 29.4953 38.7464C29.5041 38.7555 29.513 38.7647 29.5221 38.7737C31.045 40.2977 33.1555 41.1718 35.3127 41.1718H43.9803C43.0975 49.7618 35.8191 56.4844 26.9999 56.4844V56.4844ZM49.7187 33.7657C49.7187 35.9412 47.9455 37.6562 45.8281 37.6562H35.3127C34.0949 37.6562 32.9036 37.1686 32.0376 36.317C32.0281 36.307 32.0185 36.2972 32.0087 36.2873C30.6909 34.9695 28.8653 34.2136 27 34.2136C25.1349 34.2136 23.3093 34.9695 21.9914 36.2873C21.9817 36.2971 21.972 36.3069 21.9625 36.3169C21.0964 37.1686 19.905 37.6562 18.6873 37.6562H8.17176C6.06098 37.6562 4.28113 35.9486 4.28113 33.7657V18.7031C4.28113 16.5579 6.02652 14.8126 8.17176 14.8126H45.828C47.9733 14.8126 49.7186 16.558 49.7186 18.7031V33.7657H49.7187Z" fill="url(#paint1_linear_204_1868)"/>
<defs>
<linearGradient id="paint0_linear_204_1868" x1="34.0289" y1="47.5923" x2="19.6962" y2="47.5923" gradientUnits="userSpaceOnUse">
<stop stop-color="#FF00B8"/>
<stop offset="1" stop-color="#00D1FF"/>
</linearGradient>
<linearGradient id="paint1_linear_204_1868" x1="51.8957" y1="32.6087" x2="1.1301" y2="32.6087" gradientUnits="userSpaceOnUse">
<stop stop-color="#FF00B8"/>
<stop offset="1" stop-color="#00D1FF"/>
</linearGradient>
</defs>
</svg>
