<svg width="68" height="64" viewBox="0 0 68 64" fill="none" xmlns="http://www.w3.org/2000/svg">
<path d="M57.4452 16.8312C56.6747 15.1529 55.3326 13.7642 53.8729 12.6453C56.7774 6.50422 54.2528 1.2256 54.1369 0.990432C53.9654 0.643346 53.6591 0.380612 53.2892 0.265147C51.5209 -0.282619 49.7375 0.944886 48.3809 2.32891C48.0959 1.35377 47.7916 0.789751 47.7517 0.719401C47.4074 0.110964 46.6704 -0.155919 46.017 0.0922956C42.7812 1.3192 40.6105 2.74211 39.1565 4.16762C36.1849 1.99167 30.9853 1.82565 28.6191 2.60348C26.9943 3.13794 25.4069 4.02501 23.8996 5.24051C21.414 7.2442 19.9828 6.81138 19.962 6.81069H19.9627C19.1178 6.39852 18.1237 6.90637 17.9494 7.81738C17.4661 10.3507 19.6862 12.2009 21.5696 13.2857C19.4787 14.1361 16.3833 14.4037 14.484 14.3442C12.0911 14.1299 10.2201 14.7065 8.91198 16.0569C6.74995 18.2901 7.14613 21.7651 7.16411 21.9117C7.22149 22.3798 7.50704 22.7884 7.92673 23.002C8.3471 23.2157 8.84422 23.2067 9.25699 22.9785C11.2842 21.8529 13.6785 22.3334 15.2466 22.8873C12.6822 25.2339 9.57504 26.4452 8.21159 26.896C7.82786 27.0226 7.40402 27.0703 7.04035 27.1007C4.54852 27.3074 3.24245 28.4925 2.58562 29.4508C0.760995 32.1127 1.78428 35.8477 1.90666 36.2653C2.02419 36.6656 2.31251 36.9933 2.69417 37.1613C3.07721 37.3307 3.51279 37.3211 3.88753 37.1378C7.37706 35.4314 8.43284 35.8836 8.60984 35.9929C8.91544 36.1809 8.96937 36.7776 8.97421 37.1171C8.9908 38.2323 8.46533 39.3538 7.56927 40.1178C5.90437 41.5359 3.62826 43.0549 3.60544 43.0701C3.56119 43.0998 3.51832 43.1316 3.47753 43.1662C-0.857586 46.8203 0.888905 52.0065 2.41899 54.2384C2.71422 54.6691 3.21549 54.9014 3.74303 54.8447C4.26297 54.7874 4.70823 54.4479 4.90183 53.9625C5.35401 52.8279 5.92926 52.1234 6.61167 51.8682C7.11709 51.6788 7.62942 51.7625 7.95369 51.8565C8.25307 52.5617 8.47087 53.8519 6.77554 55.4622C6.49068 55.7325 6.16641 55.8943 5.8615 55.9178C1.74348 56.2324 0.234144 59.724 0.0108194 61.5265C-0.0845946 62.2981 0.461616 62.9971 1.23253 63.0988C2.03149 63.1964 2.71594 62.6348 2.82069 61.8839C2.86218 61.5846 3.30744 58.9531 6.07652 58.7415C7.02928 58.6689 7.97098 58.2333 8.72599 57.515C11.0948 55.2651 11.6327 52.5403 10.2015 50.0374C10.0715 49.8106 9.88202 49.6246 9.65317 49.4988C9.45681 49.3909 7.68612 48.4727 5.6762 49.1953C4.96129 49.4518 4.32519 49.8742 3.77207 50.4571C3.36898 48.9699 3.37313 46.9973 5.24615 45.3801C5.66583 45.098 7.76356 43.673 9.40565 42.2736C10.9378 40.9682 11.8346 39.0247 11.8062 37.0756C11.7765 35.038 10.8576 34.05 10.0915 33.5792C8.77301 32.7695 6.88893 32.8497 4.36253 33.8336C4.30653 32.8954 4.40194 31.8057 4.92533 31.0465C5.38304 30.3835 6.1512 30.0164 7.27404 29.923C7.77254 29.8815 8.43007 29.8062 9.10004 29.5849C10.9413 28.9765 15.5661 27.147 18.7424 23.3187C19.3011 22.6447 19.1195 21.6368 18.3739 21.1961C18.1782 21.0799 14.2116 18.7762 10.1178 19.6639C10.2609 19.0749 10.514 18.474 10.9468 18.0274C11.6306 17.3214 12.7361 17.0324 14.3105 17.17C15.1498 17.1956 22.6329 17.3477 25.4864 13.9702C25.7851 13.6162 25.8922 13.1377 25.7719 12.6897C25.6516 12.2417 25.3197 11.8815 24.8835 11.7245C23.668 11.2875 22.1462 10.4461 21.32 9.59775C22.4684 9.40899 23.9494 8.8372 25.6765 7.44471C26.9176 6.44493 28.205 5.72103 29.5041 5.29374C31.2382 4.72541 35.3942 4.9585 37.4123 6.3847C36.4697 8.03128 36.3108 9.53699 36.3643 10.5699C12.8634 19.7427 12.806 59.9736 12.8157 61.7076C12.8198 62.4869 13.4531 63.116 14.2317 63.116H14.2393C15.0212 63.1119 15.6518 62.4744 15.6477 61.6924C15.6456 61.2817 15.7057 20.5012 38.3922 12.8446C39.1351 12.5945 39.5346 11.7851 39.2778 11.0407C39.2619 10.9958 37.8923 6.71666 45.7169 3.27276C46.2064 5.0483 46.613 8.75285 43.9511 13.843C43.5888 14.5358 43.857 15.3917 44.5498 15.754C45.2412 16.1156 46.0979 15.8481 46.4609 15.1553C46.9696 14.1825 47.3696 13.2535 47.6997 12.3605C50.0009 13.3289 53.6363 15.3206 54.8428 17.9451C54.9244 18.1498 62.9993 38.4702 65.0334 44.8083C65.2934 45.6186 65.0403 46.5313 64.4319 46.98C64.1001 47.2246 63.6491 47.4676 63.0839 47.676L61.0613 42.5958C60.7716 41.8691 59.9495 41.5144 59.2215 41.8041C58.4955 42.0938 58.1408 42.9173 58.4298 43.644L60.2383 48.1863C59.3501 48.2231 58.3331 48.1862 57.1286 48.0192C56.6577 47.9542 56.3037 47.5449 56.3065 47.0657C56.3217 43.9295 54.8801 41.6956 52.2465 40.7753C52.1622 40.7456 52.0758 40.7242 51.9873 40.711C49.0979 40.2817 41.3348 38.1846 40.1068 33.6248C40.0889 33.5702 38.3638 28.1005 41.2677 24.4955C41.7579 23.8863 41.6625 22.9951 41.0534 22.5042C40.4442 22.014 39.5537 22.1094 39.0621 22.7186C35.1833 27.5349 37.3226 34.2249 37.3931 34.4324C37.8339 36.0714 38.794 37.4247 40.0073 38.5486C39.6807 41.2998 38.9197 52.2799 45.8213 62.4931C46.2575 63.1374 47.135 63.3128 47.7877 62.8734C48.4355 62.4357 48.6056 61.5548 48.1679 60.907C42.8279 53.0056 42.5116 44.3871 42.6999 40.4887C46.3377 42.5676 50.5643 43.3489 51.4286 43.4898C52.0543 43.7193 53.4876 44.3921 53.4745 47.0512C53.4648 48.945 54.8697 50.567 56.7421 50.8249C59.8811 51.2573 63.5787 51.1244 66.1106 49.2603C67.6953 48.0939 68.3612 45.9069 67.7299 43.9427C65.6667 37.5133 57.8075 17.737 57.4452 16.8312ZM48.8885 6.16932C49.9129 4.69983 51.1638 3.49998 51.9195 3.09991C52.3705 4.53216 52.9645 7.59958 51.4703 11.066C50.3302 10.423 49.2744 9.9482 48.4996 9.63361C48.7742 8.35736 48.8849 7.19986 48.8885 6.16932Z" fill="url(#paint0_linear_96_633)"/>
<path d="M26.3002 34.8424C26.0893 35.1321 21.1562 42.1754 22.6461 61.8072C22.7021 62.5505 23.323 63.1161 24.0566 63.1161C24.8835 63.1161 25.5325 62.4144 25.4698 61.5929C24.078 43.2547 28.5203 36.6103 28.5978 36.4976C29.0499 35.8657 28.9075 34.9855 28.2776 34.5285C27.6457 34.0701 26.76 34.2097 26.3002 34.8424Z" fill="url(#paint1_linear_96_633)"/>
<path d="M50.6654 26.0594L50.8072 26.0518C51.5878 26.0096 52.1872 25.3431 52.145 24.5618C52.1035 23.7812 51.4446 23.1852 50.655 23.224L50.5133 23.2316C49.7327 23.2737 49.1333 23.9402 49.1754 24.7215C49.2162 25.4766 49.8406 26.0615 50.588 26.0615C50.6136 26.0615 50.6391 26.0608 50.6654 26.0594Z" fill="url(#paint2_linear_96_633)"/>
<defs>
<linearGradient id="paint0_linear_96_633" x1="66.2323" y1="34.3022" x2="0.472125" y2="34.3022" gradientUnits="userSpaceOnUse">
<stop stop-color="#FF00B8"/>
<stop offset="1" stop-color="#00D1FF"/>
</linearGradient>
<linearGradient id="paint1_linear_96_633" x1="28.6962" y1="49.9421" x2="22.4113" y2="49.9421" gradientUnits="userSpaceOnUse">
<stop stop-color="#FF00B8"/>
<stop offset="1" stop-color="#00D1FF"/>
</linearGradient>
<linearGradient id="paint2_linear_96_633" x1="52.0713" y1="24.7653" x2="49.194" y2="24.7653" gradientUnits="userSpaceOnUse">
<stop stop-color="#FF00B8"/>
<stop offset="1" stop-color="#00D1FF"/>
</linearGradient>
</defs>
</svg>
