<svg width="69" height="46" viewBox="0 0 69 46" fill="none" xmlns="http://www.w3.org/2000/svg">
<path fill-rule="evenodd" clip-rule="evenodd" d="M34.3756 23.0588H30.3154H30.314H30.3138C24.3531 23.0588 19.5049 27.907 19.5049 33.8676V39.1227C28.8765 43.8302 39.8755 43.8305 49.2461 39.1235V33.8676L49.2463 33.8411C49.2369 29.9407 47.1517 26.5196 44.039 24.6261C43.8951 24.5899 43.7549 24.5297 43.624 24.4447C43.5446 24.393 43.4723 24.3344 43.4074 24.2703C41.9187 23.4964 40.2283 23.0588 38.4375 23.0588H38.4363H34.3756ZM43.9956 21.5007C43.1594 21.1234 42.2784 20.8286 41.363 20.6265C44.105 18.4966 45.905 15.1782 45.905 11.5294C45.905 5.28 40.625 0 34.3756 0C28.1262 0 22.8462 5.28 22.8462 11.5294C22.8462 15.1782 24.6462 18.4966 27.3882 20.6265C26.4427 20.8353 25.5339 21.143 24.6733 21.5383C23.3224 19.9187 21.5328 18.7578 19.5347 18.1814C21.3735 16.522 22.5493 14.1337 22.5493 11.5294C22.5493 6.65638 18.4326 2.53963 13.5596 2.53963C8.68657 2.53963 4.56982 6.65638 4.56982 11.5294C4.56982 14.1355 5.74727 16.5253 7.58815 18.1847C3.21072 19.4552 0.000488274 23.5017 0.000488274 28.2837V32.7982C-0.00389136 32.9142 0.00650246 33.0297 0.0308186 33.1419C0.119986 33.56 0.398715 33.9072 0.773025 34.0896C3.55979 35.5681 6.55831 36.5458 9.68333 36.9971C9.7507 37.0067 9.8167 37.0109 9.88133 37.0109C10.5537 37.0109 11.1422 36.5173 11.2412 35.8311C11.3485 35.079 10.8273 34.3819 10.0752 34.2732C7.51985 33.9052 5.05895 33.1458 2.75049 32.0103L2.75049 28.2837C2.75049 24.002 6.23336 20.5191 10.5137 20.5205C10.5346 20.5205 10.5553 20.52 10.5759 20.5191H13.5596H16.6063L16.6079 20.5191C18.7788 20.5191 20.8106 21.4145 22.2632 22.9636C18.9238 25.4355 16.7549 29.4028 16.7549 33.8676V39.9067C16.7442 40.1883 16.8208 40.4671 16.9724 40.7036C17.0953 40.8953 17.2674 41.0592 17.4823 41.1744C22.772 43.9945 28.5731 45.4052 34.3756 45.4052C40.1781 45.4052 45.9792 43.9931 51.2702 41.1744C51.7604 40.9117 52.0281 40.3948 51.9961 39.874V33.8958L51.9964 33.8676C51.9964 29.3732 49.7983 25.3822 46.4204 22.9138C47.8692 21.3946 49.8817 20.5191 52.0294 20.5191C52.0487 20.5191 52.0679 20.5187 52.087 20.5179C52.1061 20.5187 52.1252 20.5191 52.1445 20.5191H55.1918H58.1751C58.1885 20.5197 58.202 20.5201 58.2156 20.5203C58.2228 20.5204 58.23 20.5205 58.2373 20.5205C62.5136 20.5205 65.994 23.9968 66.0005 28.2717L66.0005 28.2837V32.0118C63.6923 33.1472 61.2326 33.9066 58.6761 34.2746C57.924 34.3832 57.4028 35.0804 57.5101 35.8325C57.6091 36.5172 58.1976 37.0109 58.87 37.0109C58.9346 37.0109 59.0006 37.0067 59.068 36.9985C62.2098 36.5447 65.2238 35.5589 68.0234 34.067C68.506 33.8093 68.7729 33.3038 68.7505 32.7909V28.2968L68.7505 28.2837C68.7505 23.5028 65.5412 19.4554 61.1632 18.1848C63.0041 16.5253 64.1816 14.1355 64.1816 11.5294C64.1816 6.65638 60.0648 2.53963 55.1918 2.53963C50.3174 2.53963 46.2007 6.65638 46.2007 11.5294C46.2007 14.121 47.3651 16.4988 49.1887 18.1571C47.1719 18.7205 45.3622 19.8778 43.9956 21.5007ZM34.3756 20.3088C29.6167 20.3088 25.5962 16.2883 25.5962 11.5294C25.5962 6.7705 29.6167 2.75 34.3756 2.75C39.1345 2.75 43.1549 6.7705 43.1549 11.5294C43.1549 16.2883 39.1345 20.3088 34.3756 20.3088ZM13.5596 17.7691C10.1771 17.7691 7.31982 14.9119 7.31982 11.5294C7.31982 8.14688 10.1771 5.28963 13.5596 5.28963C16.9421 5.28963 19.7993 8.14688 19.7993 11.5294C19.7993 14.9119 16.9421 17.7691 13.5596 17.7691ZM48.9507 11.5294C48.9507 14.9119 51.8093 17.7691 55.1918 17.7691C58.5743 17.7691 61.4316 14.9119 61.4316 11.5294C61.4316 8.14688 58.5743 5.28963 55.1918 5.28963C51.8093 5.28963 48.9507 8.14688 48.9507 11.5294Z" fill="url(#paint0_linear_204_1737)"/>
<defs>
<linearGradient id="paint0_linear_204_1737" x1="66.9979" y1="24.6768" x2="0.477098" y2="24.6768" gradientUnits="userSpaceOnUse">
<stop stop-color="#FF00B8"/>
<stop offset="1" stop-color="#00D1FF"/>
</linearGradient>
</defs>
</svg>
