<svg width="67" height="67" viewBox="0 0 67 67" fill="none" xmlns="http://www.w3.org/2000/svg">
<path d="M61.5926 16.8685C62.1655 16.8685 62.7229 16.9748 63.2489 17.184C64.0935 17.5203 65.0469 17.4167 65.7988 16.9066C66.5492 16.3976 66.9973 15.552 66.9973 14.6448V7.17461C66.9974 3.21861 63.7789 0 59.8226 0H52.3528C51.4419 0 50.5931 0.45081 50.0821 1.20613C49.5757 1.95504 49.4735 2.90115 49.8088 3.73734C50.0579 4.35905 50.1625 5.01923 50.1194 5.69957C49.9781 7.92692 48.1931 9.72244 45.9673 9.87607C44.7064 9.9644 43.5065 9.53911 42.5886 8.68237C41.6699 7.82472 41.1638 6.66086 41.1638 5.40474C41.1638 4.83197 41.2701 4.27464 41.4795 3.74846C41.8156 2.9035 41.712 1.95032 41.202 1.19854C40.6931 0.448062 39.8475 0 38.9403 0H31.47C27.514 0 24.2954 3.21861 24.2954 7.17461V14.662C24.2954 14.6807 24.2954 14.7244 24.2441 14.7588C24.1921 14.7941 24.1506 14.777 24.133 14.7701C23.2851 14.4259 22.3879 14.2513 21.4664 14.2513C19.5061 14.2513 17.6142 15.0735 16.2759 16.5071C14.9187 17.9608 14.2469 19.8585 14.384 21.8507C14.4438 22.7187 14.6612 23.5434 15.0063 24.2978H7.17488C3.21874 24.2978 0.000130859 27.5164 0.000130859 31.4724V38.9426C0.000130859 39.8499 0.448193 40.6955 1.19854 41.2044C1.95059 41.7145 2.90376 41.8181 3.74859 41.4818C4.27464 41.2724 4.83184 41.1663 5.40474 41.1663C6.66178 41.1663 7.82642 41.673 8.6842 42.5929C9.54107 43.512 9.96427 44.7131 9.87568 45.975C9.72807 48.0793 7.7483 50.0188 5.63911 50.1253C4.97932 50.1576 4.33994 50.053 3.7376 49.8114C2.90128 49.4761 1.95517 49.5783 1.20626 50.0846C0.450941 50.5955 0 51.4444 0 52.3553V59.8253C0.000130859 63.7813 3.21861 66.9999 7.17488 66.9999H14.645C15.5522 66.9999 16.3978 66.5518 16.9067 65.8015C17.4167 65.0497 17.5203 64.0965 17.1843 63.2515C16.9748 62.7254 16.8687 62.168 16.8687 61.5953C16.8687 60.3382 17.3753 59.1736 18.2953 58.3158C19.2143 57.4588 20.4149 57.0359 21.6772 57.1243C23.7817 57.2719 25.7211 59.2517 25.8277 61.3609C25.861 62.0203 25.7553 62.6601 25.5137 63.2625C25.1783 64.0987 25.2805 65.0448 25.787 65.7937C26.2977 66.5489 27.1466 67 28.0576 67H35.5276C39.4836 67 42.7022 63.7814 42.7022 59.8254V51.9923C43.456 52.3367 44.5335 52.5624 45.4004 52.6222C45.5704 52.6339 45.2321 52.6222 45.4004 52.6222C47.2056 52.6222 49.1606 51.963 50.4903 50.7217C51.9239 49.3834 52.746 47.4914 52.746 45.531C52.746 44.6096 52.5715 43.7126 52.2273 42.8645C52.2201 42.8468 52.2034 42.8056 52.2384 42.7534C52.2731 42.7021 52.3167 42.7021 52.3353 42.7021H53.9341C54.6567 42.7021 55.2427 42.1161 55.2427 41.3935C55.2427 40.6709 54.6567 40.0849 53.9341 40.0849H52.3353C51.4241 40.0849 50.5764 40.536 50.0676 41.2915C49.5584 42.0477 49.4594 43.0036 49.8024 43.8487C50.0189 44.3826 50.1289 44.9485 50.1289 45.5309C50.1289 46.7868 49.623 47.9508 48.7042 48.8084C47.7865 49.6651 46.5856 50.0888 45.3263 50.0023C43.0906 49.8483 41.3048 48.0441 41.1721 45.8055C41.1316 45.1234 41.24 44.4623 41.4939 43.8403C41.8362 43.0019 41.7382 42.0513 41.2317 41.2974C40.7217 40.5381 39.8713 40.0848 38.9573 40.0848H31.47C28.957 40.0848 26.9126 38.0404 26.9126 35.5273V28.0401C26.9126 27.126 26.4593 26.2759 25.6999 25.7656C24.9461 25.2592 23.9955 25.1611 23.1572 25.5034C22.5352 25.7573 21.8743 25.8654 21.1916 25.8252C18.9531 25.6926 17.1488 23.9068 16.9951 21.6711C16.9083 20.4104 17.3323 19.2108 18.1889 18.2932C19.0465 17.3744 20.2104 16.8685 21.4664 16.8685C22.0488 16.8685 22.6148 16.9784 23.1488 17.1951C23.9942 17.538 24.95 17.4388 25.706 16.9296C26.4614 16.4209 26.9125 15.5732 26.9125 14.662V7.17461C26.9126 4.66159 28.957 2.61718 31.47 2.61718H38.9403C38.9587 2.61718 39.002 2.61718 39.0361 2.66769C39.0718 2.7203 39.0544 2.76427 39.0478 2.78063C38.7153 3.61616 38.5466 4.49894 38.5466 5.40474C38.5466 7.36527 39.369 9.25724 40.8028 10.5957C42.2568 11.9528 44.1554 12.6244 46.1475 12.4871C49.677 12.2434 52.5075 9.39673 52.7314 5.86511C52.7996 4.79285 52.6335 3.74924 52.2379 2.76322C52.2315 2.74726 52.2196 2.71742 52.2501 2.67254C52.2875 2.61718 52.3367 2.61718 52.3528 2.61718H59.8226C62.3357 2.61718 64.3802 4.66159 64.3802 7.17461V14.6448C64.3802 14.6633 64.3802 14.7066 64.3297 14.7406C64.2772 14.7761 64.233 14.7588 64.2168 14.7524C63.3814 14.4199 62.4984 14.2513 61.5926 14.2513C59.6321 14.2513 57.74 15.0737 56.4017 16.5075C55.0446 17.9615 54.3729 19.8594 54.5103 21.852C54.7537 25.3814 57.6005 28.212 61.1319 28.4359C62.2053 28.5049 63.2484 28.3381 64.2342 27.9425C64.2504 27.9361 64.2801 27.9244 64.3248 27.9546C64.3802 27.9921 64.3802 28.0411 64.3802 28.0574V35.5273C64.3802 36.3217 64.1731 37.1033 63.7814 37.7875C63.4222 38.4147 63.6395 39.2142 64.2667 39.5732C64.894 39.9323 65.6934 39.7151 66.0526 39.0879C66.6706 38.0083 66.9974 36.777 66.9974 35.5272V28.0572C66.9974 27.1463 66.5466 26.2976 65.7913 25.7866C65.0423 25.28 64.0964 25.1781 63.2598 25.5132C62.6385 25.7625 61.9789 25.8669 61.2977 25.8239C59.0703 25.6825 57.2748 23.8975 57.1213 21.6717C57.0343 20.4109 57.4581 19.211 58.315 18.2932C59.1725 17.3746 60.3367 16.8685 61.5926 16.8685V16.8685ZM24.1465 27.9265C24.163 27.9197 24.1943 27.907 24.2405 27.9382C24.2954 27.9751 24.2954 28.024 24.2954 28.0401V35.5273C24.2954 39.4833 27.514 42.7019 31.47 42.7019H38.9573C38.9734 42.7019 39.0223 42.7019 39.0592 42.7569C39.0902 42.8032 39.0777 42.8342 39.0709 42.8509C38.6677 43.8381 38.4956 44.8843 38.5595 45.9603C38.6482 47.4583 39.2054 48.8326 40.0849 49.9402V59.8253C40.0849 62.3383 38.0405 64.3827 35.5275 64.3827H28.0575C28.0414 64.3827 27.9922 64.3827 27.9548 64.3273C27.9244 64.2824 27.9363 64.2527 27.9427 64.2368C28.3263 63.2806 28.4941 62.2687 28.4416 61.229C28.3578 59.5709 27.6224 57.9541 26.3706 56.6761C25.1183 55.3976 23.5164 54.6296 21.8603 54.5136C19.8662 54.3729 17.9666 55.0442 16.5106 56.4016C15.0748 57.7401 14.2515 59.6332 14.2515 61.5953C14.2515 62.5008 14.42 63.3836 14.7525 64.2192C14.7591 64.2357 14.7766 64.2797 14.7408 64.3323C14.7067 64.3827 14.6633 64.3827 14.645 64.3827H7.17488C4.66186 64.3827 2.61731 62.3383 2.61731 59.8253V52.3553C2.61731 52.3392 2.61731 52.29 2.67267 52.2526C2.71768 52.2222 2.74752 52.2341 2.76335 52.2405C3.71954 52.6241 4.73174 52.7917 5.77102 52.7394C7.42913 52.6556 9.0459 51.9202 10.3237 50.6685C11.6024 49.4162 12.3704 47.8144 12.4864 46.1582C12.6262 44.1643 11.9557 42.2644 10.5984 40.8084C9.25985 39.3726 7.36685 38.5493 5.40474 38.5493C4.49894 38.5493 3.61603 38.7178 2.78076 39.0503C2.76414 39.0569 2.71991 39.0743 2.66769 39.0385C2.61718 39.0044 2.61718 38.9611 2.61718 38.9428V31.4725C2.61718 28.9595 4.66173 26.9151 7.17474 26.9151H17.0602C18.1673 27.793 19.5403 28.3492 21.0368 28.4379C22.1126 28.5019 23.1591 28.3296 24.1465 27.9265V27.9265Z" fill="url(#paint0_linear_204_1887)"/>
<path d="M59.8223 40.0846C59.4781 40.0846 59.1405 40.2247 58.8971 40.4682C58.6537 40.7115 58.5137 41.0491 58.5137 41.3932C58.5137 41.7375 58.6536 42.075 58.8971 42.3184C59.1418 42.5618 59.4781 42.7018 59.8223 42.7018C60.1664 42.7018 60.504 42.5619 60.7473 42.3184C60.992 42.075 61.1309 41.7375 61.1309 41.3932C61.1309 41.0491 60.992 40.7115 60.7473 40.4682C60.504 40.2248 60.1664 40.0846 59.8223 40.0846Z" fill="url(#paint1_linear_204_1887)"/>
<defs>
<linearGradient id="paint0_linear_204_1887" x1="65.2883" y1="36.413" x2="0.465396" y2="36.413" gradientUnits="userSpaceOnUse">
<stop stop-color="#FF00B8"/>
<stop offset="1" stop-color="#00D1FF"/>
</linearGradient>
<linearGradient id="paint1_linear_204_1887" x1="61.0641" y1="41.507" x2="58.5319" y2="41.507" gradientUnits="userSpaceOnUse">
<stop stop-color="#FF00B8"/>
<stop offset="1" stop-color="#00D1FF"/>
</linearGradient>
</defs>
</svg>
