<svg width="58" height="66" viewBox="0 0 58 66" fill="none" xmlns="http://www.w3.org/2000/svg">
<path d="M56.8913 29.5325C56.0171 22.7062 52.6722 16.4193 47.4707 11.8257C42.2692 7.23216 35.56 4.6401 28.5744 4.52524L30.5655 2.58036C30.7096 2.44159 30.8244 2.27611 30.9032 2.09347C30.9821 1.91082 31.0235 1.71461 31.0251 1.51614C31.0266 1.31766 30.9883 1.12085 30.9122 0.937036C30.8362 0.753221 30.724 0.586035 30.5821 0.44511C30.4402 0.304184 30.2713 0.192303 30.0853 0.115911C29.8993 0.0395186 29.6998 0.000125396 29.4982 2.98886e-07C29.2967 -0.000124799 29.0971 0.0390207 28.911 0.115182C28.7249 0.191343 28.5559 0.303014 28.4138 0.443764L23.5741 5.17133C23.4316 5.31044 23.3184 5.47583 23.2408 5.65806C23.1633 5.84029 23.1229 6.03578 23.1221 6.23337C23.1213 6.43096 23.16 6.62677 23.236 6.80962C23.312 6.99247 23.4239 7.15878 23.5652 7.29904L28.4048 12.1045C28.5457 12.2464 28.7138 12.3594 28.8992 12.4371C29.0847 12.5148 29.2839 12.5555 29.4854 12.5571C29.687 12.5586 29.8868 12.5208 30.0735 12.446C30.2601 12.3711 30.4299 12.2606 30.573 12.1208C30.7161 11.9811 30.8297 11.8148 30.9073 11.6316C30.9848 11.4484 31.0248 11.2519 31.025 11.0534C31.0251 10.855 30.9853 10.6584 30.908 10.4751C30.8307 10.2919 30.7173 10.1254 30.5744 9.98551L28.1066 7.53462C33.4869 7.53832 38.7332 9.18725 43.121 12.2536C47.5087 15.32 50.8214 19.6526 52.6013 24.6528C54.3812 29.653 54.5406 35.0741 53.0575 40.1674C51.5743 45.2607 48.5218 49.7747 44.3216 53.086C44.0054 53.3356 43.8028 53.6987 43.7585 54.0954C43.7365 54.2918 43.7541 54.4906 43.8101 54.6803C43.8661 54.8701 43.9596 55.0471 44.0851 55.2013C44.2106 55.3555 44.3657 55.4838 44.5416 55.579C44.7174 55.6741 44.9106 55.7342 45.1101 55.7558C45.5129 55.7995 45.9168 55.6838 46.233 55.4342C54.1802 49.158 58.1649 39.4752 56.8913 29.5325V29.5325Z" fill="url(#paint0_linear_204_1898)"/>
<path d="M28.7203 53.1801C28.5794 53.0382 28.4114 52.9252 28.2259 52.8475C28.0404 52.7698 27.8412 52.729 27.6397 52.7275C27.4381 52.726 27.2383 52.7637 27.0516 52.8386C26.865 52.9135 26.6952 53.024 26.5521 53.1638C26.409 53.3036 26.2954 53.4698 26.2179 53.653C26.1403 53.8362 26.1003 54.0328 26.1002 54.2312C26.1 54.4297 26.1398 54.6263 26.2171 54.8096C26.2945 54.9929 26.4078 55.1593 26.5508 55.2993L29.0185 57.7495C23.6388 57.7461 18.3929 56.0976 14.0054 53.0316C9.61779 49.9657 6.30504 45.6337 4.52466 40.6338C2.74427 35.634 2.58409 30.213 4.06623 25.1196C5.54838 20.0262 8.59972 15.5118 12.7988 12.1997C13.1149 11.9499 13.3173 11.5866 13.3615 11.1898C13.4056 10.7931 13.2879 10.3952 13.0343 10.0839C12.7806 9.7726 12.4118 9.57327 12.0089 9.52979C11.606 9.48631 11.2021 9.60223 10.886 9.85206C2.94265 16.1293 -1.03976 25.8111 0.233802 35.7505C1.10781 42.5777 4.4527 48.8652 9.65447 53.4591C14.8562 58.053 21.5658 60.6448 28.5516 60.759L26.5596 62.7051C26.4156 62.8439 26.3008 63.0094 26.2219 63.1921C26.143 63.3747 26.1016 63.571 26.1001 63.7694C26.0985 63.9679 26.1369 64.1648 26.2129 64.3486C26.2889 64.5324 26.4011 64.6996 26.543 64.8406C26.685 64.9815 26.8538 65.0934 27.0398 65.1698C27.2258 65.2462 27.4253 65.2856 27.6269 65.2857C27.8284 65.2858 28.028 65.2467 28.2141 65.1705C28.4002 65.0944 28.5692 64.9827 28.7113 64.8419L33.5509 60.1135C33.6933 59.9744 33.8066 59.809 33.8842 59.6268C33.9618 59.4446 34.0021 59.2491 34.003 59.0515C34.0038 58.8538 33.9651 58.658 33.8891 58.4751C33.813 58.2923 33.7012 58.1259 33.5599 57.9857L28.7203 53.1801Z" fill="url(#paint1_linear_204_1898)"/>
<path d="M30.2277 30.9847C29.9297 30.8705 29.6503 30.7651 29.4097 30.6591C29.1455 30.5424 28.8292 30.4211 28.4801 30.2886C26.4946 29.5345 25.4178 28.9387 25.4178 27.9522C25.4178 27.5166 25.8827 26.8404 26.7702 26.3908C27.3993 26.0729 29.6698 25.2021 32.5632 27.3287C32.785 27.4938 33.0371 27.6135 33.3053 27.6808C33.5734 27.7481 33.8522 27.7618 34.1256 27.7209C34.399 27.6801 34.6617 27.5855 34.8984 27.4428C35.1352 27.3 35.3414 27.1119 35.5051 26.8891C35.6689 26.6664 35.7869 26.4135 35.8526 26.1449C35.9182 25.8763 35.9301 25.5975 35.8875 25.3243C35.8449 25.0511 35.7487 24.7891 35.6045 24.5533C35.4603 24.3174 35.2708 24.1124 35.047 23.9501C33.7447 22.979 32.2483 22.3002 30.6598 21.9601V20.0617C30.6544 19.5091 30.4311 18.981 30.0385 18.5921C29.6458 18.2033 29.1156 17.9851 28.5629 17.9851C28.0103 17.9851 27.48 18.2033 27.0874 18.5921C26.6947 18.981 26.4715 19.5091 26.4661 20.0617V22.0588C25.9179 22.2012 25.3856 22.3988 24.8772 22.6485C22.6236 23.7887 21.2241 25.8209 21.2241 27.9521C21.2241 32.0189 25.119 33.4983 26.9916 34.2094C27.2629 34.3118 27.5107 34.405 27.7166 34.496C28.0165 34.6281 28.3615 34.7612 28.7311 34.9025C30.7901 35.6888 31.7085 36.208 31.7085 37.2025C31.7085 37.6377 31.2436 38.3144 30.356 38.763C29.727 39.0804 27.4575 39.9527 24.563 37.8251C24.115 37.4957 23.5544 37.3578 23.0047 37.4417C22.455 37.5257 21.9611 37.8245 21.6317 38.2726C21.3024 38.7206 21.1645 39.2812 21.2484 39.8309C21.3323 40.3806 21.6312 40.8745 22.0792 41.2039C23.3808 42.1791 24.8772 42.8626 26.4665 43.2078V45.2239C26.4719 45.7765 26.6951 46.3047 27.0878 46.6935C27.4804 47.0824 28.0107 47.3005 28.5633 47.3005C29.116 47.3005 29.6462 47.0824 30.0389 46.6935C30.4315 46.3047 30.6548 45.7765 30.6602 45.2239V43.1038C31.2087 42.9586 31.741 42.7581 32.2491 42.5054C34.5027 41.3653 35.9022 39.3336 35.9022 37.2029C35.9018 33.1528 32.2108 31.7423 30.2277 30.9847V30.9847Z" fill="url(#paint2_linear_204_1898)"/>
<defs>
<linearGradient id="paint0_linear_204_1898" x1="56.2576" y1="30.307" x2="23.3583" y2="30.307" gradientUnits="userSpaceOnUse">
<stop stop-color="#FF00B8"/>
<stop offset="1" stop-color="#00D1FF"/>
</linearGradient>
<linearGradient id="paint1_linear_204_1898" x1="33.1356" y1="39.8278" x2="0.236201" y2="39.8278" gradientUnits="userSpaceOnUse">
<stop stop-color="#FF00B8"/>
<stop offset="1" stop-color="#00D1FF"/>
</linearGradient>
<linearGradient id="paint2_linear_204_1898" x1="35.5378" y1="33.9174" x2="21.3262" y2="33.9174" gradientUnits="userSpaceOnUse">
<stop stop-color="#FF00B8"/>
<stop offset="1" stop-color="#00D1FF"/>
</linearGradient>
</defs>
</svg>
