<svg width="66" height="66" viewBox="0 0 66 66" fill="none" xmlns="http://www.w3.org/2000/svg">
<path fill-rule="evenodd" clip-rule="evenodd" d="M33 -1.52588e-05C26.4732 -1.52588e-05 20.093 1.9354 14.6662 5.56149C9.23937 9.18757 5.00968 14.3415 2.51199 20.3714C0.0142984 26.4014 -0.639212 33.0366 0.634101 39.438C1.90741 45.8393 5.05036 51.7194 9.66549 56.3345C14.2806 60.9496 20.1607 64.0926 26.562 65.3659C32.9634 66.6392 39.5986 65.9857 45.6286 63.488C51.6585 60.9903 56.8124 56.7606 60.4385 51.3338C64.0646 45.907 66 39.5268 66 33C65.9901 24.2509 62.5102 15.8629 56.3236 9.67639C50.1371 3.48984 41.7491 0.00988357 33 -1.52588e-05ZM33 63.8C26.9083 63.8 20.9535 61.9936 15.8885 58.6092C10.8234 55.2249 6.8757 50.4146 4.54452 44.7866C2.21335 39.1587 1.6034 32.9658 2.79183 26.9912C3.98025 21.0166 6.91367 15.5285 11.2211 11.2211C15.5286 6.91364 21.0166 3.98022 26.9912 2.7918C32.9658 1.60337 39.1587 2.21332 44.7867 4.54449C50.4146 6.87567 55.2249 10.8234 58.6093 15.8884C61.9936 20.9535 63.8 26.9083 63.8 33C63.7907 41.1658 60.5427 48.9945 54.7686 54.7686C48.9945 60.5427 41.1658 63.7907 33 63.8ZM33.0004 4.39999C27.3439 4.39999 21.8143 6.07735 17.1111 9.21996C12.4078 12.3626 8.74212 16.8293 6.57745 22.0552C4.41278 27.2812 3.84641 33.0317 4.94994 38.5796C6.05348 44.1274 8.77737 49.2235 12.7771 53.2232C16.7769 57.223 21.873 59.9469 27.4208 61.0504C32.9687 62.154 38.7192 61.5876 43.9451 59.4229C49.1711 57.2583 53.6378 53.5925 56.7804 48.8893C59.923 44.1861 61.6004 38.6565 61.6004 33C61.592 25.4174 58.576 18.1478 53.2143 12.7861C47.8526 7.42435 40.583 4.40844 33.0004 4.39999ZM33.0004 59.4C27.779 59.4 22.6748 57.8517 18.3333 54.9508C13.9919 52.0499 10.6081 47.9268 8.60998 43.1028C6.61183 38.2789 6.08902 32.9707 7.10767 27.8496C8.12632 22.7285 10.6407 18.0245 14.3328 14.3324C18.0249 10.6403 22.7289 8.12591 27.85 7.10726C32.9711 6.08861 38.2793 6.61142 43.1032 8.60957C47.9272 10.6077 52.0503 13.9915 54.9512 18.3329C57.8521 22.6744 59.4004 27.7786 59.4004 33C59.3923 39.9992 56.6082 46.7094 51.659 51.6586C46.7098 56.6078 39.9996 59.3918 33.0004 59.4ZM33.7778 10.6778C33.5715 10.8841 33.2917 11 33 11C28.0733 10.9902 23.2865 12.638 19.4098 15.6783C15.533 18.7187 12.7918 22.9747 11.627 27.7618C11.5684 28.0007 11.4315 28.2131 11.2381 28.365C11.0447 28.5169 10.8059 28.5997 10.56 28.6C10.4721 28.6 10.3846 28.5893 10.2993 28.5681C10.016 28.4986 9.772 28.3195 9.6208 28.0701C9.46961 27.8207 9.42363 27.5215 9.49299 27.2382C10.7743 21.9731 13.7893 17.2919 18.0529 13.9476C22.3166 10.6033 27.5812 8.79023 33 8.8C33.2917 8.8 33.5715 8.91589 33.7778 9.12218C33.9841 9.32847 34.1 9.60826 34.1 9.9C34.1 10.1917 33.9841 10.4715 33.7778 10.6778ZM9.9768 30.8C9.68588 30.7883 9.40204 30.8916 9.18671 31.0876C8.97138 31.2836 8.84187 31.5565 8.82621 31.8472C8.80861 32.23 8.7998 32.6143 8.7998 33C8.7998 33.2917 8.9157 33.5715 9.12199 33.7778C9.32828 33.9841 9.60807 34.1 9.89981 34.1C10.1915 34.1 10.4713 33.9841 10.6776 33.7778C10.8839 33.5715 10.9998 33.2917 10.9998 33C10.9998 32.6491 11.0086 32.2993 11.024 31.9517C11.031 31.8073 11.0094 31.6629 10.9605 31.5269C10.9116 31.3908 10.8364 31.2657 10.7391 31.1588C10.6419 31.0518 10.5245 30.9651 10.3937 30.9035C10.2629 30.8419 10.1212 30.8068 9.9768 30.8ZM31.8276 20.0403C31.9126 19.9849 32.0232 19.9866 32.1058 20.0453C38.7404 24.7923 44.9734 33.2767 45 41.7266C45.0003 41.8416 44.9349 41.9488 44.8337 42.0003C37.5322 45.7487 28.671 45.8995 20.1915 42.9257C20.0097 42.8617 19.9423 42.6369 20.0553 42.4787C20.9703 41.1983 21.9108 40.3354 23.0736 39.3619C24.711 38.0543 28.3421 36.9009 30.4869 36.6409C30.5709 36.6307 30.6397 36.707 30.6238 36.7914C30.4887 37.5105 30.2753 38.1945 30.054 38.6624C29.975 38.829 29.8357 38.958 29.6653 39.0236L28.8025 39.3578C28.6456 39.4185 28.5268 39.5521 28.4838 39.7171L28.0281 41.4636C28.0071 41.5449 28.0911 41.6123 28.1638 41.5726C28.6913 41.2823 30.1596 40.4748 30.6707 40.1939C30.7905 40.1281 30.8926 40.0347 30.9709 39.9211C32.14 38.2282 33.301 35.8504 33.6034 34.4429C33.6183 34.3742 33.5751 34.3084 33.507 34.2979C31.0915 33.9082 27.9226 34.7931 26.608 35.3054L27.9287 34.5135C28.6584 33.9941 29.0181 33.6873 29.7947 32.9864L31.6704 31.2803C31.7682 31.1917 31.9182 31.1997 32.0058 31.2988L32.4565 31.8075C32.7723 32.1635 33.1962 32.4024 33.6606 32.4861L35.7243 32.8578C35.7612 32.8663 35.7982 32.8749 35.8352 32.8834C35.8649 32.8903 35.8947 32.8971 35.9244 32.9038L37.8743 33.4568C38.094 33.5573 38.3527 33.5049 38.5175 33.3256L39.6308 32.1437C39.7442 32.023 39.7412 31.8324 39.6246 31.7155L35.9112 27.9911C35.0585 27.1687 34.4307 26.1354 34.0899 24.9924C34.0655 24.9121 33.9541 24.9117 33.9293 24.9917L33.2333 25.9674C33.0783 26.1846 32.7739 26.3572 32.5678 26.3074C32.5678 26.3074 30.5572 25.6346 28.8026 25.9395C28.7704 25.9454 28.7609 25.9883 28.7878 26.0069C28.8991 26.0858 29.0775 26.2866 29.1801 26.513C29.1971 26.5498 29.1739 26.5914 29.1345 26.584C28.3917 26.4425 27.4595 26.5601 26.7735 26.6467C26.5011 26.6811 26.2674 26.7105 26.1 26.7169C26.0641 26.7183 26.0509 26.7654 26.0814 26.7854C26.2372 26.8862 26.5165 27.094 26.6938 27.3791C26.6958 27.3824 26.6977 27.3858 26.6996 27.3892C26.7011 27.3918 26.7026 27.3944 26.7042 27.3971C26.7105 27.4099 26.718 27.435 26.6818 27.4355V27.4359C26.2054 27.4523 25.0752 27.5943 24.22 28.0556C24.1873 28.0733 24.1976 28.1232 24.2346 28.1259C24.3681 28.1351 24.5785 28.1667 24.7548 28.2696C24.7856 28.2872 24.7856 28.3253 24.7548 28.343C24.6379 28.4037 24.5165 28.4651 24.3927 28.5278C23.7916 28.832 23.1327 29.1655 22.6398 29.5831C24.9118 26.1853 27.7607 22.6881 31.8276 20.0403Z" fill="url(#paint0_linear_204_1881)"/>
<defs>
<linearGradient id="paint0_linear_204_1881" x1="64.3164" y1="35.8695" x2="0.458468" y2="35.8695" gradientUnits="userSpaceOnUse">
<stop stop-color="#FF00B8"/>
<stop offset="1" stop-color="#00D1FF"/>
</linearGradient>
</defs>
</svg>
